{"glyphs":{"0":{"ha":1472,"x_min":278,"x_max":1194,"o":"m 1144 450 q 1144 441 1144 447 q 1144 427 1144 435 q 1142 413 1143 419 q 1140 403 1140 407 q 1136 383 1139 393 q 1132 364 1133 374 q 1074 240 1113 296 q 984 143 1036 183 q 867 80 932 103 q 732 57 803 57 q 567 91 644 57 q 435 183 490 125 q 349 318 381 240 q 321 483 318 396 q 322 486 322 483 q 338 587 324 539 q 381 679 353 635 q 403 714 389 694 q 434 751 417 733 q 469 785 451 769 q 504 808 488 801 l 506 813 l 508 813 l 511 814 q 515 817 513 817 q 521 819 518 818 q 531 826 526 824 q 539 832 535 829 q 564 844 550 839 q 589 854 578 849 q 659 874 624 868 q 732 881 694 881 q 886 851 811 881 q 1019 764 961 821 q 1056 724 1039 744 q 1089 678 1074 703 q 1097 663 1093 671 q 1103 647 1100 654 q 1108 638 1106 642 q 1113 628 1111 633 q 1124 601 1119 614 q 1132 574 1128 588 q 1142 513 1139 542 q 1144 450 1144 485 m 950 653 q 891 651 921 650 q 832 651 861 651 l 810 651 q 792 590 800 621 q 774 531 783 560 q 783 530 778 529 q 794 531 789 531 q 806 528 801 531 l 806 258 l 926 258 l 926 390 l 1018 390 q 1034 445 1025 418 q 1050 500 1043 472 l 926 500 q 927 509 928 504 q 926 518 926 514 q 926 523 926 519 q 928 528 926 526 l 1031 528 q 1049 594 1039 561 q 1067 660 1060 626 l 951 660 q 950 653 949 658 m 433 647 q 416 588 425 618 q 400 531 407 558 q 410 530 406 529 q 421 531 415 531 q 425 531 422 531 q 431 528 428 531 l 431 258 l 551 258 l 551 363 q 551 380 551 371 q 554 397 551 389 q 577 397 565 397 q 600 397 589 397 q 614 397 607 397 q 628 397 621 397 l 628 260 q 652 258 640 258 q 675 258 664 258 q 713 258 694 258 q 750 258 731 258 l 750 651 q 713 651 731 650 q 675 651 694 651 q 628 649 651 651 l 628 522 l 551 522 q 552 561 551 542 q 553 601 553 581 q 550 651 553 625 l 436 651 q 433 649 433 651 q 433 647 433 647 m 446 -75 l 425 -75 l 425 -31 l 421 -31 l 426 -10 l 450 -10 l 450 -8 l 469 -8 l 464 -31 l 446 -31 l 446 -36 l 467 -36 l 461 -54 l 446 -54 l 446 -75 m 478 -31 l 472 -31 l 478 -10 l 497 -10 l 497 -46 q 504 -57 497 -57 q 511 -46 511 -57 l 511 -10 l 531 -10 l 531 -47 q 504 -76 531 -76 q 478 -47 478 -76 l 478 -31 m 561 -56 l 574 -56 l 567 -75 l 540 -75 l 540 -31 l 533 -31 l 540 -10 l 561 -10 l 561 -56 m 600 -56 l 614 -56 l 607 -75 l 581 -75 l 581 -31 l 575 -31 l 581 -10 l 600 -10 l 600 -56 m 700 -10 l 678 -75 l 660 -75 l 636 -10 l 658 -10 l 668 -42 l 678 -10 l 700 -10 m 740 -75 l 703 -75 l 703 -31 l 699 -31 l 704 -10 l 728 -10 l 728 -8 l 747 -8 l 742 -31 l 724 -31 l 724 -35 l 746 -35 l 742 -51 l 724 -51 l 724 -54 l 747 -54 l 740 -75 m 775 -61 l 775 -75 l 756 -75 l 756 -31 l 750 -31 l 756 -10 l 775 -10 q 788 -11 783 -10 q 799 -15 793 -12 q 806 -35 806 -24 q 794 -56 806 -47 l 808 -75 l 783 -75 l 775 -61 m 778 -31 l 775 -31 l 775 -42 l 778 -42 q 785 -36 785 -42 q 778 -31 785 -31 m 844 -8 l 861 -11 l 856 -31 q 840 -28 846 -28 q 836 -31 836 -28 q 840 -33 836 -32 q 849 -36 844 -35 q 858 -42 854 -37 q 863 -54 863 -47 q 856 -71 863 -65 q 836 -76 849 -76 q 815 -71 826 -76 l 819 -51 q 828 -56 824 -53 q 836 -58 833 -58 q 842 -54 842 -58 q 838 -51 842 -53 q 828 -47 833 -49 q 818 -42 822 -46 q 814 -31 814 -37 q 820 -15 814 -21 q 835 -10 826 -10 q 843 -11 839 -10 l 844 -8 m 890 -10 l 890 -75 l 871 -75 l 871 -31 l 865 -31 l 871 -10 l 890 -10 m 931 -10 q 954 -20 944 -10 q 964 -43 964 -31 q 954 -67 964 -57 q 931 -76 944 -76 q 906 -67 915 -76 q 897 -43 897 -57 q 907 -20 897 -31 q 931 -10 917 -10 m 943 -43 q 940 -34 943 -37 q 931 -31 936 -31 q 920 -34 924 -31 q 917 -43 917 -37 q 920 -53 917 -49 q 931 -57 924 -57 q 940 -53 936 -57 q 943 -43 943 -49 m 992 -47 l 992 -75 l 972 -75 l 972 -31 l 967 -31 l 972 -10 l 992 -10 l 1006 -35 l 1006 -10 l 1028 -10 l 1028 -75 l 1010 -75 l 992 -47 m 311 -122 q 335 -132 326 -122 q 344 -157 344 -142 q 335 -180 344 -169 q 311 -190 326 -190 q 287 -180 296 -190 q 278 -156 278 -169 q 288 -132 278 -142 q 311 -122 297 -122 m 324 -157 q 311 -143 324 -143 q 299 -157 299 -143 q 311 -169 299 -169 q 324 -157 324 -169 m 372 -160 l 372 -189 l 353 -189 l 353 -143 l 347 -143 l 354 -124 l 372 -124 l 388 -147 l 388 -124 l 408 -124 l 408 -189 l 390 -189 l 372 -160 m 461 -124 l 461 -144 l 474 -144 l 474 -124 l 494 -124 l 494 -189 l 474 -189 l 474 -165 l 461 -165 l 461 -189 l 440 -189 l 440 -143 l 436 -143 l 442 -124 l 461 -124 m 542 -189 l 504 -189 l 504 -143 l 500 -143 l 506 -124 l 528 -124 l 528 -121 l 549 -121 l 542 -143 l 524 -143 l 524 -147 l 547 -147 l 543 -164 l 524 -164 l 524 -168 l 547 -168 l 542 -189 m 578 -174 l 578 -189 l 556 -189 l 556 -143 l 550 -143 l 557 -124 l 578 -124 q 599 -129 593 -124 q 607 -147 607 -136 q 597 -169 607 -162 l 608 -189 l 585 -189 l 578 -174 m 581 -143 l 578 -143 l 578 -154 l 579 -154 q 588 -149 588 -154 q 581 -143 588 -143 m 649 -122 q 672 -132 663 -122 q 682 -157 682 -142 q 672 -180 682 -169 q 649 -190 663 -190 q 624 -180 633 -190 q 614 -156 614 -169 q 624 -132 614 -142 q 649 -122 633 -122 m 661 -157 q 658 -147 661 -151 q 649 -143 654 -143 q 635 -157 635 -143 q 649 -169 635 -169 q 658 -166 654 -169 q 661 -157 661 -162 m 708 -189 l 689 -189 l 689 -143 l 683 -143 l 689 -124 l 713 -124 l 714 -121 l 733 -121 l 726 -143 l 708 -143 l 708 -147 l 729 -147 l 725 -167 l 708 -167 l 708 -189 m 772 -122 q 795 -132 785 -122 q 806 -157 806 -142 q 795 -180 806 -169 q 772 -190 785 -190 q 747 -180 756 -190 q 738 -156 738 -169 q 747 -132 738 -142 q 772 -122 756 -122 m 783 -157 q 772 -143 783 -143 q 758 -157 758 -143 q 772 -169 758 -169 q 783 -157 783 -169 m 832 -160 l 832 -189 l 811 -189 l 811 -143 l 806 -143 l 811 -124 l 832 -124 l 847 -147 l 847 -124 l 867 -124 l 867 -189 l 850 -189 l 832 -160 m 903 -143 l 903 -189 l 882 -189 l 882 -143 l 872 -143 l 878 -124 l 900 -124 l 900 -121 l 919 -121 l 913 -143 l 903 -143 m 950 -121 l 967 -125 l 961 -144 q 947 -142 953 -142 q 943 -142 943 -142 q 947 -146 943 -144 q 956 -149 950 -147 q 965 -156 961 -151 q 968 -168 968 -160 q 943 -190 968 -190 q 933 -188 938 -190 q 922 -185 928 -186 l 926 -164 q 943 -169 935 -169 q 947 -168 947 -169 q 943 -164 947 -165 q 933 -160 939 -162 q 924 -155 928 -158 q 919 -143 919 -151 q 926 -128 919 -135 q 942 -122 933 -122 q 946 -123 944 -122 q 950 -124 947 -124 l 950 -121 m 983 -168 q 994 -179 994 -168 q 983 -190 994 -190 q 972 -179 972 -190 q 983 -168 972 -168 m 1036 -121 l 1053 -128 l 1043 -147 q 1035 -144 1038 -146 q 1031 -142 1033 -142 q 1017 -156 1017 -142 q 1031 -169 1017 -169 q 1044 -164 1038 -169 l 1053 -181 q 1029 -190 1042 -190 q 1006 -181 1017 -190 q 996 -156 996 -171 q 1006 -132 996 -142 q 1029 -122 1017 -122 q 1035 -124 1032 -122 l 1036 -121 m 1089 -122 q 1114 -132 1106 -122 q 1122 -157 1122 -142 q 1114 -180 1122 -169 q 1089 -190 1106 -190 q 1065 -180 1074 -190 q 1056 -156 1056 -169 q 1065 -132 1056 -142 q 1089 -122 1075 -122 m 1103 -157 q 1089 -143 1103 -143 q 1076 -157 1076 -143 q 1089 -169 1076 -169 q 1103 -157 1103 -169 m 1150 -154 l 1150 -189 l 1131 -189 l 1131 -143 l 1126 -143 l 1131 -124 l 1150 -124 l 1161 -137 l 1172 -124 l 1194 -124 l 1194 -189 l 1174 -189 l 1174 -154 l 1161 -168 l 1150 -154 z "},"1":{"ha":1472,"x_min":278,"x_max":1194,"o":"m 1144 450 q 1144 441 1144 447 q 1144 427 1144 435 q 1142 413 1143 419 q 1140 403 1140 407 q 1136 383 1139 393 q 1132 364 1133 374 q 1074 240 1113 296 q 984 143 1036 183 q 867 80 932 103 q 732 57 803 57 q 567 91 644 57 q 435 183 490 125 q 349 318 381 240 q 321 483 318 396 q 322 486 322 483 q 338 587 324 539 q 381 679 353 635 q 403 714 389 694 q 434 751 417 733 q 469 785 451 769 q 504 808 488 801 l 506 813 l 508 813 l 511 814 q 515 817 513 817 q 521 819 518 818 q 531 826 526 824 q 539 832 535 829 q 564 844 550 839 q 589 854 578 849 q 659 874 624 868 q 732 881 694 881 q 886 851 811 881 q 1019 764 961 821 q 1056 724 1039 744 q 1089 678 1074 703 q 1097 663 1093 671 q 1103 647 1100 654 q 1108 638 1106 642 q 1113 628 1111 633 q 1124 601 1119 614 q 1132 574 1128 588 q 1142 513 1139 542 q 1144 450 1144 485 m 950 653 q 891 651 921 650 q 832 651 861 651 l 810 651 q 792 590 800 621 q 774 531 783 560 q 783 530 778 529 q 794 531 789 531 q 806 528 801 531 l 806 258 l 926 258 l 926 390 l 1018 390 q 1034 445 1025 418 q 1050 500 1043 472 l 926 500 q 927 509 928 504 q 926 518 926 514 q 926 523 926 519 q 928 528 926 526 l 1031 528 q 1049 594 1039 561 q 1067 660 1060 626 l 951 660 q 950 653 949 658 m 433 647 q 416 588 425 618 q 400 531 407 558 q 410 530 406 529 q 421 531 415 531 q 425 531 422 531 q 431 528 428 531 l 431 258 l 551 258 l 551 363 q 551 380 551 371 q 554 397 551 389 q 577 397 565 397 q 600 397 589 397 q 614 397 607 397 q 628 397 621 397 l 628 260 q 652 258 640 258 q 675 258 664 258 q 713 258 694 258 q 750 258 731 258 l 750 651 q 713 651 731 650 q 675 651 694 651 q 628 649 651 651 l 628 522 l 551 522 q 552 561 551 542 q 553 601 553 581 q 550 651 553 625 l 436 651 q 433 649 433 651 q 433 647 433 647 m 446 -75 l 425 -75 l 425 -31 l 421 -31 l 426 -10 l 450 -10 l 450 -8 l 469 -8 l 464 -31 l 446 -31 l 446 -36 l 467 -36 l 461 -54 l 446 -54 l 446 -75 m 478 -31 l 472 -31 l 478 -10 l 497 -10 l 497 -46 q 504 -57 497 -57 q 511 -46 511 -57 l 511 -10 l 531 -10 l 531 -47 q 504 -76 531 -76 q 478 -47 478 -76 l 478 -31 m 561 -56 l 574 -56 l 567 -75 l 540 -75 l 540 -31 l 533 -31 l 540 -10 l 561 -10 l 561 -56 m 600 -56 l 614 -56 l 607 -75 l 581 -75 l 581 -31 l 575 -31 l 581 -10 l 600 -10 l 600 -56 m 700 -10 l 678 -75 l 660 -75 l 636 -10 l 658 -10 l 668 -42 l 678 -10 l 700 -10 m 740 -75 l 703 -75 l 703 -31 l 699 -31 l 704 -10 l 728 -10 l 728 -8 l 747 -8 l 742 -31 l 724 -31 l 724 -35 l 746 -35 l 742 -51 l 724 -51 l 724 -54 l 747 -54 l 740 -75 m 775 -61 l 775 -75 l 756 -75 l 756 -31 l 750 -31 l 756 -10 l 775 -10 q 788 -11 783 -10 q 799 -15 793 -12 q 806 -35 806 -24 q 794 -56 806 -47 l 808 -75 l 783 -75 l 775 -61 m 778 -31 l 775 -31 l 775 -42 l 778 -42 q 785 -36 785 -42 q 778 -31 785 -31 m 844 -8 l 861 -11 l 856 -31 q 840 -28 846 -28 q 836 -31 836 -28 q 840 -33 836 -32 q 849 -36 844 -35 q 858 -42 854 -37 q 863 -54 863 -47 q 856 -71 863 -65 q 836 -76 849 -76 q 815 -71 826 -76 l 819 -51 q 828 -56 824 -53 q 836 -58 833 -58 q 842 -54 842 -58 q 838 -51 842 -53 q 828 -47 833 -49 q 818 -42 822 -46 q 814 -31 814 -37 q 820 -15 814 -21 q 835 -10 826 -10 q 843 -11 839 -10 l 844 -8 m 890 -10 l 890 -75 l 871 -75 l 871 -31 l 865 -31 l 871 -10 l 890 -10 m 931 -10 q 954 -20 944 -10 q 964 -43 964 -31 q 954 -67 964 -57 q 931 -76 944 -76 q 906 -67 915 -76 q 897 -43 897 -57 q 907 -20 897 -31 q 931 -10 917 -10 m 943 -43 q 940 -34 943 -37 q 931 -31 936 -31 q 920 -34 924 -31 q 917 -43 917 -37 q 920 -53 917 -49 q 931 -57 924 -57 q 940 -53 936 -57 q 943 -43 943 -49 m 992 -47 l 992 -75 l 972 -75 l 972 -31 l 967 -31 l 972 -10 l 992 -10 l 1006 -35 l 1006 -10 l 1028 -10 l 1028 -75 l 1010 -75 l 992 -47 m 311 -122 q 335 -132 326 -122 q 344 -157 344 -142 q 335 -180 344 -169 q 311 -190 326 -190 q 287 -180 296 -190 q 278 -156 278 -169 q 288 -132 278 -142 q 311 -122 297 -122 m 324 -157 q 311 -143 324 -143 q 299 -157 299 -143 q 311 -169 299 -169 q 324 -157 324 -169 m 372 -160 l 372 -189 l 353 -189 l 353 -143 l 347 -143 l 354 -124 l 372 -124 l 388 -147 l 388 -124 l 408 -124 l 408 -189 l 390 -189 l 372 -160 m 461 -124 l 461 -144 l 474 -144 l 474 -124 l 494 -124 l 494 -189 l 474 -189 l 474 -165 l 461 -165 l 461 -189 l 440 -189 l 440 -143 l 436 -143 l 442 -124 l 461 -124 m 542 -189 l 504 -189 l 504 -143 l 500 -143 l 506 -124 l 528 -124 l 528 -121 l 549 -121 l 542 -143 l 524 -143 l 524 -147 l 547 -147 l 543 -164 l 524 -164 l 524 -168 l 547 -168 l 542 -189 m 578 -174 l 578 -189 l 556 -189 l 556 -143 l 550 -143 l 557 -124 l 578 -124 q 599 -129 593 -124 q 607 -147 607 -136 q 597 -169 607 -162 l 608 -189 l 585 -189 l 578 -174 m 581 -143 l 578 -143 l 578 -154 l 579 -154 q 588 -149 588 -154 q 581 -143 588 -143 m 649 -122 q 672 -132 663 -122 q 682 -157 682 -142 q 672 -180 682 -169 q 649 -190 663 -190 q 624 -180 633 -190 q 614 -156 614 -169 q 624 -132 614 -142 q 649 -122 633 -122 m 661 -157 q 658 -147 661 -151 q 649 -143 654 -143 q 635 -157 635 -143 q 649 -169 635 -169 q 658 -166 654 -169 q 661 -157 661 -162 m 708 -189 l 689 -189 l 689 -143 l 683 -143 l 689 -124 l 713 -124 l 714 -121 l 733 -121 l 726 -143 l 708 -143 l 708 -147 l 729 -147 l 725 -167 l 708 -167 l 708 -189 m 772 -122 q 795 -132 785 -122 q 806 -157 806 -142 q 795 -180 806 -169 q 772 -190 785 -190 q 747 -180 756 -190 q 738 -156 738 -169 q 747 -132 738 -142 q 772 -122 756 -122 m 783 -157 q 772 -143 783 -143 q 758 -157 758 -143 q 772 -169 758 -169 q 783 -157 783 -169 m 832 -160 l 832 -189 l 811 -189 l 811 -143 l 806 -143 l 811 -124 l 832 -124 l 847 -147 l 847 -124 l 867 -124 l 867 -189 l 850 -189 l 832 -160 m 903 -143 l 903 -189 l 882 -189 l 882 -143 l 872 -143 l 878 -124 l 900 -124 l 900 -121 l 919 -121 l 913 -143 l 903 -143 m 950 -121 l 967 -125 l 961 -144 q 947 -142 953 -142 q 943 -142 943 -142 q 947 -146 943 -144 q 956 -149 950 -147 q 965 -156 961 -151 q 968 -168 968 -160 q 943 -190 968 -190 q 933 -188 938 -190 q 922 -185 928 -186 l 926 -164 q 943 -169 935 -169 q 947 -168 947 -169 q 943 -164 947 -165 q 933 -160 939 -162 q 924 -155 928 -158 q 919 -143 919 -151 q 926 -128 919 -135 q 942 -122 933 -122 q 946 -123 944 -122 q 950 -124 947 -124 l 950 -121 m 983 -168 q 994 -179 994 -168 q 983 -190 994 -190 q 972 -179 972 -190 q 983 -168 972 -168 m 1036 -121 l 1053 -128 l 1043 -147 q 1035 -144 1038 -146 q 1031 -142 1033 -142 q 1017 -156 1017 -142 q 1031 -169 1017 -169 q 1044 -164 1038 -169 l 1053 -181 q 1029 -190 1042 -190 q 1006 -181 1017 -190 q 996 -156 996 -171 q 1006 -132 996 -142 q 1029 -122 1017 -122 q 1035 -124 1032 -122 l 1036 -121 m 1089 -122 q 1114 -132 1106 -122 q 1122 -157 1122 -142 q 1114 -180 1122 -169 q 1089 -190 1106 -190 q 1065 -180 1074 -190 q 1056 -156 1056 -169 q 1065 -132 1056 -142 q 1089 -122 1075 -122 m 1103 -157 q 1089 -143 1103 -143 q 1076 -157 1076 -143 q 1089 -169 1076 -169 q 1103 -157 1103 -169 m 1150 -154 l 1150 -189 l 1131 -189 l 1131 -143 l 1126 -143 l 1131 -124 l 1150 -124 l 1161 -137 l 1172 -124 l 1194 -124 l 1194 -189 l 1174 -189 l 1174 -154 l 1161 -168 l 1150 -154 z "},"2":{"ha":1472,"x_min":278,"x_max":1194,"o":"m 1144 450 q 1144 441 1144 447 q 1144 427 1144 435 q 1142 413 1143 419 q 1140 403 1140 407 q 1136 383 1139 393 q 1132 364 1133 374 q 1074 240 1113 296 q 984 143 1036 183 q 867 80 932 103 q 732 57 803 57 q 567 91 644 57 q 435 183 490 125 q 349 318 381 240 q 321 483 318 396 q 322 486 322 483 q 338 587 324 539 q 381 679 353 635 q 403 714 389 694 q 434 751 417 733 q 469 785 451 769 q 504 808 488 801 l 506 813 l 508 813 l 511 814 q 515 817 513 817 q 521 819 518 818 q 531 826 526 824 q 539 832 535 829 q 564 844 550 839 q 589 854 578 849 q 659 874 624 868 q 732 881 694 881 q 886 851 811 881 q 1019 764 961 821 q 1056 724 1039 744 q 1089 678 1074 703 q 1097 663 1093 671 q 1103 647 1100 654 q 1108 638 1106 642 q 1113 628 1111 633 q 1124 601 1119 614 q 1132 574 1128 588 q 1142 513 1139 542 q 1144 450 1144 485 m 950 653 q 891 651 921 650 q 832 651 861 651 l 810 651 q 792 590 800 621 q 774 531 783 560 q 783 530 778 529 q 794 531 789 531 q 806 528 801 531 l 806 258 l 926 258 l 926 390 l 1018 390 q 1034 445 1025 418 q 1050 500 1043 472 l 926 500 q 927 509 928 504 q 926 518 926 514 q 926 523 926 519 q 928 528 926 526 l 1031 528 q 1049 594 1039 561 q 1067 660 1060 626 l 951 660 q 950 653 949 658 m 433 647 q 416 588 425 618 q 400 531 407 558 q 410 530 406 529 q 421 531 415 531 q 425 531 422 531 q 431 528 428 531 l 431 258 l 551 258 l 551 363 q 551 380 551 371 q 554 397 551 389 q 577 397 565 397 q 600 397 589 397 q 614 397 607 397 q 628 397 621 397 l 628 260 q 652 258 640 258 q 675 258 664 258 q 713 258 694 258 q 750 258 731 258 l 750 651 q 713 651 731 650 q 675 651 694 651 q 628 649 651 651 l 628 522 l 551 522 q 552 561 551 542 q 553 601 553 581 q 550 651 553 625 l 436 651 q 433 649 433 651 q 433 647 433 647 m 446 -75 l 425 -75 l 425 -31 l 421 -31 l 426 -10 l 450 -10 l 450 -8 l 469 -8 l 464 -31 l 446 -31 l 446 -36 l 467 -36 l 461 -54 l 446 -54 l 446 -75 m 478 -31 l 472 -31 l 478 -10 l 497 -10 l 497 -46 q 504 -57 497 -57 q 511 -46 511 -57 l 511 -10 l 531 -10 l 531 -47 q 504 -76 531 -76 q 478 -47 478 -76 l 478 -31 m 561 -56 l 574 -56 l 567 -75 l 540 -75 l 540 -31 l 533 -31 l 540 -10 l 561 -10 l 561 -56 m 600 -56 l 614 -56 l 607 -75 l 581 -75 l 581 -31 l 575 -31 l 581 -10 l 600 -10 l 600 -56 m 700 -10 l 678 -75 l 660 -75 l 636 -10 l 658 -10 l 668 -42 l 678 -10 l 700 -10 m 740 -75 l 703 -75 l 703 -31 l 699 -31 l 704 -10 l 728 -10 l 728 -8 l 747 -8 l 742 -31 l 724 -31 l 724 -35 l 746 -35 l 742 -51 l 724 -51 l 724 -54 l 747 -54 l 740 -75 m 775 -61 l 775 -75 l 756 -75 l 756 -31 l 750 -31 l 756 -10 l 775 -10 q 788 -11 783 -10 q 799 -15 793 -12 q 806 -35 806 -24 q 794 -56 806 -47 l 808 -75 l 783 -75 l 775 -61 m 778 -31 l 775 -31 l 775 -42 l 778 -42 q 785 -36 785 -42 q 778 -31 785 -31 m 844 -8 l 861 -11 l 856 -31 q 840 -28 846 -28 q 836 -31 836 -28 q 840 -33 836 -32 q 849 -36 844 -35 q 858 -42 854 -37 q 863 -54 863 -47 q 856 -71 863 -65 q 836 -76 849 -76 q 815 -71 826 -76 l 819 -51 q 828 -56 824 -53 q 836 -58 833 -58 q 842 -54 842 -58 q 838 -51 842 -53 q 828 -47 833 -49 q 818 -42 822 -46 q 814 -31 814 -37 q 820 -15 814 -21 q 835 -10 826 -10 q 843 -11 839 -10 l 844 -8 m 890 -10 l 890 -75 l 871 -75 l 871 -31 l 865 -31 l 871 -10 l 890 -10 m 931 -10 q 954 -20 944 -10 q 964 -43 964 -31 q 954 -67 964 -57 q 931 -76 944 -76 q 906 -67 915 -76 q 897 -43 897 -57 q 907 -20 897 -31 q 931 -10 917 -10 m 943 -43 q 940 -34 943 -37 q 931 -31 936 -31 q 920 -34 924 -31 q 917 -43 917 -37 q 920 -53 917 -49 q 931 -57 924 -57 q 940 -53 936 -57 q 943 -43 943 -49 m 992 -47 l 992 -75 l 972 -75 l 972 -31 l 967 -31 l 972 -10 l 992 -10 l 1006 -35 l 1006 -10 l 1028 -10 l 1028 -75 l 1010 -75 l 992 -47 m 311 -122 q 335 -132 326 -122 q 344 -157 344 -142 q 335 -180 344 -169 q 311 -190 326 -190 q 287 -180 296 -190 q 278 -156 278 -169 q 288 -132 278 -142 q 311 -122 297 -122 m 324 -157 q 311 -143 324 -143 q 299 -157 299 -143 q 311 -169 299 -169 q 324 -157 324 -169 m 372 -160 l 372 -189 l 353 -189 l 353 -143 l 347 -143 l 354 -124 l 372 -124 l 388 -147 l 388 -124 l 408 -124 l 408 -189 l 390 -189 l 372 -160 m 461 -124 l 461 -144 l 474 -144 l 474 -124 l 494 -124 l 494 -189 l 474 -189 l 474 -165 l 461 -165 l 461 -189 l 440 -189 l 440 -143 l 436 -143 l 442 -124 l 461 -124 m 542 -189 l 504 -189 l 504 -143 l 500 -143 l 506 -124 l 528 -124 l 528 -121 l 549 -121 l 542 -143 l 524 -143 l 524 -147 l 547 -147 l 543 -164 l 524 -164 l 524 -168 l 547 -168 l 542 -189 m 578 -174 l 578 -189 l 556 -189 l 556 -143 l 550 -143 l 557 -124 l 578 -124 q 599 -129 593 -124 q 607 -147 607 -136 q 597 -169 607 -162 l 608 -189 l 585 -189 l 578 -174 m 581 -143 l 578 -143 l 578 -154 l 579 -154 q 588 -149 588 -154 q 581 -143 588 -143 m 649 -122 q 672 -132 663 -122 q 682 -157 682 -142 q 672 -180 682 -169 q 649 -190 663 -190 q 624 -180 633 -190 q 614 -156 614 -169 q 624 -132 614 -142 q 649 -122 633 -122 m 661 -157 q 658 -147 661 -151 q 649 -143 654 -143 q 635 -157 635 -143 q 649 -169 635 -169 q 658 -166 654 -169 q 661 -157 661 -162 m 708 -189 l 689 -189 l 689 -143 l 683 -143 l 689 -124 l 713 -124 l 714 -121 l 733 -121 l 726 -143 l 708 -143 l 708 -147 l 729 -147 l 725 -167 l 708 -167 l 708 -189 m 772 -122 q 795 -132 785 -122 q 806 -157 806 -142 q 795 -180 806 -169 q 772 -190 785 -190 q 747 -180 756 -190 q 738 -156 738 -169 q 747 -132 738 -142 q 772 -122 756 -122 m 783 -157 q 772 -143 783 -143 q 758 -157 758 -143 q 772 -169 758 -169 q 783 -157 783 -169 m 832 -160 l 832 -189 l 811 -189 l 811 -143 l 806 -143 l 811 -124 l 832 -124 l 847 -147 l 847 -124 l 867 -124 l 867 -189 l 850 -189 l 832 -160 m 903 -143 l 903 -189 l 882 -189 l 882 -143 l 872 -143 l 878 -124 l 900 -124 l 900 -121 l 919 -121 l 913 -143 l 903 -143 m 950 -121 l 967 -125 l 961 -144 q 947 -142 953 -142 q 943 -142 943 -142 q 947 -146 943 -144 q 956 -149 950 -147 q 965 -156 961 -151 q 968 -168 968 -160 q 943 -190 968 -190 q 933 -188 938 -190 q 922 -185 928 -186 l 926 -164 q 943 -169 935 -169 q 947 -168 947 -169 q 943 -164 947 -165 q 933 -160 939 -162 q 924 -155 928 -158 q 919 -143 919 -151 q 926 -128 919 -135 q 942 -122 933 -122 q 946 -123 944 -122 q 950 -124 947 -124 l 950 -121 m 983 -168 q 994 -179 994 -168 q 983 -190 994 -190 q 972 -179 972 -190 q 983 -168 972 -168 m 1036 -121 l 1053 -128 l 1043 -147 q 1035 -144 1038 -146 q 1031 -142 1033 -142 q 1017 -156 1017 -142 q 1031 -169 1017 -169 q 1044 -164 1038 -169 l 1053 -181 q 1029 -190 1042 -190 q 1006 -181 1017 -190 q 996 -156 996 -171 q 1006 -132 996 -142 q 1029 -122 1017 -122 q 1035 -124 1032 -122 l 1036 -121 m 1089 -122 q 1114 -132 1106 -122 q 1122 -157 1122 -142 q 1114 -180 1122 -169 q 1089 -190 1106 -190 q 1065 -180 1074 -190 q 1056 -156 1056 -169 q 1065 -132 1056 -142 q 1089 -122 1075 -122 m 1103 -157 q 1089 -143 1103 -143 q 1076 -157 1076 -143 q 1089 -169 1076 -169 q 1103 -157 1103 -169 m 1150 -154 l 1150 -189 l 1131 -189 l 1131 -143 l 1126 -143 l 1131 -124 l 1150 -124 l 1161 -137 l 1172 -124 l 1194 -124 l 1194 -189 l 1174 -189 l 1174 -154 l 1161 -168 l 1150 -154 z "},"3":{"ha":1472,"x_min":278,"x_max":1194,"o":"m 1144 450 q 1144 441 1144 447 q 1144 427 1144 435 q 1142 413 1143 419 q 1140 403 1140 407 q 1136 383 1139 393 q 1132 364 1133 374 q 1074 240 1113 296 q 984 143 1036 183 q 867 80 932 103 q 732 57 803 57 q 567 91 644 57 q 435 183 490 125 q 349 318 381 240 q 321 483 318 396 q 322 486 322 483 q 338 587 324 539 q 381 679 353 635 q 403 714 389 694 q 434 751 417 733 q 469 785 451 769 q 504 808 488 801 l 506 813 l 508 813 l 511 814 q 515 817 513 817 q 521 819 518 818 q 531 826 526 824 q 539 832 535 829 q 564 844 550 839 q 589 854 578 849 q 659 874 624 868 q 732 881 694 881 q 886 851 811 881 q 1019 764 961 821 q 1056 724 1039 744 q 1089 678 1074 703 q 1097 663 1093 671 q 1103 647 1100 654 q 1108 638 1106 642 q 1113 628 1111 633 q 1124 601 1119 614 q 1132 574 1128 588 q 1142 513 1139 542 q 1144 450 1144 485 m 950 653 q 891 651 921 650 q 832 651 861 651 l 810 651 q 792 590 800 621 q 774 531 783 560 q 783 530 778 529 q 794 531 789 531 q 806 528 801 531 l 806 258 l 926 258 l 926 390 l 1018 390 q 1034 445 1025 418 q 1050 500 1043 472 l 926 500 q 927 509 928 504 q 926 518 926 514 q 926 523 926 519 q 928 528 926 526 l 1031 528 q 1049 594 1039 561 q 1067 660 1060 626 l 951 660 q 950 653 949 658 m 433 647 q 416 588 425 618 q 400 531 407 558 q 410 530 406 529 q 421 531 415 531 q 425 531 422 531 q 431 528 428 531 l 431 258 l 551 258 l 551 363 q 551 380 551 371 q 554 397 551 389 q 577 397 565 397 q 600 397 589 397 q 614 397 607 397 q 628 397 621 397 l 628 260 q 652 258 640 258 q 675 258 664 258 q 713 258 694 258 q 750 258 731 258 l 750 651 q 713 651 731 650 q 675 651 694 651 q 628 649 651 651 l 628 522 l 551 522 q 552 561 551 542 q 553 601 553 581 q 550 651 553 625 l 436 651 q 433 649 433 651 q 433 647 433 647 m 446 -75 l 425 -75 l 425 -31 l 421 -31 l 426 -10 l 450 -10 l 450 -8 l 469 -8 l 464 -31 l 446 -31 l 446 -36 l 467 -36 l 461 -54 l 446 -54 l 446 -75 m 478 -31 l 472 -31 l 478 -10 l 497 -10 l 497 -46 q 504 -57 497 -57 q 511 -46 511 -57 l 511 -10 l 531 -10 l 531 -47 q 504 -76 531 -76 q 478 -47 478 -76 l 478 -31 m 561 -56 l 574 -56 l 567 -75 l 540 -75 l 540 -31 l 533 -31 l 540 -10 l 561 -10 l 561 -56 m 600 -56 l 614 -56 l 607 -75 l 581 -75 l 581 -31 l 575 -31 l 581 -10 l 600 -10 l 600 -56 m 700 -10 l 678 -75 l 660 -75 l 636 -10 l 658 -10 l 668 -42 l 678 -10 l 700 -10 m 740 -75 l 703 -75 l 703 -31 l 699 -31 l 704 -10 l 728 -10 l 728 -8 l 747 -8 l 742 -31 l 724 -31 l 724 -35 l 746 -35 l 742 -51 l 724 -51 l 724 -54 l 747 -54 l 740 -75 m 775 -61 l 775 -75 l 756 -75 l 756 -31 l 750 -31 l 756 -10 l 775 -10 q 788 -11 783 -10 q 799 -15 793 -12 q 806 -35 806 -24 q 794 -56 806 -47 l 808 -75 l 783 -75 l 775 -61 m 778 -31 l 775 -31 l 775 -42 l 778 -42 q 785 -36 785 -42 q 778 -31 785 -31 m 844 -8 l 861 -11 l 856 -31 q 840 -28 846 -28 q 836 -31 836 -28 q 840 -33 836 -32 q 849 -36 844 -35 q 858 -42 854 -37 q 863 -54 863 -47 q 856 -71 863 -65 q 836 -76 849 -76 q 815 -71 826 -76 l 819 -51 q 828 -56 824 -53 q 836 -58 833 -58 q 842 -54 842 -58 q 838 -51 842 -53 q 828 -47 833 -49 q 818 -42 822 -46 q 814 -31 814 -37 q 820 -15 814 -21 q 835 -10 826 -10 q 843 -11 839 -10 l 844 -8 m 890 -10 l 890 -75 l 871 -75 l 871 -31 l 865 -31 l 871 -10 l 890 -10 m 931 -10 q 954 -20 944 -10 q 964 -43 964 -31 q 954 -67 964 -57 q 931 -76 944 -76 q 906 -67 915 -76 q 897 -43 897 -57 q 907 -20 897 -31 q 931 -10 917 -10 m 943 -43 q 940 -34 943 -37 q 931 -31 936 -31 q 920 -34 924 -31 q 917 -43 917 -37 q 920 -53 917 -49 q 931 -57 924 -57 q 940 -53 936 -57 q 943 -43 943 -49 m 992 -47 l 992 -75 l 972 -75 l 972 -31 l 967 -31 l 972 -10 l 992 -10 l 1006 -35 l 1006 -10 l 1028 -10 l 1028 -75 l 1010 -75 l 992 -47 m 311 -122 q 335 -132 326 -122 q 344 -157 344 -142 q 335 -180 344 -169 q 311 -190 326 -190 q 287 -180 296 -190 q 278 -156 278 -169 q 288 -132 278 -142 q 311 -122 297 -122 m 324 -157 q 311 -143 324 -143 q 299 -157 299 -143 q 311 -169 299 -169 q 324 -157 324 -169 m 372 -160 l 372 -189 l 353 -189 l 353 -143 l 347 -143 l 354 -124 l 372 -124 l 388 -147 l 388 -124 l 408 -124 l 408 -189 l 390 -189 l 372 -160 m 461 -124 l 461 -144 l 474 -144 l 474 -124 l 494 -124 l 494 -189 l 474 -189 l 474 -165 l 461 -165 l 461 -189 l 440 -189 l 440 -143 l 436 -143 l 442 -124 l 461 -124 m 542 -189 l 504 -189 l 504 -143 l 500 -143 l 506 -124 l 528 -124 l 528 -121 l 549 -121 l 542 -143 l 524 -143 l 524 -147 l 547 -147 l 543 -164 l 524 -164 l 524 -168 l 547 -168 l 542 -189 m 578 -174 l 578 -189 l 556 -189 l 556 -143 l 550 -143 l 557 -124 l 578 -124 q 599 -129 593 -124 q 607 -147 607 -136 q 597 -169 607 -162 l 608 -189 l 585 -189 l 578 -174 m 581 -143 l 578 -143 l 578 -154 l 579 -154 q 588 -149 588 -154 q 581 -143 588 -143 m 649 -122 q 672 -132 663 -122 q 682 -157 682 -142 q 672 -180 682 -169 q 649 -190 663 -190 q 624 -180 633 -190 q 614 -156 614 -169 q 624 -132 614 -142 q 649 -122 633 -122 m 661 -157 q 658 -147 661 -151 q 649 -143 654 -143 q 635 -157 635 -143 q 649 -169 635 -169 q 658 -166 654 -169 q 661 -157 661 -162 m 708 -189 l 689 -189 l 689 -143 l 683 -143 l 689 -124 l 713 -124 l 714 -121 l 733 -121 l 726 -143 l 708 -143 l 708 -147 l 729 -147 l 725 -167 l 708 -167 l 708 -189 m 772 -122 q 795 -132 785 -122 q 806 -157 806 -142 q 795 -180 806 -169 q 772 -190 785 -190 q 747 -180 756 -190 q 738 -156 738 -169 q 747 -132 738 -142 q 772 -122 756 -122 m 783 -157 q 772 -143 783 -143 q 758 -157 758 -143 q 772 -169 758 -169 q 783 -157 783 -169 m 832 -160 l 832 -189 l 811 -189 l 811 -143 l 806 -143 l 811 -124 l 832 -124 l 847 -147 l 847 -124 l 867 -124 l 867 -189 l 850 -189 l 832 -160 m 903 -143 l 903 -189 l 882 -189 l 882 -143 l 872 -143 l 878 -124 l 900 -124 l 900 -121 l 919 -121 l 913 -143 l 903 -143 m 950 -121 l 967 -125 l 961 -144 q 947 -142 953 -142 q 943 -142 943 -142 q 947 -146 943 -144 q 956 -149 950 -147 q 965 -156 961 -151 q 968 -168 968 -160 q 943 -190 968 -190 q 933 -188 938 -190 q 922 -185 928 -186 l 926 -164 q 943 -169 935 -169 q 947 -168 947 -169 q 943 -164 947 -165 q 933 -160 939 -162 q 924 -155 928 -158 q 919 -143 919 -151 q 926 -128 919 -135 q 942 -122 933 -122 q 946 -123 944 -122 q 950 -124 947 -124 l 950 -121 m 983 -168 q 994 -179 994 -168 q 983 -190 994 -190 q 972 -179 972 -190 q 983 -168 972 -168 m 1036 -121 l 1053 -128 l 1043 -147 q 1035 -144 1038 -146 q 1031 -142 1033 -142 q 1017 -156 1017 -142 q 1031 -169 1017 -169 q 1044 -164 1038 -169 l 1053 -181 q 1029 -190 1042 -190 q 1006 -181 1017 -190 q 996 -156 996 -171 q 1006 -132 996 -142 q 1029 -122 1017 -122 q 1035 -124 1032 -122 l 1036 -121 m 1089 -122 q 1114 -132 1106 -122 q 1122 -157 1122 -142 q 1114 -180 1122 -169 q 1089 -190 1106 -190 q 1065 -180 1074 -190 q 1056 -156 1056 -169 q 1065 -132 1056 -142 q 1089 -122 1075 -122 m 1103 -157 q 1089 -143 1103 -143 q 1076 -157 1076 -143 q 1089 -169 1076 -169 q 1103 -157 1103 -169 m 1150 -154 l 1150 -189 l 1131 -189 l 1131 -143 l 1126 -143 l 1131 -124 l 1150 -124 l 1161 -137 l 1172 -124 l 1194 -124 l 1194 -189 l 1174 -189 l 1174 -154 l 1161 -168 l 1150 -154 z "},"4":{"ha":1472,"x_min":278,"x_max":1194,"o":"m 1144 450 q 1144 441 1144 447 q 1144 427 1144 435 q 1142 413 1143 419 q 1140 403 1140 407 q 1136 383 1139 393 q 1132 364 1133 374 q 1074 240 1113 296 q 984 143 1036 183 q 867 80 932 103 q 732 57 803 57 q 567 91 644 57 q 435 183 490 125 q 349 318 381 240 q 321 483 318 396 q 322 486 322 483 q 338 587 324 539 q 381 679 353 635 q 403 714 389 694 q 434 751 417 733 q 469 785 451 769 q 504 808 488 801 l 506 813 l 508 813 l 511 814 q 515 817 513 817 q 521 819 518 818 q 531 826 526 824 q 539 832 535 829 q 564 844 550 839 q 589 854 578 849 q 659 874 624 868 q 732 881 694 881 q 886 851 811 881 q 1019 764 961 821 q 1056 724 1039 744 q 1089 678 1074 703 q 1097 663 1093 671 q 1103 647 1100 654 q 1108 638 1106 642 q 1113 628 1111 633 q 1124 601 1119 614 q 1132 574 1128 588 q 1142 513 1139 542 q 1144 450 1144 485 m 950 653 q 891 651 921 650 q 832 651 861 651 l 810 651 q 792 590 800 621 q 774 531 783 560 q 783 530 778 529 q 794 531 789 531 q 806 528 801 531 l 806 258 l 926 258 l 926 390 l 1018 390 q 1034 445 1025 418 q 1050 500 1043 472 l 926 500 q 927 509 928 504 q 926 518 926 514 q 926 523 926 519 q 928 528 926 526 l 1031 528 q 1049 594 1039 561 q 1067 660 1060 626 l 951 660 q 950 653 949 658 m 433 647 q 416 588 425 618 q 400 531 407 558 q 410 530 406 529 q 421 531 415 531 q 425 531 422 531 q 431 528 428 531 l 431 258 l 551 258 l 551 363 q 551 380 551 371 q 554 397 551 389 q 577 397 565 397 q 600 397 589 397 q 614 397 607 397 q 628 397 621 397 l 628 260 q 652 258 640 258 q 675 258 664 258 q 713 258 694 258 q 750 258 731 258 l 750 651 q 713 651 731 650 q 675 651 694 651 q 628 649 651 651 l 628 522 l 551 522 q 552 561 551 542 q 553 601 553 581 q 550 651 553 625 l 436 651 q 433 649 433 651 q 433 647 433 647 m 446 -75 l 425 -75 l 425 -31 l 421 -31 l 426 -10 l 450 -10 l 450 -8 l 469 -8 l 464 -31 l 446 -31 l 446 -36 l 467 -36 l 461 -54 l 446 -54 l 446 -75 m 478 -31 l 472 -31 l 478 -10 l 497 -10 l 497 -46 q 504 -57 497 -57 q 511 -46 511 -57 l 511 -10 l 531 -10 l 531 -47 q 504 -76 531 -76 q 478 -47 478 -76 l 478 -31 m 561 -56 l 574 -56 l 567 -75 l 540 -75 l 540 -31 l 533 -31 l 540 -10 l 561 -10 l 561 -56 m 600 -56 l 614 -56 l 607 -75 l 581 -75 l 581 -31 l 575 -31 l 581 -10 l 600 -10 l 600 -56 m 700 -10 l 678 -75 l 660 -75 l 636 -10 l 658 -10 l 668 -42 l 678 -10 l 700 -10 m 740 -75 l 703 -75 l 703 -31 l 699 -31 l 704 -10 l 728 -10 l 728 -8 l 747 -8 l 742 -31 l 724 -31 l 724 -35 l 746 -35 l 742 -51 l 724 -51 l 724 -54 l 747 -54 l 740 -75 m 775 -61 l 775 -75 l 756 -75 l 756 -31 l 750 -31 l 756 -10 l 775 -10 q 788 -11 783 -10 q 799 -15 793 -12 q 806 -35 806 -24 q 794 -56 806 -47 l 808 -75 l 783 -75 l 775 -61 m 778 -31 l 775 -31 l 775 -42 l 778 -42 q 785 -36 785 -42 q 778 -31 785 -31 m 844 -8 l 861 -11 l 856 -31 q 840 -28 846 -28 q 836 -31 836 -28 q 840 -33 836 -32 q 849 -36 844 -35 q 858 -42 854 -37 q 863 -54 863 -47 q 856 -71 863 -65 q 836 -76 849 -76 q 815 -71 826 -76 l 819 -51 q 828 -56 824 -53 q 836 -58 833 -58 q 842 -54 842 -58 q 838 -51 842 -53 q 828 -47 833 -49 q 818 -42 822 -46 q 814 -31 814 -37 q 820 -15 814 -21 q 835 -10 826 -10 q 843 -11 839 -10 l 844 -8 m 890 -10 l 890 -75 l 871 -75 l 871 -31 l 865 -31 l 871 -10 l 890 -10 m 931 -10 q 954 -20 944 -10 q 964 -43 964 -31 q 954 -67 964 -57 q 931 -76 944 -76 q 906 -67 915 -76 q 897 -43 897 -57 q 907 -20 897 -31 q 931 -10 917 -10 m 943 -43 q 940 -34 943 -37 q 931 -31 936 -31 q 920 -34 924 -31 q 917 -43 917 -37 q 920 -53 917 -49 q 931 -57 924 -57 q 940 -53 936 -57 q 943 -43 943 -49 m 992 -47 l 992 -75 l 972 -75 l 972 -31 l 967 -31 l 972 -10 l 992 -10 l 1006 -35 l 1006 -10 l 1028 -10 l 1028 -75 l 1010 -75 l 992 -47 m 311 -122 q 335 -132 326 -122 q 344 -157 344 -142 q 335 -180 344 -169 q 311 -190 326 -190 q 287 -180 296 -190 q 278 -156 278 -169 q 288 -132 278 -142 q 311 -122 297 -122 m 324 -157 q 311 -143 324 -143 q 299 -157 299 -143 q 311 -169 299 -169 q 324 -157 324 -169 m 372 -160 l 372 -189 l 353 -189 l 353 -143 l 347 -143 l 354 -124 l 372 -124 l 388 -147 l 388 -124 l 408 -124 l 408 -189 l 390 -189 l 372 -160 m 461 -124 l 461 -144 l 474 -144 l 474 -124 l 494 -124 l 494 -189 l 474 -189 l 474 -165 l 461 -165 l 461 -189 l 440 -189 l 440 -143 l 436 -143 l 442 -124 l 461 -124 m 542 -189 l 504 -189 l 504 -143 l 500 -143 l 506 -124 l 528 -124 l 528 -121 l 549 -121 l 542 -143 l 524 -143 l 524 -147 l 547 -147 l 543 -164 l 524 -164 l 524 -168 l 547 -168 l 542 -189 m 578 -174 l 578 -189 l 556 -189 l 556 -143 l 550 -143 l 557 -124 l 578 -124 q 599 -129 593 -124 q 607 -147 607 -136 q 597 -169 607 -162 l 608 -189 l 585 -189 l 578 -174 m 581 -143 l 578 -143 l 578 -154 l 579 -154 q 588 -149 588 -154 q 581 -143 588 -143 m 649 -122 q 672 -132 663 -122 q 682 -157 682 -142 q 672 -180 682 -169 q 649 -190 663 -190 q 624 -180 633 -190 q 614 -156 614 -169 q 624 -132 614 -142 q 649 -122 633 -122 m 661 -157 q 658 -147 661 -151 q 649 -143 654 -143 q 635 -157 635 -143 q 649 -169 635 -169 q 658 -166 654 -169 q 661 -157 661 -162 m 708 -189 l 689 -189 l 689 -143 l 683 -143 l 689 -124 l 713 -124 l 714 -121 l 733 -121 l 726 -143 l 708 -143 l 708 -147 l 729 -147 l 725 -167 l 708 -167 l 708 -189 m 772 -122 q 795 -132 785 -122 q 806 -157 806 -142 q 795 -180 806 -169 q 772 -190 785 -190 q 747 -180 756 -190 q 738 -156 738 -169 q 747 -132 738 -142 q 772 -122 756 -122 m 783 -157 q 772 -143 783 -143 q 758 -157 758 -143 q 772 -169 758 -169 q 783 -157 783 -169 m 832 -160 l 832 -189 l 811 -189 l 811 -143 l 806 -143 l 811 -124 l 832 -124 l 847 -147 l 847 -124 l 867 -124 l 867 -189 l 850 -189 l 832 -160 m 903 -143 l 903 -189 l 882 -189 l 882 -143 l 872 -143 l 878 -124 l 900 -124 l 900 -121 l 919 -121 l 913 -143 l 903 -143 m 950 -121 l 967 -125 l 961 -144 q 947 -142 953 -142 q 943 -142 943 -142 q 947 -146 943 -144 q 956 -149 950 -147 q 965 -156 961 -151 q 968 -168 968 -160 q 943 -190 968 -190 q 933 -188 938 -190 q 922 -185 928 -186 l 926 -164 q 943 -169 935 -169 q 947 -168 947 -169 q 943 -164 947 -165 q 933 -160 939 -162 q 924 -155 928 -158 q 919 -143 919 -151 q 926 -128 919 -135 q 942 -122 933 -122 q 946 -123 944 -122 q 950 -124 947 -124 l 950 -121 m 983 -168 q 994 -179 994 -168 q 983 -190 994 -190 q 972 -179 972 -190 q 983 -168 972 -168 m 1036 -121 l 1053 -128 l 1043 -147 q 1035 -144 1038 -146 q 1031 -142 1033 -142 q 1017 -156 1017 -142 q 1031 -169 1017 -169 q 1044 -164 1038 -169 l 1053 -181 q 1029 -190 1042 -190 q 1006 -181 1017 -190 q 996 -156 996 -171 q 1006 -132 996 -142 q 1029 -122 1017 -122 q 1035 -124 1032 -122 l 1036 -121 m 1089 -122 q 1114 -132 1106 -122 q 1122 -157 1122 -142 q 1114 -180 1122 -169 q 1089 -190 1106 -190 q 1065 -180 1074 -190 q 1056 -156 1056 -169 q 1065 -132 1056 -142 q 1089 -122 1075 -122 m 1103 -157 q 1089 -143 1103 -143 q 1076 -157 1076 -143 q 1089 -169 1076 -169 q 1103 -157 1103 -169 m 1150 -154 l 1150 -189 l 1131 -189 l 1131 -143 l 1126 -143 l 1131 -124 l 1150 -124 l 1161 -137 l 1172 -124 l 1194 -124 l 1194 -189 l 1174 -189 l 1174 -154 l 1161 -168 l 1150 -154 z "},"5":{"ha":1472,"x_min":278,"x_max":1194,"o":"m 1144 450 q 1144 441 1144 447 q 1144 427 1144 435 q 1142 413 1143 419 q 1140 403 1140 407 q 1136 383 1139 393 q 1132 364 1133 374 q 1074 240 1113 296 q 984 143 1036 183 q 867 80 932 103 q 732 57 803 57 q 567 91 644 57 q 435 183 490 125 q 349 318 381 240 q 321 483 318 396 q 322 486 322 483 q 338 587 324 539 q 381 679 353 635 q 403 714 389 694 q 434 751 417 733 q 469 785 451 769 q 504 808 488 801 l 506 813 l 508 813 l 511 814 q 515 817 513 817 q 521 819 518 818 q 531 826 526 824 q 539 832 535 829 q 564 844 550 839 q 589 854 578 849 q 659 874 624 868 q 732 881 694 881 q 886 851 811 881 q 1019 764 961 821 q 1056 724 1039 744 q 1089 678 1074 703 q 1097 663 1093 671 q 1103 647 1100 654 q 1108 638 1106 642 q 1113 628 1111 633 q 1124 601 1119 614 q 1132 574 1128 588 q 1142 513 1139 542 q 1144 450 1144 485 m 950 653 q 891 651 921 650 q 832 651 861 651 l 810 651 q 792 590 800 621 q 774 531 783 560 q 783 530 778 529 q 794 531 789 531 q 806 528 801 531 l 806 258 l 926 258 l 926 390 l 1018 390 q 1034 445 1025 418 q 1050 500 1043 472 l 926 500 q 927 509 928 504 q 926 518 926 514 q 926 523 926 519 q 928 528 926 526 l 1031 528 q 1049 594 1039 561 q 1067 660 1060 626 l 951 660 q 950 653 949 658 m 433 647 q 416 588 425 618 q 400 531 407 558 q 410 530 406 529 q 421 531 415 531 q 425 531 422 531 q 431 528 428 531 l 431 258 l 551 258 l 551 363 q 551 380 551 371 q 554 397 551 389 q 577 397 565 397 q 600 397 589 397 q 614 397 607 397 q 628 397 621 397 l 628 260 q 652 258 640 258 q 675 258 664 258 q 713 258 694 258 q 750 258 731 258 l 750 651 q 713 651 731 650 q 675 651 694 651 q 628 649 651 651 l 628 522 l 551 522 q 552 561 551 542 q 553 601 553 581 q 550 651 553 625 l 436 651 q 433 649 433 651 q 433 647 433 647 m 446 -75 l 425 -75 l 425 -31 l 421 -31 l 426 -10 l 450 -10 l 450 -8 l 469 -8 l 464 -31 l 446 -31 l 446 -36 l 467 -36 l 461 -54 l 446 -54 l 446 -75 m 478 -31 l 472 -31 l 478 -10 l 497 -10 l 497 -46 q 504 -57 497 -57 q 511 -46 511 -57 l 511 -10 l 531 -10 l 531 -47 q 504 -76 531 -76 q 478 -47 478 -76 l 478 -31 m 561 -56 l 574 -56 l 567 -75 l 540 -75 l 540 -31 l 533 -31 l 540 -10 l 561 -10 l 561 -56 m 600 -56 l 614 -56 l 607 -75 l 581 -75 l 581 -31 l 575 -31 l 581 -10 l 600 -10 l 600 -56 m 700 -10 l 678 -75 l 660 -75 l 636 -10 l 658 -10 l 668 -42 l 678 -10 l 700 -10 m 740 -75 l 703 -75 l 703 -31 l 699 -31 l 704 -10 l 728 -10 l 728 -8 l 747 -8 l 742 -31 l 724 -31 l 724 -35 l 746 -35 l 742 -51 l 724 -51 l 724 -54 l 747 -54 l 740 -75 m 775 -61 l 775 -75 l 756 -75 l 756 -31 l 750 -31 l 756 -10 l 775 -10 q 788 -11 783 -10 q 799 -15 793 -12 q 806 -35 806 -24 q 794 -56 806 -47 l 808 -75 l 783 -75 l 775 -61 m 778 -31 l 775 -31 l 775 -42 l 778 -42 q 785 -36 785 -42 q 778 -31 785 -31 m 844 -8 l 861 -11 l 856 -31 q 840 -28 846 -28 q 836 -31 836 -28 q 840 -33 836 -32 q 849 -36 844 -35 q 858 -42 854 -37 q 863 -54 863 -47 q 856 -71 863 -65 q 836 -76 849 -76 q 815 -71 826 -76 l 819 -51 q 828 -56 824 -53 q 836 -58 833 -58 q 842 -54 842 -58 q 838 -51 842 -53 q 828 -47 833 -49 q 818 -42 822 -46 q 814 -31 814 -37 q 820 -15 814 -21 q 835 -10 826 -10 q 843 -11 839 -10 l 844 -8 m 890 -10 l 890 -75 l 871 -75 l 871 -31 l 865 -31 l 871 -10 l 890 -10 m 931 -10 q 954 -20 944 -10 q 964 -43 964 -31 q 954 -67 964 -57 q 931 -76 944 -76 q 906 -67 915 -76 q 897 -43 897 -57 q 907 -20 897 -31 q 931 -10 917 -10 m 943 -43 q 940 -34 943 -37 q 931 -31 936 -31 q 920 -34 924 -31 q 917 -43 917 -37 q 920 -53 917 -49 q 931 -57 924 -57 q 940 -53 936 -57 q 943 -43 943 -49 m 992 -47 l 992 -75 l 972 -75 l 972 -31 l 967 -31 l 972 -10 l 992 -10 l 1006 -35 l 1006 -10 l 1028 -10 l 1028 -75 l 1010 -75 l 992 -47 m 311 -122 q 335 -132 326 -122 q 344 -157 344 -142 q 335 -180 344 -169 q 311 -190 326 -190 q 287 -180 296 -190 q 278 -156 278 -169 q 288 -132 278 -142 q 311 -122 297 -122 m 324 -157 q 311 -143 324 -143 q 299 -157 299 -143 q 311 -169 299 -169 q 324 -157 324 -169 m 372 -160 l 372 -189 l 353 -189 l 353 -143 l 347 -143 l 354 -124 l 372 -124 l 388 -147 l 388 -124 l 408 -124 l 408 -189 l 390 -189 l 372 -160 m 461 -124 l 461 -144 l 474 -144 l 474 -124 l 494 -124 l 494 -189 l 474 -189 l 474 -165 l 461 -165 l 461 -189 l 440 -189 l 440 -143 l 436 -143 l 442 -124 l 461 -124 m 542 -189 l 504 -189 l 504 -143 l 500 -143 l 506 -124 l 528 -124 l 528 -121 l 549 -121 l 542 -143 l 524 -143 l 524 -147 l 547 -147 l 543 -164 l 524 -164 l 524 -168 l 547 -168 l 542 -189 m 578 -174 l 578 -189 l 556 -189 l 556 -143 l 550 -143 l 557 -124 l 578 -124 q 599 -129 593 -124 q 607 -147 607 -136 q 597 -169 607 -162 l 608 -189 l 585 -189 l 578 -174 m 581 -143 l 578 -143 l 578 -154 l 579 -154 q 588 -149 588 -154 q 581 -143 588 -143 m 649 -122 q 672 -132 663 -122 q 682 -157 682 -142 q 672 -180 682 -169 q 649 -190 663 -190 q 624 -180 633 -190 q 614 -156 614 -169 q 624 -132 614 -142 q 649 -122 633 -122 m 661 -157 q 658 -147 661 -151 q 649 -143 654 -143 q 635 -157 635 -143 q 649 -169 635 -169 q 658 -166 654 -169 q 661 -157 661 -162 m 708 -189 l 689 -189 l 689 -143 l 683 -143 l 689 -124 l 713 -124 l 714 -121 l 733 -121 l 726 -143 l 708 -143 l 708 -147 l 729 -147 l 725 -167 l 708 -167 l 708 -189 m 772 -122 q 795 -132 785 -122 q 806 -157 806 -142 q 795 -180 806 -169 q 772 -190 785 -190 q 747 -180 756 -190 q 738 -156 738 -169 q 747 -132 738 -142 q 772 -122 756 -122 m 783 -157 q 772 -143 783 -143 q 758 -157 758 -143 q 772 -169 758 -169 q 783 -157 783 -169 m 832 -160 l 832 -189 l 811 -189 l 811 -143 l 806 -143 l 811 -124 l 832 -124 l 847 -147 l 847 -124 l 867 -124 l 867 -189 l 850 -189 l 832 -160 m 903 -143 l 903 -189 l 882 -189 l 882 -143 l 872 -143 l 878 -124 l 900 -124 l 900 -121 l 919 -121 l 913 -143 l 903 -143 m 950 -121 l 967 -125 l 961 -144 q 947 -142 953 -142 q 943 -142 943 -142 q 947 -146 943 -144 q 956 -149 950 -147 q 965 -156 961 -151 q 968 -168 968 -160 q 943 -190 968 -190 q 933 -188 938 -190 q 922 -185 928 -186 l 926 -164 q 943 -169 935 -169 q 947 -168 947 -169 q 943 -164 947 -165 q 933 -160 939 -162 q 924 -155 928 -158 q 919 -143 919 -151 q 926 -128 919 -135 q 942 -122 933 -122 q 946 -123 944 -122 q 950 -124 947 -124 l 950 -121 m 983 -168 q 994 -179 994 -168 q 983 -190 994 -190 q 972 -179 972 -190 q 983 -168 972 -168 m 1036 -121 l 1053 -128 l 1043 -147 q 1035 -144 1038 -146 q 1031 -142 1033 -142 q 1017 -156 1017 -142 q 1031 -169 1017 -169 q 1044 -164 1038 -169 l 1053 -181 q 1029 -190 1042 -190 q 1006 -181 1017 -190 q 996 -156 996 -171 q 1006 -132 996 -142 q 1029 -122 1017 -122 q 1035 -124 1032 -122 l 1036 -121 m 1089 -122 q 1114 -132 1106 -122 q 1122 -157 1122 -142 q 1114 -180 1122 -169 q 1089 -190 1106 -190 q 1065 -180 1074 -190 q 1056 -156 1056 -169 q 1065 -132 1056 -142 q 1089 -122 1075 -122 m 1103 -157 q 1089 -143 1103 -143 q 1076 -157 1076 -143 q 1089 -169 1076 -169 q 1103 -157 1103 -169 m 1150 -154 l 1150 -189 l 1131 -189 l 1131 -143 l 1126 -143 l 1131 -124 l 1150 -124 l 1161 -137 l 1172 -124 l 1194 -124 l 1194 -189 l 1174 -189 l 1174 -154 l 1161 -168 l 1150 -154 z "},"6":{"ha":1472,"x_min":278,"x_max":1194,"o":"m 1144 450 q 1144 441 1144 447 q 1144 427 1144 435 q 1142 413 1143 419 q 1140 403 1140 407 q 1136 383 1139 393 q 1132 364 1133 374 q 1074 240 1113 296 q 984 143 1036 183 q 867 80 932 103 q 732 57 803 57 q 567 91 644 57 q 435 183 490 125 q 349 318 381 240 q 321 483 318 396 q 322 486 322 483 q 338 587 324 539 q 381 679 353 635 q 403 714 389 694 q 434 751 417 733 q 469 785 451 769 q 504 808 488 801 l 506 813 l 508 813 l 511 814 q 515 817 513 817 q 521 819 518 818 q 531 826 526 824 q 539 832 535 829 q 564 844 550 839 q 589 854 578 849 q 659 874 624 868 q 732 881 694 881 q 886 851 811 881 q 1019 764 961 821 q 1056 724 1039 744 q 1089 678 1074 703 q 1097 663 1093 671 q 1103 647 1100 654 q 1108 638 1106 642 q 1113 628 1111 633 q 1124 601 1119 614 q 1132 574 1128 588 q 1142 513 1139 542 q 1144 450 1144 485 m 950 653 q 891 651 921 650 q 832 651 861 651 l 810 651 q 792 590 800 621 q 774 531 783 560 q 783 530 778 529 q 794 531 789 531 q 806 528 801 531 l 806 258 l 926 258 l 926 390 l 1018 390 q 1034 445 1025 418 q 1050 500 1043 472 l 926 500 q 927 509 928 504 q 926 518 926 514 q 926 523 926 519 q 928 528 926 526 l 1031 528 q 1049 594 1039 561 q 1067 660 1060 626 l 951 660 q 950 653 949 658 m 433 647 q 416 588 425 618 q 400 531 407 558 q 410 530 406 529 q 421 531 415 531 q 425 531 422 531 q 431 528 428 531 l 431 258 l 551 258 l 551 363 q 551 380 551 371 q 554 397 551 389 q 577 397 565 397 q 600 397 589 397 q 614 397 607 397 q 628 397 621 397 l 628 260 q 652 258 640 258 q 675 258 664 258 q 713 258 694 258 q 750 258 731 258 l 750 651 q 713 651 731 650 q 675 651 694 651 q 628 649 651 651 l 628 522 l 551 522 q 552 561 551 542 q 553 601 553 581 q 550 651 553 625 l 436 651 q 433 649 433 651 q 433 647 433 647 m 446 -75 l 425 -75 l 425 -31 l 421 -31 l 426 -10 l 450 -10 l 450 -8 l 469 -8 l 464 -31 l 446 -31 l 446 -36 l 467 -36 l 461 -54 l 446 -54 l 446 -75 m 478 -31 l 472 -31 l 478 -10 l 497 -10 l 497 -46 q 504 -57 497 -57 q 511 -46 511 -57 l 511 -10 l 531 -10 l 531 -47 q 504 -76 531 -76 q 478 -47 478 -76 l 478 -31 m 561 -56 l 574 -56 l 567 -75 l 540 -75 l 540 -31 l 533 -31 l 540 -10 l 561 -10 l 561 -56 m 600 -56 l 614 -56 l 607 -75 l 581 -75 l 581 -31 l 575 -31 l 581 -10 l 600 -10 l 600 -56 m 700 -10 l 678 -75 l 660 -75 l 636 -10 l 658 -10 l 668 -42 l 678 -10 l 700 -10 m 740 -75 l 703 -75 l 703 -31 l 699 -31 l 704 -10 l 728 -10 l 728 -8 l 747 -8 l 742 -31 l 724 -31 l 724 -35 l 746 -35 l 742 -51 l 724 -51 l 724 -54 l 747 -54 l 740 -75 m 775 -61 l 775 -75 l 756 -75 l 756 -31 l 750 -31 l 756 -10 l 775 -10 q 788 -11 783 -10 q 799 -15 793 -12 q 806 -35 806 -24 q 794 -56 806 -47 l 808 -75 l 783 -75 l 775 -61 m 778 -31 l 775 -31 l 775 -42 l 778 -42 q 785 -36 785 -42 q 778 -31 785 -31 m 844 -8 l 861 -11 l 856 -31 q 840 -28 846 -28 q 836 -31 836 -28 q 840 -33 836 -32 q 849 -36 844 -35 q 858 -42 854 -37 q 863 -54 863 -47 q 856 -71 863 -65 q 836 -76 849 -76 q 815 -71 826 -76 l 819 -51 q 828 -56 824 -53 q 836 -58 833 -58 q 842 -54 842 -58 q 838 -51 842 -53 q 828 -47 833 -49 q 818 -42 822 -46 q 814 -31 814 -37 q 820 -15 814 -21 q 835 -10 826 -10 q 843 -11 839 -10 l 844 -8 m 890 -10 l 890 -75 l 871 -75 l 871 -31 l 865 -31 l 871 -10 l 890 -10 m 931 -10 q 954 -20 944 -10 q 964 -43 964 -31 q 954 -67 964 -57 q 931 -76 944 -76 q 906 -67 915 -76 q 897 -43 897 -57 q 907 -20 897 -31 q 931 -10 917 -10 m 943 -43 q 940 -34 943 -37 q 931 -31 936 -31 q 920 -34 924 -31 q 917 -43 917 -37 q 920 -53 917 -49 q 931 -57 924 -57 q 940 -53 936 -57 q 943 -43 943 -49 m 992 -47 l 992 -75 l 972 -75 l 972 -31 l 967 -31 l 972 -10 l 992 -10 l 1006 -35 l 1006 -10 l 1028 -10 l 1028 -75 l 1010 -75 l 992 -47 m 311 -122 q 335 -132 326 -122 q 344 -157 344 -142 q 335 -180 344 -169 q 311 -190 326 -190 q 287 -180 296 -190 q 278 -156 278 -169 q 288 -132 278 -142 q 311 -122 297 -122 m 324 -157 q 311 -143 324 -143 q 299 -157 299 -143 q 311 -169 299 -169 q 324 -157 324 -169 m 372 -160 l 372 -189 l 353 -189 l 353 -143 l 347 -143 l 354 -124 l 372 -124 l 388 -147 l 388 -124 l 408 -124 l 408 -189 l 390 -189 l 372 -160 m 461 -124 l 461 -144 l 474 -144 l 474 -124 l 494 -124 l 494 -189 l 474 -189 l 474 -165 l 461 -165 l 461 -189 l 440 -189 l 440 -143 l 436 -143 l 442 -124 l 461 -124 m 542 -189 l 504 -189 l 504 -143 l 500 -143 l 506 -124 l 528 -124 l 528 -121 l 549 -121 l 542 -143 l 524 -143 l 524 -147 l 547 -147 l 543 -164 l 524 -164 l 524 -168 l 547 -168 l 542 -189 m 578 -174 l 578 -189 l 556 -189 l 556 -143 l 550 -143 l 557 -124 l 578 -124 q 599 -129 593 -124 q 607 -147 607 -136 q 597 -169 607 -162 l 608 -189 l 585 -189 l 578 -174 m 581 -143 l 578 -143 l 578 -154 l 579 -154 q 588 -149 588 -154 q 581 -143 588 -143 m 649 -122 q 672 -132 663 -122 q 682 -157 682 -142 q 672 -180 682 -169 q 649 -190 663 -190 q 624 -180 633 -190 q 614 -156 614 -169 q 624 -132 614 -142 q 649 -122 633 -122 m 661 -157 q 658 -147 661 -151 q 649 -143 654 -143 q 635 -157 635 -143 q 649 -169 635 -169 q 658 -166 654 -169 q 661 -157 661 -162 m 708 -189 l 689 -189 l 689 -143 l 683 -143 l 689 -124 l 713 -124 l 714 -121 l 733 -121 l 726 -143 l 708 -143 l 708 -147 l 729 -147 l 725 -167 l 708 -167 l 708 -189 m 772 -122 q 795 -132 785 -122 q 806 -157 806 -142 q 795 -180 806 -169 q 772 -190 785 -190 q 747 -180 756 -190 q 738 -156 738 -169 q 747 -132 738 -142 q 772 -122 756 -122 m 783 -157 q 772 -143 783 -143 q 758 -157 758 -143 q 772 -169 758 -169 q 783 -157 783 -169 m 832 -160 l 832 -189 l 811 -189 l 811 -143 l 806 -143 l 811 -124 l 832 -124 l 847 -147 l 847 -124 l 867 -124 l 867 -189 l 850 -189 l 832 -160 m 903 -143 l 903 -189 l 882 -189 l 882 -143 l 872 -143 l 878 -124 l 900 -124 l 900 -121 l 919 -121 l 913 -143 l 903 -143 m 950 -121 l 967 -125 l 961 -144 q 947 -142 953 -142 q 943 -142 943 -142 q 947 -146 943 -144 q 956 -149 950 -147 q 965 -156 961 -151 q 968 -168 968 -160 q 943 -190 968 -190 q 933 -188 938 -190 q 922 -185 928 -186 l 926 -164 q 943 -169 935 -169 q 947 -168 947 -169 q 943 -164 947 -165 q 933 -160 939 -162 q 924 -155 928 -158 q 919 -143 919 -151 q 926 -128 919 -135 q 942 -122 933 -122 q 946 -123 944 -122 q 950 -124 947 -124 l 950 -121 m 983 -168 q 994 -179 994 -168 q 983 -190 994 -190 q 972 -179 972 -190 q 983 -168 972 -168 m 1036 -121 l 1053 -128 l 1043 -147 q 1035 -144 1038 -146 q 1031 -142 1033 -142 q 1017 -156 1017 -142 q 1031 -169 1017 -169 q 1044 -164 1038 -169 l 1053 -181 q 1029 -190 1042 -190 q 1006 -181 1017 -190 q 996 -156 996 -171 q 1006 -132 996 -142 q 1029 -122 1017 -122 q 1035 -124 1032 -122 l 1036 -121 m 1089 -122 q 1114 -132 1106 -122 q 1122 -157 1122 -142 q 1114 -180 1122 -169 q 1089 -190 1106 -190 q 1065 -180 1074 -190 q 1056 -156 1056 -169 q 1065 -132 1056 -142 q 1089 -122 1075 -122 m 1103 -157 q 1089 -143 1103 -143 q 1076 -157 1076 -143 q 1089 -169 1076 -169 q 1103 -157 1103 -169 m 1150 -154 l 1150 -189 l 1131 -189 l 1131 -143 l 1126 -143 l 1131 -124 l 1150 -124 l 1161 -137 l 1172 -124 l 1194 -124 l 1194 -189 l 1174 -189 l 1174 -154 l 1161 -168 l 1150 -154 z "},"7":{"ha":1472,"x_min":278,"x_max":1194,"o":"m 1144 450 q 1144 441 1144 447 q 1144 427 1144 435 q 1142 413 1143 419 q 1140 403 1140 407 q 1136 383 1139 393 q 1132 364 1133 374 q 1074 240 1113 296 q 984 143 1036 183 q 867 80 932 103 q 732 57 803 57 q 567 91 644 57 q 435 183 490 125 q 349 318 381 240 q 321 483 318 396 q 322 486 322 483 q 338 587 324 539 q 381 679 353 635 q 403 714 389 694 q 434 751 417 733 q 469 785 451 769 q 504 808 488 801 l 506 813 l 508 813 l 511 814 q 515 817 513 817 q 521 819 518 818 q 531 826 526 824 q 539 832 535 829 q 564 844 550 839 q 589 854 578 849 q 659 874 624 868 q 732 881 694 881 q 886 851 811 881 q 1019 764 961 821 q 1056 724 1039 744 q 1089 678 1074 703 q 1097 663 1093 671 q 1103 647 1100 654 q 1108 638 1106 642 q 1113 628 1111 633 q 1124 601 1119 614 q 1132 574 1128 588 q 1142 513 1139 542 q 1144 450 1144 485 m 950 653 q 891 651 921 650 q 832 651 861 651 l 810 651 q 792 590 800 621 q 774 531 783 560 q 783 530 778 529 q 794 531 789 531 q 806 528 801 531 l 806 258 l 926 258 l 926 390 l 1018 390 q 1034 445 1025 418 q 1050 500 1043 472 l 926 500 q 927 509 928 504 q 926 518 926 514 q 926 523 926 519 q 928 528 926 526 l 1031 528 q 1049 594 1039 561 q 1067 660 1060 626 l 951 660 q 950 653 949 658 m 433 647 q 416 588 425 618 q 400 531 407 558 q 410 530 406 529 q 421 531 415 531 q 425 531 422 531 q 431 528 428 531 l 431 258 l 551 258 l 551 363 q 551 380 551 371 q 554 397 551 389 q 577 397 565 397 q 600 397 589 397 q 614 397 607 397 q 628 397 621 397 l 628 260 q 652 258 640 258 q 675 258 664 258 q 713 258 694 258 q 750 258 731 258 l 750 651 q 713 651 731 650 q 675 651 694 651 q 628 649 651 651 l 628 522 l 551 522 q 552 561 551 542 q 553 601 553 581 q 550 651 553 625 l 436 651 q 433 649 433 651 q 433 647 433 647 m 446 -75 l 425 -75 l 425 -31 l 421 -31 l 426 -10 l 450 -10 l 450 -8 l 469 -8 l 464 -31 l 446 -31 l 446 -36 l 467 -36 l 461 -54 l 446 -54 l 446 -75 m 478 -31 l 472 -31 l 478 -10 l 497 -10 l 497 -46 q 504 -57 497 -57 q 511 -46 511 -57 l 511 -10 l 531 -10 l 531 -47 q 504 -76 531 -76 q 478 -47 478 -76 l 478 -31 m 561 -56 l 574 -56 l 567 -75 l 540 -75 l 540 -31 l 533 -31 l 540 -10 l 561 -10 l 561 -56 m 600 -56 l 614 -56 l 607 -75 l 581 -75 l 581 -31 l 575 -31 l 581 -10 l 600 -10 l 600 -56 m 700 -10 l 678 -75 l 660 -75 l 636 -10 l 658 -10 l 668 -42 l 678 -10 l 700 -10 m 740 -75 l 703 -75 l 703 -31 l 699 -31 l 704 -10 l 728 -10 l 728 -8 l 747 -8 l 742 -31 l 724 -31 l 724 -35 l 746 -35 l 742 -51 l 724 -51 l 724 -54 l 747 -54 l 740 -75 m 775 -61 l 775 -75 l 756 -75 l 756 -31 l 750 -31 l 756 -10 l 775 -10 q 788 -11 783 -10 q 799 -15 793 -12 q 806 -35 806 -24 q 794 -56 806 -47 l 808 -75 l 783 -75 l 775 -61 m 778 -31 l 775 -31 l 775 -42 l 778 -42 q 785 -36 785 -42 q 778 -31 785 -31 m 844 -8 l 861 -11 l 856 -31 q 840 -28 846 -28 q 836 -31 836 -28 q 840 -33 836 -32 q 849 -36 844 -35 q 858 -42 854 -37 q 863 -54 863 -47 q 856 -71 863 -65 q 836 -76 849 -76 q 815 -71 826 -76 l 819 -51 q 828 -56 824 -53 q 836 -58 833 -58 q 842 -54 842 -58 q 838 -51 842 -53 q 828 -47 833 -49 q 818 -42 822 -46 q 814 -31 814 -37 q 820 -15 814 -21 q 835 -10 826 -10 q 843 -11 839 -10 l 844 -8 m 890 -10 l 890 -75 l 871 -75 l 871 -31 l 865 -31 l 871 -10 l 890 -10 m 931 -10 q 954 -20 944 -10 q 964 -43 964 -31 q 954 -67 964 -57 q 931 -76 944 -76 q 906 -67 915 -76 q 897 -43 897 -57 q 907 -20 897 -31 q 931 -10 917 -10 m 943 -43 q 940 -34 943 -37 q 931 -31 936 -31 q 920 -34 924 -31 q 917 -43 917 -37 q 920 -53 917 -49 q 931 -57 924 -57 q 940 -53 936 -57 q 943 -43 943 -49 m 992 -47 l 992 -75 l 972 -75 l 972 -31 l 967 -31 l 972 -10 l 992 -10 l 1006 -35 l 1006 -10 l 1028 -10 l 1028 -75 l 1010 -75 l 992 -47 m 311 -122 q 335 -132 326 -122 q 344 -157 344 -142 q 335 -180 344 -169 q 311 -190 326 -190 q 287 -180 296 -190 q 278 -156 278 -169 q 288 -132 278 -142 q 311 -122 297 -122 m 324 -157 q 311 -143 324 -143 q 299 -157 299 -143 q 311 -169 299 -169 q 324 -157 324 -169 m 372 -160 l 372 -189 l 353 -189 l 353 -143 l 347 -143 l 354 -124 l 372 -124 l 388 -147 l 388 -124 l 408 -124 l 408 -189 l 390 -189 l 372 -160 m 461 -124 l 461 -144 l 474 -144 l 474 -124 l 494 -124 l 494 -189 l 474 -189 l 474 -165 l 461 -165 l 461 -189 l 440 -189 l 440 -143 l 436 -143 l 442 -124 l 461 -124 m 542 -189 l 504 -189 l 504 -143 l 500 -143 l 506 -124 l 528 -124 l 528 -121 l 549 -121 l 542 -143 l 524 -143 l 524 -147 l 547 -147 l 543 -164 l 524 -164 l 524 -168 l 547 -168 l 542 -189 m 578 -174 l 578 -189 l 556 -189 l 556 -143 l 550 -143 l 557 -124 l 578 -124 q 599 -129 593 -124 q 607 -147 607 -136 q 597 -169 607 -162 l 608 -189 l 585 -189 l 578 -174 m 581 -143 l 578 -143 l 578 -154 l 579 -154 q 588 -149 588 -154 q 581 -143 588 -143 m 649 -122 q 672 -132 663 -122 q 682 -157 682 -142 q 672 -180 682 -169 q 649 -190 663 -190 q 624 -180 633 -190 q 614 -156 614 -169 q 624 -132 614 -142 q 649 -122 633 -122 m 661 -157 q 658 -147 661 -151 q 649 -143 654 -143 q 635 -157 635 -143 q 649 -169 635 -169 q 658 -166 654 -169 q 661 -157 661 -162 m 708 -189 l 689 -189 l 689 -143 l 683 -143 l 689 -124 l 713 -124 l 714 -121 l 733 -121 l 726 -143 l 708 -143 l 708 -147 l 729 -147 l 725 -167 l 708 -167 l 708 -189 m 772 -122 q 795 -132 785 -122 q 806 -157 806 -142 q 795 -180 806 -169 q 772 -190 785 -190 q 747 -180 756 -190 q 738 -156 738 -169 q 747 -132 738 -142 q 772 -122 756 -122 m 783 -157 q 772 -143 783 -143 q 758 -157 758 -143 q 772 -169 758 -169 q 783 -157 783 -169 m 832 -160 l 832 -189 l 811 -189 l 811 -143 l 806 -143 l 811 -124 l 832 -124 l 847 -147 l 847 -124 l 867 -124 l 867 -189 l 850 -189 l 832 -160 m 903 -143 l 903 -189 l 882 -189 l 882 -143 l 872 -143 l 878 -124 l 900 -124 l 900 -121 l 919 -121 l 913 -143 l 903 -143 m 950 -121 l 967 -125 l 961 -144 q 947 -142 953 -142 q 943 -142 943 -142 q 947 -146 943 -144 q 956 -149 950 -147 q 965 -156 961 -151 q 968 -168 968 -160 q 943 -190 968 -190 q 933 -188 938 -190 q 922 -185 928 -186 l 926 -164 q 943 -169 935 -169 q 947 -168 947 -169 q 943 -164 947 -165 q 933 -160 939 -162 q 924 -155 928 -158 q 919 -143 919 -151 q 926 -128 919 -135 q 942 -122 933 -122 q 946 -123 944 -122 q 950 -124 947 -124 l 950 -121 m 983 -168 q 994 -179 994 -168 q 983 -190 994 -190 q 972 -179 972 -190 q 983 -168 972 -168 m 1036 -121 l 1053 -128 l 1043 -147 q 1035 -144 1038 -146 q 1031 -142 1033 -142 q 1017 -156 1017 -142 q 1031 -169 1017 -169 q 1044 -164 1038 -169 l 1053 -181 q 1029 -190 1042 -190 q 1006 -181 1017 -190 q 996 -156 996 -171 q 1006 -132 996 -142 q 1029 -122 1017 -122 q 1035 -124 1032 -122 l 1036 -121 m 1089 -122 q 1114 -132 1106 -122 q 1122 -157 1122 -142 q 1114 -180 1122 -169 q 1089 -190 1106 -190 q 1065 -180 1074 -190 q 1056 -156 1056 -169 q 1065 -132 1056 -142 q 1089 -122 1075 -122 m 1103 -157 q 1089 -143 1103 -143 q 1076 -157 1076 -143 q 1089 -169 1076 -169 q 1103 -157 1103 -169 m 1150 -154 l 1150 -189 l 1131 -189 l 1131 -143 l 1126 -143 l 1131 -124 l 1150 -124 l 1161 -137 l 1172 -124 l 1194 -124 l 1194 -189 l 1174 -189 l 1174 -154 l 1161 -168 l 1150 -154 z "},"8":{"ha":1472,"x_min":278,"x_max":1194,"o":"m 1144 450 q 1144 441 1144 447 q 1144 427 1144 435 q 1142 413 1143 419 q 1140 403 1140 407 q 1136 383 1139 393 q 1132 364 1133 374 q 1074 240 1113 296 q 984 143 1036 183 q 867 80 932 103 q 732 57 803 57 q 567 91 644 57 q 435 183 490 125 q 349 318 381 240 q 321 483 318 396 q 322 486 322 483 q 338 587 324 539 q 381 679 353 635 q 403 714 389 694 q 434 751 417 733 q 469 785 451 769 q 504 808 488 801 l 506 813 l 508 813 l 511 814 q 515 817 513 817 q 521 819 518 818 q 531 826 526 824 q 539 832 535 829 q 564 844 550 839 q 589 854 578 849 q 659 874 624 868 q 732 881 694 881 q 886 851 811 881 q 1019 764 961 821 q 1056 724 1039 744 q 1089 678 1074 703 q 1097 663 1093 671 q 1103 647 1100 654 q 1108 638 1106 642 q 1113 628 1111 633 q 1124 601 1119 614 q 1132 574 1128 588 q 1142 513 1139 542 q 1144 450 1144 485 m 950 653 q 891 651 921 650 q 832 651 861 651 l 810 651 q 792 590 800 621 q 774 531 783 560 q 783 530 778 529 q 794 531 789 531 q 806 528 801 531 l 806 258 l 926 258 l 926 390 l 1018 390 q 1034 445 1025 418 q 1050 500 1043 472 l 926 500 q 927 509 928 504 q 926 518 926 514 q 926 523 926 519 q 928 528 926 526 l 1031 528 q 1049 594 1039 561 q 1067 660 1060 626 l 951 660 q 950 653 949 658 m 433 647 q 416 588 425 618 q 400 531 407 558 q 410 530 406 529 q 421 531 415 531 q 425 531 422 531 q 431 528 428 531 l 431 258 l 551 258 l 551 363 q 551 380 551 371 q 554 397 551 389 q 577 397 565 397 q 600 397 589 397 q 614 397 607 397 q 628 397 621 397 l 628 260 q 652 258 640 258 q 675 258 664 258 q 713 258 694 258 q 750 258 731 258 l 750 651 q 713 651 731 650 q 675 651 694 651 q 628 649 651 651 l 628 522 l 551 522 q 552 561 551 542 q 553 601 553 581 q 550 651 553 625 l 436 651 q 433 649 433 651 q 433 647 433 647 m 446 -75 l 425 -75 l 425 -31 l 421 -31 l 426 -10 l 450 -10 l 450 -8 l 469 -8 l 464 -31 l 446 -31 l 446 -36 l 467 -36 l 461 -54 l 446 -54 l 446 -75 m 478 -31 l 472 -31 l 478 -10 l 497 -10 l 497 -46 q 504 -57 497 -57 q 511 -46 511 -57 l 511 -10 l 531 -10 l 531 -47 q 504 -76 531 -76 q 478 -47 478 -76 l 478 -31 m 561 -56 l 574 -56 l 567 -75 l 540 -75 l 540 -31 l 533 -31 l 540 -10 l 561 -10 l 561 -56 m 600 -56 l 614 -56 l 607 -75 l 581 -75 l 581 -31 l 575 -31 l 581 -10 l 600 -10 l 600 -56 m 700 -10 l 678 -75 l 660 -75 l 636 -10 l 658 -10 l 668 -42 l 678 -10 l 700 -10 m 740 -75 l 703 -75 l 703 -31 l 699 -31 l 704 -10 l 728 -10 l 728 -8 l 747 -8 l 742 -31 l 724 -31 l 724 -35 l 746 -35 l 742 -51 l 724 -51 l 724 -54 l 747 -54 l 740 -75 m 775 -61 l 775 -75 l 756 -75 l 756 -31 l 750 -31 l 756 -10 l 775 -10 q 788 -11 783 -10 q 799 -15 793 -12 q 806 -35 806 -24 q 794 -56 806 -47 l 808 -75 l 783 -75 l 775 -61 m 778 -31 l 775 -31 l 775 -42 l 778 -42 q 785 -36 785 -42 q 778 -31 785 -31 m 844 -8 l 861 -11 l 856 -31 q 840 -28 846 -28 q 836 -31 836 -28 q 840 -33 836 -32 q 849 -36 844 -35 q 858 -42 854 -37 q 863 -54 863 -47 q 856 -71 863 -65 q 836 -76 849 -76 q 815 -71 826 -76 l 819 -51 q 828 -56 824 -53 q 836 -58 833 -58 q 842 -54 842 -58 q 838 -51 842 -53 q 828 -47 833 -49 q 818 -42 822 -46 q 814 -31 814 -37 q 820 -15 814 -21 q 835 -10 826 -10 q 843 -11 839 -10 l 844 -8 m 890 -10 l 890 -75 l 871 -75 l 871 -31 l 865 -31 l 871 -10 l 890 -10 m 931 -10 q 954 -20 944 -10 q 964 -43 964 -31 q 954 -67 964 -57 q 931 -76 944 -76 q 906 -67 915 -76 q 897 -43 897 -57 q 907 -20 897 -31 q 931 -10 917 -10 m 943 -43 q 940 -34 943 -37 q 931 -31 936 -31 q 920 -34 924 -31 q 917 -43 917 -37 q 920 -53 917 -49 q 931 -57 924 -57 q 940 -53 936 -57 q 943 -43 943 -49 m 992 -47 l 992 -75 l 972 -75 l 972 -31 l 967 -31 l 972 -10 l 992 -10 l 1006 -35 l 1006 -10 l 1028 -10 l 1028 -75 l 1010 -75 l 992 -47 m 311 -122 q 335 -132 326 -122 q 344 -157 344 -142 q 335 -180 344 -169 q 311 -190 326 -190 q 287 -180 296 -190 q 278 -156 278 -169 q 288 -132 278 -142 q 311 -122 297 -122 m 324 -157 q 311 -143 324 -143 q 299 -157 299 -143 q 311 -169 299 -169 q 324 -157 324 -169 m 372 -160 l 372 -189 l 353 -189 l 353 -143 l 347 -143 l 354 -124 l 372 -124 l 388 -147 l 388 -124 l 408 -124 l 408 -189 l 390 -189 l 372 -160 m 461 -124 l 461 -144 l 474 -144 l 474 -124 l 494 -124 l 494 -189 l 474 -189 l 474 -165 l 461 -165 l 461 -189 l 440 -189 l 440 -143 l 436 -143 l 442 -124 l 461 -124 m 542 -189 l 504 -189 l 504 -143 l 500 -143 l 506 -124 l 528 -124 l 528 -121 l 549 -121 l 542 -143 l 524 -143 l 524 -147 l 547 -147 l 543 -164 l 524 -164 l 524 -168 l 547 -168 l 542 -189 m 578 -174 l 578 -189 l 556 -189 l 556 -143 l 550 -143 l 557 -124 l 578 -124 q 599 -129 593 -124 q 607 -147 607 -136 q 597 -169 607 -162 l 608 -189 l 585 -189 l 578 -174 m 581 -143 l 578 -143 l 578 -154 l 579 -154 q 588 -149 588 -154 q 581 -143 588 -143 m 649 -122 q 672 -132 663 -122 q 682 -157 682 -142 q 672 -180 682 -169 q 649 -190 663 -190 q 624 -180 633 -190 q 614 -156 614 -169 q 624 -132 614 -142 q 649 -122 633 -122 m 661 -157 q 658 -147 661 -151 q 649 -143 654 -143 q 635 -157 635 -143 q 649 -169 635 -169 q 658 -166 654 -169 q 661 -157 661 -162 m 708 -189 l 689 -189 l 689 -143 l 683 -143 l 689 -124 l 713 -124 l 714 -121 l 733 -121 l 726 -143 l 708 -143 l 708 -147 l 729 -147 l 725 -167 l 708 -167 l 708 -189 m 772 -122 q 795 -132 785 -122 q 806 -157 806 -142 q 795 -180 806 -169 q 772 -190 785 -190 q 747 -180 756 -190 q 738 -156 738 -169 q 747 -132 738 -142 q 772 -122 756 -122 m 783 -157 q 772 -143 783 -143 q 758 -157 758 -143 q 772 -169 758 -169 q 783 -157 783 -169 m 832 -160 l 832 -189 l 811 -189 l 811 -143 l 806 -143 l 811 -124 l 832 -124 l 847 -147 l 847 -124 l 867 -124 l 867 -189 l 850 -189 l 832 -160 m 903 -143 l 903 -189 l 882 -189 l 882 -143 l 872 -143 l 878 -124 l 900 -124 l 900 -121 l 919 -121 l 913 -143 l 903 -143 m 950 -121 l 967 -125 l 961 -144 q 947 -142 953 -142 q 943 -142 943 -142 q 947 -146 943 -144 q 956 -149 950 -147 q 965 -156 961 -151 q 968 -168 968 -160 q 943 -190 968 -190 q 933 -188 938 -190 q 922 -185 928 -186 l 926 -164 q 943 -169 935 -169 q 947 -168 947 -169 q 943 -164 947 -165 q 933 -160 939 -162 q 924 -155 928 -158 q 919 -143 919 -151 q 926 -128 919 -135 q 942 -122 933 -122 q 946 -123 944 -122 q 950 -124 947 -124 l 950 -121 m 983 -168 q 994 -179 994 -168 q 983 -190 994 -190 q 972 -179 972 -190 q 983 -168 972 -168 m 1036 -121 l 1053 -128 l 1043 -147 q 1035 -144 1038 -146 q 1031 -142 1033 -142 q 1017 -156 1017 -142 q 1031 -169 1017 -169 q 1044 -164 1038 -169 l 1053 -181 q 1029 -190 1042 -190 q 1006 -181 1017 -190 q 996 -156 996 -171 q 1006 -132 996 -142 q 1029 -122 1017 -122 q 1035 -124 1032 -122 l 1036 -121 m 1089 -122 q 1114 -132 1106 -122 q 1122 -157 1122 -142 q 1114 -180 1122 -169 q 1089 -190 1106 -190 q 1065 -180 1074 -190 q 1056 -156 1056 -169 q 1065 -132 1056 -142 q 1089 -122 1075 -122 m 1103 -157 q 1089 -143 1103 -143 q 1076 -157 1076 -143 q 1089 -169 1076 -169 q 1103 -157 1103 -169 m 1150 -154 l 1150 -189 l 1131 -189 l 1131 -143 l 1126 -143 l 1131 -124 l 1150 -124 l 1161 -137 l 1172 -124 l 1194 -124 l 1194 -189 l 1174 -189 l 1174 -154 l 1161 -168 l 1150 -154 z "},"9":{"ha":1472,"x_min":278,"x_max":1194,"o":"m 1144 450 q 1144 441 1144 447 q 1144 427 1144 435 q 1142 413 1143 419 q 1140 403 1140 407 q 1136 383 1139 393 q 1132 364 1133 374 q 1074 240 1113 296 q 984 143 1036 183 q 867 80 932 103 q 732 57 803 57 q 567 91 644 57 q 435 183 490 125 q 349 318 381 240 q 321 483 318 396 q 322 486 322 483 q 338 587 324 539 q 381 679 353 635 q 403 714 389 694 q 434 751 417 733 q 469 785 451 769 q 504 808 488 801 l 506 813 l 508 813 l 511 814 q 515 817 513 817 q 521 819 518 818 q 531 826 526 824 q 539 832 535 829 q 564 844 550 839 q 589 854 578 849 q 659 874 624 868 q 732 881 694 881 q 886 851 811 881 q 1019 764 961 821 q 1056 724 1039 744 q 1089 678 1074 703 q 1097 663 1093 671 q 1103 647 1100 654 q 1108 638 1106 642 q 1113 628 1111 633 q 1124 601 1119 614 q 1132 574 1128 588 q 1142 513 1139 542 q 1144 450 1144 485 m 950 653 q 891 651 921 650 q 832 651 861 651 l 810 651 q 792 590 800 621 q 774 531 783 560 q 783 530 778 529 q 794 531 789 531 q 806 528 801 531 l 806 258 l 926 258 l 926 390 l 1018 390 q 1034 445 1025 418 q 1050 500 1043 472 l 926 500 q 927 509 928 504 q 926 518 926 514 q 926 523 926 519 q 928 528 926 526 l 1031 528 q 1049 594 1039 561 q 1067 660 1060 626 l 951 660 q 950 653 949 658 m 433 647 q 416 588 425 618 q 400 531 407 558 q 410 530 406 529 q 421 531 415 531 q 425 531 422 531 q 431 528 428 531 l 431 258 l 551 258 l 551 363 q 551 380 551 371 q 554 397 551 389 q 577 397 565 397 q 600 397 589 397 q 614 397 607 397 q 628 397 621 397 l 628 260 q 652 258 640 258 q 675 258 664 258 q 713 258 694 258 q 750 258 731 258 l 750 651 q 713 651 731 650 q 675 651 694 651 q 628 649 651 651 l 628 522 l 551 522 q 552 561 551 542 q 553 601 553 581 q 550 651 553 625 l 436 651 q 433 649 433 651 q 433 647 433 647 m 446 -75 l 425 -75 l 425 -31 l 421 -31 l 426 -10 l 450 -10 l 450 -8 l 469 -8 l 464 -31 l 446 -31 l 446 -36 l 467 -36 l 461 -54 l 446 -54 l 446 -75 m 478 -31 l 472 -31 l 478 -10 l 497 -10 l 497 -46 q 504 -57 497 -57 q 511 -46 511 -57 l 511 -10 l 531 -10 l 531 -47 q 504 -76 531 -76 q 478 -47 478 -76 l 478 -31 m 561 -56 l 574 -56 l 567 -75 l 540 -75 l 540 -31 l 533 -31 l 540 -10 l 561 -10 l 561 -56 m 600 -56 l 614 -56 l 607 -75 l 581 -75 l 581 -31 l 575 -31 l 581 -10 l 600 -10 l 600 -56 m 700 -10 l 678 -75 l 660 -75 l 636 -10 l 658 -10 l 668 -42 l 678 -10 l 700 -10 m 740 -75 l 703 -75 l 703 -31 l 699 -31 l 704 -10 l 728 -10 l 728 -8 l 747 -8 l 742 -31 l 724 -31 l 724 -35 l 746 -35 l 742 -51 l 724 -51 l 724 -54 l 747 -54 l 740 -75 m 775 -61 l 775 -75 l 756 -75 l 756 -31 l 750 -31 l 756 -10 l 775 -10 q 788 -11 783 -10 q 799 -15 793 -12 q 806 -35 806 -24 q 794 -56 806 -47 l 808 -75 l 783 -75 l 775 -61 m 778 -31 l 775 -31 l 775 -42 l 778 -42 q 785 -36 785 -42 q 778 -31 785 -31 m 844 -8 l 861 -11 l 856 -31 q 840 -28 846 -28 q 836 -31 836 -28 q 840 -33 836 -32 q 849 -36 844 -35 q 858 -42 854 -37 q 863 -54 863 -47 q 856 -71 863 -65 q 836 -76 849 -76 q 815 -71 826 -76 l 819 -51 q 828 -56 824 -53 q 836 -58 833 -58 q 842 -54 842 -58 q 838 -51 842 -53 q 828 -47 833 -49 q 818 -42 822 -46 q 814 -31 814 -37 q 820 -15 814 -21 q 835 -10 826 -10 q 843 -11 839 -10 l 844 -8 m 890 -10 l 890 -75 l 871 -75 l 871 -31 l 865 -31 l 871 -10 l 890 -10 m 931 -10 q 954 -20 944 -10 q 964 -43 964 -31 q 954 -67 964 -57 q 931 -76 944 -76 q 906 -67 915 -76 q 897 -43 897 -57 q 907 -20 897 -31 q 931 -10 917 -10 m 943 -43 q 940 -34 943 -37 q 931 -31 936 -31 q 920 -34 924 -31 q 917 -43 917 -37 q 920 -53 917 -49 q 931 -57 924 -57 q 940 -53 936 -57 q 943 -43 943 -49 m 992 -47 l 992 -75 l 972 -75 l 972 -31 l 967 -31 l 972 -10 l 992 -10 l 1006 -35 l 1006 -10 l 1028 -10 l 1028 -75 l 1010 -75 l 992 -47 m 311 -122 q 335 -132 326 -122 q 344 -157 344 -142 q 335 -180 344 -169 q 311 -190 326 -190 q 287 -180 296 -190 q 278 -156 278 -169 q 288 -132 278 -142 q 311 -122 297 -122 m 324 -157 q 311 -143 324 -143 q 299 -157 299 -143 q 311 -169 299 -169 q 324 -157 324 -169 m 372 -160 l 372 -189 l 353 -189 l 353 -143 l 347 -143 l 354 -124 l 372 -124 l 388 -147 l 388 -124 l 408 -124 l 408 -189 l 390 -189 l 372 -160 m 461 -124 l 461 -144 l 474 -144 l 474 -124 l 494 -124 l 494 -189 l 474 -189 l 474 -165 l 461 -165 l 461 -189 l 440 -189 l 440 -143 l 436 -143 l 442 -124 l 461 -124 m 542 -189 l 504 -189 l 504 -143 l 500 -143 l 506 -124 l 528 -124 l 528 -121 l 549 -121 l 542 -143 l 524 -143 l 524 -147 l 547 -147 l 543 -164 l 524 -164 l 524 -168 l 547 -168 l 542 -189 m 578 -174 l 578 -189 l 556 -189 l 556 -143 l 550 -143 l 557 -124 l 578 -124 q 599 -129 593 -124 q 607 -147 607 -136 q 597 -169 607 -162 l 608 -189 l 585 -189 l 578 -174 m 581 -143 l 578 -143 l 578 -154 l 579 -154 q 588 -149 588 -154 q 581 -143 588 -143 m 649 -122 q 672 -132 663 -122 q 682 -157 682 -142 q 672 -180 682 -169 q 649 -190 663 -190 q 624 -180 633 -190 q 614 -156 614 -169 q 624 -132 614 -142 q 649 -122 633 -122 m 661 -157 q 658 -147 661 -151 q 649 -143 654 -143 q 635 -157 635 -143 q 649 -169 635 -169 q 658 -166 654 -169 q 661 -157 661 -162 m 708 -189 l 689 -189 l 689 -143 l 683 -143 l 689 -124 l 713 -124 l 714 -121 l 733 -121 l 726 -143 l 708 -143 l 708 -147 l 729 -147 l 725 -167 l 708 -167 l 708 -189 m 772 -122 q 795 -132 785 -122 q 806 -157 806 -142 q 795 -180 806 -169 q 772 -190 785 -190 q 747 -180 756 -190 q 738 -156 738 -169 q 747 -132 738 -142 q 772 -122 756 -122 m 783 -157 q 772 -143 783 -143 q 758 -157 758 -143 q 772 -169 758 -169 q 783 -157 783 -169 m 832 -160 l 832 -189 l 811 -189 l 811 -143 l 806 -143 l 811 -124 l 832 -124 l 847 -147 l 847 -124 l 867 -124 l 867 -189 l 850 -189 l 832 -160 m 903 -143 l 903 -189 l 882 -189 l 882 -143 l 872 -143 l 878 -124 l 900 -124 l 900 -121 l 919 -121 l 913 -143 l 903 -143 m 950 -121 l 967 -125 l 961 -144 q 947 -142 953 -142 q 943 -142 943 -142 q 947 -146 943 -144 q 956 -149 950 -147 q 965 -156 961 -151 q 968 -168 968 -160 q 943 -190 968 -190 q 933 -188 938 -190 q 922 -185 928 -186 l 926 -164 q 943 -169 935 -169 q 947 -168 947 -169 q 943 -164 947 -165 q 933 -160 939 -162 q 924 -155 928 -158 q 919 -143 919 -151 q 926 -128 919 -135 q 942 -122 933 -122 q 946 -123 944 -122 q 950 -124 947 -124 l 950 -121 m 983 -168 q 994 -179 994 -168 q 983 -190 994 -190 q 972 -179 972 -190 q 983 -168 972 -168 m 1036 -121 l 1053 -128 l 1043 -147 q 1035 -144 1038 -146 q 1031 -142 1033 -142 q 1017 -156 1017 -142 q 1031 -169 1017 -169 q 1044 -164 1038 -169 l 1053 -181 q 1029 -190 1042 -190 q 1006 -181 1017 -190 q 996 -156 996 -171 q 1006 -132 996 -142 q 1029 -122 1017 -122 q 1035 -124 1032 -122 l 1036 -121 m 1089 -122 q 1114 -132 1106 -122 q 1122 -157 1122 -142 q 1114 -180 1122 -169 q 1089 -190 1106 -190 q 1065 -180 1074 -190 q 1056 -156 1056 -169 q 1065 -132 1056 -142 q 1089 -122 1075 -122 m 1103 -157 q 1089 -143 1103 -143 q 1076 -157 1076 -143 q 1089 -169 1076 -169 q 1103 -157 1103 -169 m 1150 -154 l 1150 -189 l 1131 -189 l 1131 -143 l 1126 -143 l 1131 -124 l 1150 -124 l 1161 -137 l 1172 -124 l 1194 -124 l 1194 -189 l 1174 -189 l 1174 -154 l 1161 -168 l 1150 -154 z "},"\u0000":{"ha":0,"x_min":0,"x_max":0,"o":""}," ":{"ha":590,"x_min":0,"x_max":0,"o":""},"D":{"ha":901,"x_min":97,"x_max":846,"o":"m 97 1071 l 268 1071 q 493 1031 388 1071 q 677 919 599 990 q 801 751 756 849 q 846 540 846 654 q 801 328 846 426 q 677 156 756 229 q 494 42 599 83 q 269 0 389 0 l 97 0 l 97 1071 m 208 965 l 208 106 l 268 106 q 450 139 365 106 q 598 231 535 172 q 698 369 661 289 q 735 540 735 449 q 698 710 735 632 q 598 844 661 788 q 450 933 535 901 q 268 965 365 965 l 208 965 z "},"E":{"ha":721,"x_min":97,"x_max":651,"o":"m 97 0 l 97 1071 l 651 1071 l 651 965 l 208 965 l 208 608 l 568 608 l 568 503 l 208 503 l 208 106 l 651 106 l 651 0 l 97 0 z "},"F":{"ha":721,"x_min":97,"x_max":651,"o":"m 97 0 l 97 1071 l 651 1071 l 651 965 l 208 965 l 208 608 l 568 608 l 568 503 l 208 503 l 208 0 l 97 0 z "},"G":{"ha":1256,"x_min":42,"x_max":1214,"o":"m 624 608 l 1214 608 l 1214 529 q 1167 317 1213 417 q 1042 144 1121 218 q 859 28 964 71 q 636 -14 754 -14 l 619 -14 q 394 29 500 -14 q 210 147 289 72 q 87 322 132 222 q 42 536 42 422 q 87 750 42 650 q 210 924 132 850 q 394 1042 289 999 q 619 1085 500 1085 q 843 1040 736 1085 q 1038 917 950 996 l 960 843 q 801 947 888 910 q 619 985 714 985 q 438 949 522 985 q 290 852 353 914 q 190 709 226 790 q 153 536 153 628 q 190 363 153 444 q 290 219 226 281 q 438 122 353 157 q 619 86 522 86 l 636 86 q 811 119 729 86 q 956 208 893 151 q 1056 340 1018 264 q 1101 503 1094 415 l 624 503 l 624 608 z "},"H":{"ha":969,"x_min":97,"x_max":872,"o":"m 97 0 l 97 1071 l 208 1071 l 208 608 l 761 608 l 761 1071 l 872 1071 l 872 0 l 761 0 l 761 503 l 208 503 l 208 0 l 97 0 z "},"I":{"ha":306,"x_min":97,"x_max":208,"o":"m 208 1071 l 208 0 l 97 0 l 97 1071 l 208 1071 z "},"J":{"ha":582,"x_min":56,"x_max":485,"o":"m 56 1071 l 485 1071 l 485 217 q 453 103 485 146 q 373 38 421 61 q 271 8 325 15 q 171 0 217 0 l 171 106 q 235 109 200 106 q 301 124 269 113 q 353 159 332 136 q 374 219 374 182 l 374 965 l 56 965 l 56 1071 z "},"K":{"ha":965,"x_min":97,"x_max":976,"o":"m 97 0 l 97 1071 l 208 1071 l 208 600 q 465 837 336 718 q 721 1071 594 956 l 879 1071 l 353 589 l 976 0 l 824 0 l 272 514 l 208 454 l 208 0 l 97 0 z "},"L":{"ha":707,"x_min":97,"x_max":651,"o":"m 651 106 l 651 0 l 97 0 l 97 1071 l 208 1071 l 208 106 l 651 106 z "},"M":{"ha":1172,"x_min":97,"x_max":1075,"o":"m 97 0 l 97 1071 l 204 1071 l 586 164 l 968 1071 l 1075 1071 l 1075 0 l 964 0 l 964 772 q 799 385 882 579 q 638 0 717 190 l 535 0 l 208 772 l 208 0 l 97 0 z "},"N":{"ha":933,"x_min":97,"x_max":836,"o":"m 97 0 l 97 1071 l 192 1071 l 725 544 l 725 1071 l 836 1071 l 836 0 l 725 0 l 725 393 l 208 900 l 208 0 l 97 0 z "},"O":{"ha":1239,"x_min":42,"x_max":1197,"o":"m 619 1085 q 844 1042 739 1085 q 1028 924 950 999 q 1152 750 1107 850 q 1197 536 1197 650 q 1152 322 1197 422 q 1028 147 1107 222 q 844 29 950 72 q 619 -14 739 -14 q 395 29 500 -14 q 212 147 290 72 q 88 322 133 222 q 42 536 42 422 q 88 750 42 650 q 212 924 133 850 q 395 1042 290 999 q 619 1085 500 1085 m 619 92 q 800 127 715 92 q 949 223 885 163 q 1049 364 1013 283 q 1086 536 1086 444 q 1049 707 1086 626 q 949 848 1013 788 q 800 944 885 908 q 619 979 715 979 q 440 944 524 979 q 292 848 356 908 q 191 707 228 788 q 154 536 154 626 q 191 364 154 444 q 292 223 228 283 q 440 127 356 163 q 619 92 524 92 z "},"P":{"ha":839,"x_min":97,"x_max":783,"o":"m 783 718 q 753 580 783 644 q 673 467 724 515 q 553 390 622 418 q 407 361 485 361 l 208 361 l 208 0 l 97 0 l 97 1071 l 407 1071 q 547 1044 479 1071 q 667 969 615 1017 q 751 856 719 921 q 783 718 783 792 m 208 965 l 208 467 l 407 467 q 510 486 461 467 q 594 540 558 506 q 651 621 631 575 q 672 719 672 667 q 649 816 672 771 q 589 894 626 861 q 504 947 551 928 q 408 965 457 965 l 208 965 z "},"Q":{"ha":1239,"x_min":42,"x_max":1197,"o":"m 42 536 q 88 750 42 650 q 212 924 133 850 q 395 1042 290 999 q 619 1085 500 1085 q 844 1042 739 1085 q 1028 924 950 999 q 1152 750 1107 850 q 1197 536 1197 650 q 1148 312 1197 415 q 1011 132 1099 208 q 1040 99 1024 117 q 1072 63 1056 81 q 1101 28 1088 44 q 1125 0 1115 11 l 981 0 l 924 67 q 619 -14 788 -14 q 395 29 500 -14 q 212 147 290 72 q 88 322 133 222 q 42 536 42 422 m 153 536 q 190 363 153 444 q 290 222 226 282 q 438 128 353 163 q 619 93 524 93 q 741 108 682 93 q 853 151 800 124 l 740 281 l 885 281 l 940 214 q 1048 358 1010 276 q 1086 536 1086 440 q 1049 708 1086 628 q 949 849 1013 789 q 801 944 886 910 q 619 979 717 979 q 438 944 524 979 q 290 849 353 910 q 190 708 226 789 q 153 536 153 628 z "},"R":{"ha":899,"x_min":97,"x_max":857,"o":"m 406 1071 q 551 1044 483 1071 q 670 969 619 1017 q 750 856 721 921 q 779 718 779 792 q 763 612 779 663 q 715 518 746 561 q 643 442 685 475 q 550 389 601 408 l 857 0 l 719 0 l 432 363 q 419 361 425 361 q 406 361 413 361 l 208 361 l 208 0 l 97 0 l 97 1071 l 406 1071 m 208 965 l 208 468 l 406 468 q 508 488 460 468 q 591 541 556 507 q 647 621 626 575 q 668 719 668 667 q 648 817 668 772 q 592 895 628 863 q 509 947 557 928 q 407 965 461 965 l 208 965 z "},"S":{"ha":833,"x_min":47,"x_max":778,"o":"m 433 603 q 688 489 597 567 q 778 290 778 411 q 744 163 778 217 q 656 72 711 108 q 528 17 600 35 q 376 -1 456 -1 q 244 15 303 -1 q 142 51 185 31 q 76 90 100 71 q 47 113 51 108 l 122 193 q 147 174 126 189 q 201 144 167 160 q 284 115 236 128 q 389 103 332 103 q 499 116 449 103 q 588 153 550 129 q 646 213 625 178 q 667 290 667 247 q 590 424 667 369 q 364 511 513 479 l 364 510 q 150 616 224 540 q 76 796 76 692 q 105 915 76 861 q 181 1006 133 968 q 293 1064 229 1043 q 426 1085 357 1085 q 573 1062 493 1085 q 711 993 653 1039 l 643 914 q 535 963 583 947 q 435 979 488 979 q 331 965 376 979 q 253 924 285 950 q 204 864 221 899 q 188 788 188 829 q 206 715 188 746 q 258 664 225 685 q 335 628 290 643 q 433 603 381 614 z "},"T":{"ha":832,"x_min":42,"x_max":790,"o":"m 42 1071 l 790 1071 l 790 965 l 471 965 l 471 0 l 360 0 l 360 965 l 42 965 l 42 1071 z "},"U":{"ha":878,"x_min":97,"x_max":781,"o":"m 781 1071 l 781 292 q 755 167 781 222 q 685 72 729 111 q 578 10 640 32 q 446 -11 517 -11 q 310 10 374 -11 q 200 72 247 32 q 125 167 153 111 q 97 292 97 222 l 97 1071 l 208 1071 l 208 294 q 226 216 208 253 q 276 152 244 179 q 351 109 308 125 q 446 93 394 93 q 537 108 496 93 q 608 149 578 122 q 653 213 638 175 q 669 294 669 250 l 669 1071 l 781 1071 z "},"V":{"ha":813,"x_min":18,"x_max":794,"o":"m 378 0 l 18 1071 l 135 1071 l 404 267 q 541 670 471 465 q 678 1071 611 875 l 794 1071 l 431 0 l 378 0 z "},"W":{"ha":1285,"x_min":18,"x_max":1267,"o":"m 431 0 l 378 0 l 18 1071 l 135 1071 l 406 265 l 583 792 l 490 1071 l 607 1071 l 642 965 q 661 1020 651 993 q 678 1071 671 1047 l 794 1071 l 700 790 q 746 653 725 717 q 788 529 767 590 q 830 404 808 468 q 876 265 851 340 q 1013 669 943 464 q 1150 1071 1083 875 l 1267 1071 l 903 0 l 850 0 l 643 621 l 431 0 z "},"X":{"ha":761,"x_min":25,"x_max":736,"o":"m 692 1071 l 438 574 q 510 433 472 506 q 588 286 549 360 q 664 140 626 213 q 736 0 701 67 l 611 0 l 376 450 l 149 0 l 25 0 l 315 572 q 185 822 253 690 q 56 1071 117 953 l 181 1071 l 376 693 l 567 1071 l 692 1071 z "},"Y":{"ha":761,"x_min":21,"x_max":740,"o":"m 438 0 l 326 0 l 326 585 l 21 1071 l 150 1071 l 382 696 q 499 883 440 788 q 614 1071 558 979 l 740 1071 l 438 579 l 438 0 z "},"Z":{"ha":703,"x_min":56,"x_max":647,"o":"m 647 0 l 58 0 l 457 965 l 56 965 l 56 1071 l 621 1071 l 222 106 l 647 106 l 647 0 z "},"a":{"ha":818,"x_min":29,"x_max":789,"o":"m 439 872 l 789 0 l 669 0 l 564 258 l 250 258 l 149 0 l 29 0 l 371 872 l 439 872 m 288 361 l 525 361 q 496 437 510 401 q 468 506 482 472 q 439 578 454 540 q 407 660 424 615 l 288 361 z "},"b":{"ha":782,"x_min":97,"x_max":740,"o":"m 97 872 l 424 872 q 522 855 478 872 q 599 808 567 838 q 650 736 632 778 q 668 647 668 694 q 594 488 668 543 q 703 402 665 460 q 740 256 740 344 q 712 138 740 186 q 635 59 683 90 q 521 14 586 28 q 382 0 456 0 l 97 0 l 97 872 m 208 414 l 208 100 l 388 100 q 566 143 503 100 q 629 254 629 186 q 419 414 629 414 l 208 414 m 208 769 l 208 517 l 422 517 q 478 529 453 518 q 522 559 504 540 q 551 601 540 578 q 561 647 561 624 q 526 733 561 696 q 424 769 490 769 l 208 769 z "},"c":{"ha":919,"x_min":28,"x_max":903,"o":"m 817 658 q 787 684 811 664 q 722 726 763 704 q 626 767 681 749 q 504 785 571 785 q 357 758 424 785 q 242 686 290 732 q 166 577 193 640 q 139 439 139 514 q 169 292 139 357 q 251 181 200 226 q 369 113 303 136 q 504 89 435 89 q 671 124 588 89 q 824 217 754 158 l 903 150 q 865 118 897 144 q 780 63 833 92 q 656 10 726 33 q 504 -14 586 -14 q 319 20 406 -14 q 167 115 232 54 q 65 258 103 175 q 28 436 28 340 q 60 607 28 525 q 154 751 93 689 q 303 851 215 814 q 504 888 392 888 q 711 848 608 888 q 892 728 814 808 l 817 658 z "},"d":{"ha":785,"x_min":97,"x_max":743,"o":"m 97 872 l 256 872 q 438 844 350 872 q 594 763 526 817 q 702 629 661 708 q 743 446 743 550 q 703 261 743 343 q 595 121 663 179 q 440 31 528 63 q 258 0 353 0 l 97 0 l 97 872 m 258 103 q 395 126 328 103 q 515 192 463 149 q 601 300 568 236 q 633 444 633 364 q 603 583 633 522 q 522 685 572 643 q 403 748 471 726 q 264 769 336 769 l 208 769 l 208 103 l 258 103 z "},"e":{"ha":693,"x_min":97,"x_max":596,"o":"m 97 0 l 97 872 l 596 872 l 596 769 l 208 769 l 208 517 l 518 517 l 518 414 l 208 414 l 208 103 l 596 103 l 596 0 l 97 0 z "},"f":{"ha":651,"x_min":97,"x_max":596,"o":"m 97 0 l 97 872 l 596 872 l 596 769 l 208 769 l 208 517 l 518 517 l 518 414 l 208 414 l 208 0 l 97 0 z "},"g":{"ha":1054,"x_min":42,"x_max":1013,"o":"m 42 436 q 77 617 42 533 q 177 760 113 700 q 331 856 242 821 q 526 890 419 890 q 663 872 599 890 q 776 826 726 853 q 858 774 825 800 q 906 731 892 747 l 833 663 q 786 699 817 678 q 715 741 756 721 q 627 775 675 761 q 526 789 579 789 q 383 765 451 789 q 264 694 315 740 q 182 583 213 649 q 151 436 151 518 q 183 294 151 358 q 267 185 215 231 q 388 113 319 139 q 526 88 456 88 q 660 111 594 88 q 777 178 725 135 q 863 281 829 221 q 901 414 896 342 l 435 414 l 435 517 l 1013 517 l 1013 442 q 971 254 1013 338 q 861 111 929 171 q 706 19 793 51 q 526 -12 618 -12 q 347 19 435 -12 q 192 108 260 50 q 83 249 125 167 q 42 436 42 332 z "},"h":{"ha":969,"x_min":97,"x_max":872,"o":"m 97 0 l 97 872 l 208 872 l 208 517 l 761 517 l 761 872 l 872 872 l 872 0 l 761 0 l 761 414 l 208 414 l 208 0 l 97 0 z "},"i":{"ha":306,"x_min":97,"x_max":208,"o":"m 208 872 l 208 0 l 97 0 l 97 872 l 208 872 z "},"j":{"ha":481,"x_min":42,"x_max":383,"o":"m 42 872 l 383 872 l 383 210 q 351 100 383 142 q 272 36 319 58 q 170 7 225 14 q 69 0 115 0 l 69 101 q 134 105 99 101 q 200 120 169 108 q 251 153 231 132 q 272 213 272 175 l 272 769 l 42 769 l 42 872 z "},"k":{"ha":850,"x_min":97,"x_max":836,"o":"m 97 0 l 97 872 l 208 872 l 208 586 l 542 872 l 710 872 l 311 536 q 440 406 372 474 q 575 267 507 338 q 710 129 643 197 q 836 0 776 61 l 686 0 l 231 465 l 208 446 l 208 0 l 97 0 z "},"l":{"ha":650,"x_min":97,"x_max":594,"o":"m 594 103 l 594 0 l 97 0 l 97 872 l 208 872 l 208 103 l 594 103 z "},"m":{"ha":1171,"x_min":97,"x_max":1074,"o":"m 97 0 l 97 872 l 204 872 l 589 144 l 971 872 l 1074 872 l 1074 0 l 963 0 l 965 621 l 636 0 l 540 0 l 208 626 l 208 0 l 97 0 z "},"n":{"ha":876,"x_min":97,"x_max":779,"o":"m 97 0 l 97 872 l 193 872 l 668 463 l 668 872 l 779 872 l 779 0 l 668 0 l 668 321 l 208 717 l 208 0 l 97 0 z "},"o":{"ha":1054,"x_min":42,"x_max":1013,"o":"m 528 885 q 710 853 622 885 q 865 764 797 822 q 972 622 932 706 q 1013 436 1013 539 q 972 249 1013 332 q 865 108 932 167 q 710 19 797 50 q 528 -12 622 -12 q 345 19 433 -12 q 190 108 257 50 q 82 249 122 167 q 42 436 42 332 q 82 622 42 539 q 190 764 122 706 q 345 853 257 822 q 528 885 433 885 m 528 782 q 386 758 454 782 q 266 689 318 733 q 183 581 214 644 q 153 436 153 517 q 183 292 153 356 q 266 183 214 228 q 386 114 318 138 q 528 90 454 90 q 669 114 601 90 q 788 183 736 138 q 871 292 840 228 q 901 436 901 356 q 871 581 901 517 q 788 689 840 644 q 669 758 736 733 q 528 782 601 782 z "},"p":{"ha":769,"x_min":97,"x_max":728,"o":"m 728 568 q 702 444 728 500 q 633 349 676 389 q 529 286 589 308 q 401 264 469 264 l 208 264 l 208 0 l 97 0 l 97 872 l 342 872 q 497 851 426 872 q 619 790 568 829 q 699 694 671 750 q 728 568 728 638 m 617 568 q 595 652 617 615 q 538 715 574 689 q 453 756 501 742 q 353 769 406 769 l 208 769 l 208 367 l 401 367 q 491 383 451 367 q 558 426 531 399 q 601 490 586 453 q 617 568 617 526 z "},"q":{"ha":1054,"x_min":42,"x_max":1013,"o":"m 525 885 q 709 853 621 885 q 865 764 797 822 q 972 622 932 706 q 1013 436 1013 539 q 979 262 1013 339 q 885 126 946 185 q 913 94 897 111 q 944 58 929 76 q 974 25 960 40 q 997 0 989 10 l 853 0 l 800 60 q 670 6 740 24 q 525 -12 600 -12 q 343 19 431 -12 q 189 108 256 50 q 82 249 122 167 q 42 436 42 332 q 82 622 42 539 q 189 764 122 706 q 343 853 256 822 q 525 885 431 885 m 757 274 l 817 204 q 879 307 857 249 q 901 436 901 365 q 871 578 901 514 q 788 689 840 643 q 668 760 736 735 q 525 785 600 785 q 389 760 456 785 q 270 691 322 736 q 186 581 218 646 q 154 436 154 517 q 184 292 154 356 q 265 183 214 228 q 383 114 317 138 q 525 90 450 90 q 635 101 582 90 q 733 139 689 113 q 703 174 719 156 q 669 212 686 193 q 638 247 653 231 q 613 276 622 264 l 757 274 z "},"r":{"ha":801,"x_min":97,"x_max":783,"o":"m 728 568 q 710 465 728 513 q 663 379 693 417 q 590 315 632 342 q 496 275 547 288 q 567 207 529 243 q 642 135 604 171 q 717 64 681 99 q 783 0 753 29 l 629 0 l 361 264 l 208 264 l 208 0 l 97 0 l 97 872 l 342 872 q 497 851 426 872 q 619 790 568 829 q 699 694 671 750 q 728 568 728 638 m 617 568 q 595 652 617 615 q 538 715 574 689 q 453 756 501 742 q 353 769 406 769 l 208 769 l 208 367 l 401 367 q 491 383 451 367 q 558 426 531 399 q 601 490 586 453 q 617 568 617 526 z "},"s":{"ha":804,"x_min":50,"x_max":751,"o":"m 421 494 q 545 461 485 481 q 651 410 606 442 q 724 335 697 379 q 747 226 751 290 q 706 114 743 160 q 612 40 669 68 q 483 -1 554 11 q 340 -8 413 -12 q 218 15 271 -4 q 130 58 165 35 q 74 101 94 81 q 50 129 54 122 l 114 181 q 175 138 140 157 q 245 105 204 121 q 338 86 286 89 q 453 94 399 85 q 548 123 507 104 q 613 168 589 142 q 639 226 638 194 q 619 292 640 264 q 558 342 597 321 q 467 380 519 364 q 353 410 414 396 q 242 441 293 422 q 153 488 190 460 q 95 556 115 517 q 78 650 75 596 q 110 751 82 706 q 184 826 138 796 q 293 870 231 856 q 428 881 356 885 q 528 863 482 876 q 610 835 575 850 q 667 806 644 819 q 696 786 689 792 l 625 706 q 563 740 596 725 q 499 766 535 754 q 425 781 463 778 q 332 776 375 783 q 257 751 289 768 q 206 707 225 733 q 186 646 188 681 q 204 584 183 608 q 259 543 225 560 q 336 515 293 526 q 421 494 379 504 z "},"t":{"ha":861,"x_min":42,"x_max":819,"o":"m 42 872 l 819 872 l 819 769 l 486 769 l 486 0 l 375 0 l 375 769 l 42 769 l 42 872 z "},"u":{"ha":879,"x_min":97,"x_max":782,"o":"m 782 872 l 782 285 q 753 163 782 217 q 677 70 725 108 q 568 11 629 32 q 443 -10 507 -10 q 310 11 374 -10 q 200 70 247 32 q 125 163 153 108 q 97 285 97 218 l 97 872 l 208 872 l 208 286 q 227 210 208 246 q 278 149 246 175 q 352 108 310 122 q 442 93 394 93 q 533 108 492 93 q 606 148 575 122 q 653 209 636 174 q 671 286 671 244 l 671 872 l 782 872 z "},"v":{"ha":738,"x_min":31,"x_max":707,"o":"m 342 0 l 31 872 l 147 872 l 367 254 q 478 564 422 410 q 590 872 535 718 l 707 872 l 394 0 l 342 0 z "},"w":{"ha":1115,"x_min":17,"x_max":1099,"o":"m 328 0 l 17 872 l 133 872 l 356 253 q 427 456 392 356 q 500 658 463 556 l 424 872 l 539 872 l 558 821 l 576 872 l 692 872 l 615 657 q 653 549 636 597 q 688 456 671 501 q 722 362 704 410 q 760 254 739 314 q 872 564 815 410 q 983 872 928 718 l 1099 872 l 786 0 l 733 0 l 557 494 l 381 0 l 328 0 z "},"x":{"ha":706,"x_min":39,"x_max":668,"o":"m 625 872 l 413 468 q 474 353 442 414 q 540 232 507 293 q 606 112 574 171 q 668 0 639 53 l 540 0 l 351 354 l 163 0 l 39 0 l 288 469 l 71 872 l 194 872 l 350 586 l 500 872 l 625 872 z "},"y":{"ha":669,"x_min":22,"x_max":647,"o":"m 279 0 l 279 435 q 217 540 250 485 q 150 653 183 596 q 84 767 117 711 q 22 872 51 822 l 149 872 l 335 557 l 521 872 l 647 872 l 390 435 l 390 0 l 279 0 z "},"z":{"ha":656,"x_min":40,"x_max":601,"o":"m 600 0 l 40 0 l 429 769 l 65 769 l 65 872 l 601 872 l 214 103 l 600 103 l 600 0 z "},"C":{"ha":1072,"x_min":42,"x_max":1042,"o":"m 1042 158 q 846 31 954 76 q 619 -15 738 -15 q 399 28 504 -15 q 215 145 294 71 q 89 319 136 219 q 42 533 42 419 q 88 747 42 647 q 212 922 133 847 q 395 1039 290 996 q 619 1082 500 1082 q 845 1035 738 1082 q 1040 910 953 989 l 964 838 q 803 943 892 904 q 619 982 715 982 q 438 947 524 982 q 290 849 353 911 q 190 706 226 788 q 153 533 153 625 q 194 360 153 442 q 301 217 235 278 q 450 122 367 157 q 619 86 533 86 q 803 125 715 86 q 965 231 890 164 l 1042 158 z "},"A":{"ha":940,"x_min":15,"x_max":926,"o":"m 488 1071 l 926 0 l 804 0 l 654 368 l 279 368 q 208 185 244 278 q 136 0 171 92 l 15 0 l 435 1071 l 488 1071 m 319 474 l 613 474 q 575 563 593 519 q 539 651 557 607 q 502 740 521 694 q 463 838 483 786 l 319 474 z "},"B":{"ha":838,"x_min":97,"x_max":782,"o":"m 97 1071 l 438 1071 q 555 1049 504 1071 q 640 989 606 1026 q 692 901 675 951 q 710 796 710 851 q 701 732 710 764 q 677 672 692 700 q 642 618 663 643 q 601 575 622 593 q 733 474 685 540 q 782 313 782 408 q 757 185 782 243 q 686 87 732 128 q 574 23 640 46 q 424 0 507 0 l 97 0 l 97 1071 m 208 504 l 208 103 l 429 103 q 539 122 493 103 q 614 172 585 142 q 657 240 643 203 q 671 314 671 278 q 606 451 671 399 q 433 504 542 504 l 208 504 m 208 965 l 208 610 l 435 610 q 497 627 467 611 q 551 669 528 643 q 589 727 575 694 q 603 796 603 760 q 593 858 603 828 q 563 913 583 889 q 512 951 543 936 q 438 965 481 965 l 208 965 z "},"!":{"ha":292,"x_min":90,"x_max":201,"o":"m 201 160 l 201 0 l 90 0 l 90 160 l 201 160 m 90 249 l 90 956 l 201 956 l 201 249 l 90 249 z "},"\"":{"ha":469,"x_min":90,"x_max":356,"o":"m 90 689 l 90 954 l 203 954 l 203 689 l 90 689 m 243 689 l 243 954 l 356 954 l 356 689 l 243 689 z "},"#":{"ha":1000,"x_min":90,"x_max":910,"o":"m 539 0 l 539 249 l 463 249 l 463 0 l 353 0 l 353 249 l 90 249 l 90 354 l 353 354 l 353 425 l 90 425 l 90 532 l 353 532 l 353 779 l 463 779 l 463 532 l 539 532 l 539 779 l 649 779 l 649 532 l 910 532 l 910 425 l 649 425 l 649 354 l 910 354 l 910 249 l 649 249 l 649 0 l 539 0 m 463 354 l 539 354 l 539 425 l 463 425 l 463 354 z "},"$":{"ha":763,"x_min":90,"x_max":672,"o":"m 328 -8 q 241 1 285 -7 q 153 19 197 8 l 204 110 q 325 93 264 93 l 328 93 l 328 424 q 324 424 325 424 q 321 425 324 425 q 208 451 253 435 q 138 494 164 467 q 101 560 111 521 q 90 657 90 600 q 101 757 90 711 q 140 837 113 803 q 213 892 168 871 q 328 917 258 913 l 328 954 l 439 954 l 439 914 q 520 899 481 908 q 592 878 560 889 l 542 781 q 491 797 517 789 q 439 810 465 806 l 439 508 q 538 477 494 496 q 610 429 581 458 q 656 358 640 400 q 672 258 672 317 q 655 156 672 200 q 607 81 638 113 q 533 29 576 49 q 439 0 490 10 l 439 -53 l 328 -53 l 328 -8 m 201 657 q 208 602 201 624 q 229 567 214 581 q 268 544 244 553 q 328 529 292 536 l 328 814 q 227 764 253 806 q 201 657 201 722 m 561 253 q 535 347 561 314 q 439 401 510 381 l 439 104 q 533 160 504 121 q 561 253 561 199 z "},"%":{"ha":685,"x_min":90,"x_max":597,"o":"m 231 700 q 290 688 264 700 q 334 658 317 676 q 361 615 351 639 q 371 567 371 592 q 361 518 371 542 q 334 476 351 494 q 290 446 317 457 q 231 435 264 435 q 172 446 199 435 q 128 476 146 457 q 100 518 110 494 q 90 567 90 542 q 100 615 90 590 q 128 658 110 639 q 172 688 146 676 q 231 700 199 700 m 231 531 q 259 542 249 531 q 269 567 269 553 q 259 592 269 581 q 231 604 249 604 q 203 592 214 604 q 193 567 193 581 q 203 542 193 553 q 231 531 213 531 m 454 254 q 513 243 486 254 q 557 213 539 232 q 585 171 575 194 q 594 122 594 147 q 585 74 594 97 q 557 31 575 50 q 513 1 539 13 q 454 -10 486 -10 q 395 1 421 -10 q 351 31 369 13 q 322 74 332 50 q 313 122 313 97 q 322 171 313 147 q 351 213 332 194 q 395 243 369 232 q 454 254 421 254 m 454 88 q 481 98 471 88 q 490 122 490 108 q 481 149 490 138 q 454 161 471 161 q 425 149 435 161 q 415 122 415 138 q 425 98 415 108 q 454 88 435 88 m 94 0 l 472 690 l 597 690 l 219 0 l 94 0 z "},"&":{"ha":796,"x_min":90,"x_max":740,"o":"m 90 250 q 124 373 90 319 q 217 458 158 426 l 217 515 q 258 651 217 597 q 394 704 300 704 q 480 690 446 704 q 533 652 514 676 q 561 593 553 628 q 569 517 569 558 l 569 397 l 383 397 q 363 397 372 397 q 346 394 354 396 q 415 306 365 356 l 564 165 q 593 195 579 179 q 617 224 607 211 q 638 253 628 239 l 697 192 q 686 160 693 175 q 667 128 679 146 q 636 96 656 111 q 669 66 651 82 q 703 35 688 50 q 740 0 721 18 l 588 3 q 579 10 585 6 q 568 18 575 13 q 551 33 561 24 q 476 3 517 14 q 382 -7 435 -7 q 257 15 311 -7 q 166 72 203 36 q 110 153 129 107 q 90 250 90 200 m 378 88 q 428 92 404 88 q 474 106 453 97 l 333 240 q 242 356 265 304 q 208 309 221 336 q 196 249 196 282 q 207 188 196 217 q 241 136 218 158 q 298 101 264 114 q 378 88 332 88 m 331 494 q 351 496 340 496 q 372 496 361 496 l 460 496 l 460 517 q 449 586 460 561 q 403 611 438 611 q 348 583 365 611 q 331 515 331 556 l 331 494 z "},"'":{"ha":293,"x_min":90,"x_max":203,"o":"m 90 689 l 90 954 l 203 954 l 203 689 l 90 689 z "},"(":{"ha":390,"x_min":17,"x_max":369,"o":"m 364 889 q 281 808 321 856 q 212 706 242 761 q 165 588 182 650 q 147 464 147 526 q 165 341 147 401 q 212 226 182 281 q 283 125 242 172 q 369 40 324 78 l 325 -1 q 205 74 261 26 q 107 181 149 121 q 41 315 65 242 q 17 468 17 388 q 39 615 17 544 q 101 745 61 685 q 196 853 142 806 q 315 932 250 901 l 364 889 z "},")":{"ha":400,"x_min":31,"x_max":383,"o":"m 83 932 q 203 853 149 901 q 299 745 258 806 q 361 615 339 685 q 383 468 383 544 q 359 315 383 388 q 293 181 335 242 q 195 74 251 121 q 75 -1 139 26 l 31 40 q 117 125 76 78 q 188 226 158 172 q 235 341 218 281 q 253 464 253 401 q 235 588 253 526 q 188 706 218 650 q 117 810 157 763 q 35 890 78 857 l 83 932 z "},"*":{"ha":501,"x_min":81,"x_max":419,"o":"m 326 517 l 392 451 l 294 385 l 250 464 l 207 385 l 111 450 l 176 517 l 81 531 l 121 642 l 206 600 l 193 690 l 310 690 l 297 600 l 383 640 l 419 532 l 326 517 z "},"+":{"ha":744,"x_min":90,"x_max":654,"o":"m 90 475 l 322 475 l 322 686 l 433 686 l 433 475 l 654 475 l 654 368 l 433 368 l 433 139 l 322 139 l 322 368 l 90 368 l 90 475 z "},",":{"ha":349,"x_min":90,"x_max":258,"o":"m 147 -160 l 147 0 l 90 0 l 90 107 l 258 107 l 258 -160 l 147 -160 z "},"-":{"ha":683,"x_min":90,"x_max":593,"o":"m 90 531 l 593 531 l 593 424 l 90 424 l 90 531 z "},".":{"ha":293,"x_min":90,"x_max":203,"o":"m 203 160 l 203 0 l 90 0 l 90 160 l 203 160 z "},"/":{"ha":761,"x_min":72,"x_max":689,"o":"m 72 0 l 564 886 l 689 886 l 200 0 l 72 0 z "},":":{"ha":292,"x_min":90,"x_max":201,"o":"m 201 160 l 201 0 l 90 0 l 90 160 l 201 160 m 201 690 l 201 532 l 90 532 l 90 690 l 201 690 z "},";":{"ha":346,"x_min":90,"x_max":256,"o":"m 144 -160 l 144 0 l 90 0 l 90 106 l 256 106 l 256 -160 l 144 -160 m 242 531 l 242 372 l 131 372 l 131 531 l 242 531 z "},"<":{"ha":628,"x_min":54,"x_max":538,"o":"m 538 558 l 538 442 l 310 335 q 426 282 367 310 q 538 231 485 254 l 538 113 l 54 336 l 538 558 z "},"=":{"ha":869,"x_min":90,"x_max":779,"o":"m 90 410 l 779 410 l 779 306 l 90 306 l 90 410 m 90 533 l 779 533 l 779 429 l 90 429 l 90 533 z "},">":{"ha":628,"x_min":90,"x_max":574,"o":"m 90 113 l 90 231 l 317 335 l 90 442 l 90 558 l 574 336 l 90 113 z "},"?":{"ha":593,"x_min":90,"x_max":503,"o":"m 201 160 l 201 0 l 90 0 l 90 160 l 201 160 m 118 344 q 211 362 163 344 q 300 411 260 379 q 366 490 340 443 q 392 594 392 536 q 366 699 392 653 q 298 779 340 746 q 201 831 256 813 q 90 849 147 849 l 90 956 q 246 931 171 956 q 378 859 321 906 q 469 747 435 813 q 503 599 503 681 q 466 443 503 511 q 370 328 429 375 q 238 258 311 282 q 90 235 164 235 l 90 318 l 118 344 z "},"@":{"ha":1193,"x_min":90,"x_max":1103,"o":"m 815 -99 l 563 -99 q 379 -64 465 -99 q 229 33 293 -29 q 128 183 165 96 q 90 378 90 271 q 131 572 90 482 q 243 728 172 663 q 411 833 314 794 q 621 871 508 871 q 815 841 726 871 q 967 757 903 811 q 1067 625 1031 703 q 1103 451 1103 547 q 1069 309 1103 372 q 985 201 1036 246 q 874 133 935 157 q 758 110 814 110 l 758 154 q 685 115 726 128 q 592 101 644 101 q 472 124 525 101 q 383 185 419 146 q 328 276 347 224 q 308 388 308 328 q 328 494 308 444 q 383 581 347 544 q 472 640 419 618 q 592 661 525 661 q 715 641 667 661 q 797 578 763 621 q 878 663 822 619 l 943 592 q 899 544 914 568 q 876 494 883 519 q 867 440 868 468 q 865 381 865 413 l 865 231 q 903 256 882 239 q 945 299 925 272 q 979 365 965 326 q 993 457 993 404 q 966 588 993 529 q 890 687 939 646 q 772 750 840 728 q 622 772 704 772 q 449 742 526 772 q 315 658 371 711 q 228 535 258 606 q 197 382 197 464 q 224 231 197 300 q 298 112 250 163 q 414 33 346 61 q 567 4 482 4 l 742 4 q 815 6 781 4 l 815 -99 m 592 200 q 716 253 676 200 q 756 388 756 306 q 715 516 756 467 q 592 565 675 565 q 463 513 506 565 q 419 381 419 460 q 462 251 419 301 q 592 200 504 200 z "},"[":{"ha":510,"x_min":90,"x_max":419,"o":"m 90 1092 l 419 1092 l 419 983 l 204 983 l 204 68 l 419 68 l 419 -40 l 90 -40 l 90 1092 z "},"\\":{"ha":786,"x_min":72,"x_max":714,"o":"m 585 0 l 72 926 l 200 926 l 714 0 l 585 0 z "},"]":{"ha":508,"x_min":90,"x_max":418,"o":"m 90 -43 l 90 65 l 304 65 l 304 979 l 90 979 l 90 1088 l 418 1088 l 418 -43 l 90 -43 z "},"^":{"ha":522,"x_min":78,"x_max":444,"o":"m 444 522 l 319 522 l 261 679 l 203 522 l 78 522 l 261 978 l 444 522 z "},"_":{"ha":1039,"x_min":90,"x_max":949,"o":"m 90 108 l 949 108 l 949 0 l 90 0 l 90 108 z "},"`":{"ha":456,"x_min":81,"x_max":375,"o":"m 324 928 l 81 1042 l 131 1139 l 375 1026 l 324 928 z "},"{":{"ha":460,"x_min":61,"x_max":358,"o":"m 315 -49 q 232 6 268 -29 q 175 81 200 35 q 150 196 150 128 l 150 281 q 147 329 150 306 q 135 373 144 353 q 108 410 126 393 q 61 442 90 428 q 108 478 90 458 q 135 521 126 499 q 147 567 144 543 q 150 617 150 592 l 150 706 q 181 801 150 758 q 250 875 213 844 q 351 939 294 911 l 353 875 q 304 838 325 861 q 270 788 285 818 q 256 714 256 757 q 255 639 256 678 q 249 565 254 600 q 232 498 244 529 q 196 446 219 467 q 232 399 219 428 q 249 334 244 369 q 255 258 254 299 q 256 178 256 218 q 272 88 256 122 q 307 35 288 54 q 358 0 329 11 l 350 -49 l 315 -49 z "},"|":{"ha":292,"x_min":90,"x_max":201,"o":"m 90 0 l 90 896 l 201 896 l 201 0 l 90 0 z "},"}":{"ha":460,"x_min":101,"x_max":399,"o":"m 110 -49 l 101 0 q 153 35 129 11 q 188 88 172 54 q 204 178 204 122 q 206 257 204 217 q 213 333 207 297 q 231 398 219 368 q 265 447 243 428 q 229 501 242 469 q 211 567 217 532 q 205 640 206 603 q 204 714 204 678 q 189 788 204 757 q 156 838 174 818 q 107 875 133 861 l 110 939 q 210 875 165 911 q 278 801 247 844 q 310 706 310 758 l 310 617 q 313 567 310 592 q 324 521 315 543 q 351 478 333 499 q 399 442 369 458 q 325 373 340 414 q 310 281 310 332 l 310 196 q 283 82 310 128 q 225 7 257 36 q 142 -49 189 -28 l 110 -49 z "},"~":{"ha":814,"x_min":82,"x_max":736,"o":"m 185 389 q 207 358 193 372 q 235 338 218 347 q 276 328 253 328 q 331 344 304 328 q 383 379 357 360 q 455 426 417 406 q 544 447 493 447 q 628 422 593 447 q 688 364 664 396 q 736 282 715 328 l 628 282 q 607 313 619 299 q 581 333 596 324 q 546 343 565 343 q 498 327 522 343 q 449 292 474 311 l 449 293 q 376 243 414 265 q 285 221 338 221 q 188 247 226 221 q 125 304 149 272 q 82 389 97 340 l 185 389 z "},"":{"ha":663,"x_min":90,"x_max":583,"o":"m 500 471 q 459 499 482 486 q 407 517 436 513 l 407 178 q 465 197 439 182 q 511 229 492 211 l 583 161 q 513 110 556 133 q 407 82 471 86 l 407 0 l 297 0 l 297 86 q 206 108 244 92 q 142 154 168 124 q 103 231 115 185 q 90 346 90 278 q 99 456 90 410 q 132 535 108 503 q 196 586 156 568 q 297 611 236 604 l 297 690 l 407 690 l 407 615 q 506 590 465 613 q 575 542 547 568 l 500 471 m 203 344 q 228 228 203 263 q 297 183 253 193 l 297 511 q 226 463 250 500 q 203 344 203 425 z "},"":{"ha":869,"x_min":90,"x_max":779,"o":"m 275 513 l 275 685 q 308 798 275 756 q 391 863 342 840 q 495 894 440 886 q 593 901 550 901 l 593 797 q 529 794 565 797 q 462 778 493 790 q 409 744 431 767 q 388 683 388 721 l 388 513 l 593 513 l 593 408 l 388 408 l 388 389 l 593 389 l 593 283 l 388 283 l 388 107 l 779 107 l 779 0 l 275 0 l 275 283 l 90 283 l 90 389 l 275 389 l 275 408 l 90 408 l 90 513 l 275 513 z "},"":{"ha":956,"x_min":61,"x_max":893,"o":"m 424 0 l 424 278 l 219 278 l 219 383 l 424 383 l 424 401 l 219 401 l 219 506 l 378 506 l 61 896 l 203 896 l 478 549 q 617 724 547 635 q 756 896 688 813 l 893 896 l 579 506 l 721 506 l 721 401 l 535 401 l 535 383 l 721 383 l 721 278 l 535 278 l 535 0 l 424 0 z "},"":{"ha":443,"x_min":90,"x_max":353,"o":"m 201 1113 l 201 953 l 90 953 l 90 1113 l 201 1113 m 353 1113 l 353 953 l 240 953 l 240 1113 l 353 1113 z "},"":{"ha":446,"x_min":79,"x_max":367,"o":"m 367 1015 l 133 899 l 79 992 l 310 1108 l 367 1015 z "},"":{"ha":375,"x_min":90,"x_max":285,"o":"m 183 32 l 183 -39 q 256 -83 226 -50 q 285 -167 285 -117 q 239 -262 285 -226 q 128 -303 193 -299 l 128 -206 q 181 -167 181 -200 q 153 -132 181 -139 q 119 -131 140 -132 q 90 -131 97 -131 l 90 32 l 183 32 z "},"":{"ha":533,"x_min":90,"x_max":443,"o":"m 201 690 l 201 532 l 258 532 l 258 425 l 90 425 l 90 690 l 201 690 m 388 690 l 388 532 l 443 532 l 443 425 l 276 425 l 276 690 l 388 690 z "},"":{"ha":533,"x_min":90,"x_max":443,"o":"m 332 425 l 332 583 l 275 583 l 275 690 l 443 690 l 443 425 l 332 425 m 146 425 l 146 583 l 90 583 l 90 690 l 256 690 l 256 425 l 146 425 z "},"":{"ha":539,"x_min":81,"x_max":457,"o":"m 457 1054 l 413 957 l 271 1022 q 199 990 239 1008 q 132 957 160 971 l 81 1053 l 271 1139 l 457 1054 z "},"":{"ha":460,"x_min":88,"x_max":371,"o":"m 371 1140 q 359 1084 369 1111 q 331 1036 349 1057 q 287 1003 313 1015 q 231 990 261 990 q 174 1003 199 990 q 131 1036 149 1015 q 101 1084 113 1057 q 88 1140 90 1111 l 189 1140 q 204 1103 193 1119 q 231 1086 215 1086 q 257 1103 246 1086 q 272 1140 268 1119 l 371 1140 z "},"":{"ha":396,"x_min":90,"x_max":306,"o":"m 199 1126 q 278 1096 250 1126 q 306 1028 306 1065 q 278 957 306 989 q 199 925 250 925 q 120 957 150 925 q 90 1028 90 989 q 120 1096 90 1065 q 199 1126 150 1126 m 199 1018 q 208 1028 208 1018 q 199 1038 208 1038 q 189 1028 189 1038 q 199 1018 189 1018 z "},"":{"ha":872,"x_min":90,"x_max":785,"o":"m 90 513 l 274 513 q 324 669 285 596 q 430 799 364 743 q 585 888 496 856 q 785 921 675 921 l 774 821 q 627 798 694 821 q 509 734 560 775 q 426 637 458 693 q 386 513 394 581 l 779 513 l 779 408 l 382 408 q 382 401 382 404 q 385 389 382 397 l 779 389 l 779 283 l 424 283 q 486 201 449 238 q 571 141 524 165 q 672 103 618 117 q 779 90 725 90 l 778 -12 q 621 9 696 -12 q 483 69 546 31 q 374 163 421 108 q 300 283 326 218 l 90 283 l 90 389 l 274 389 l 271 408 l 90 408 l 90 513 z "},"":{"ha":376,"x_min":90,"x_max":286,"o":"m 286 36 l 286 -126 l 222 -128 q 192 -162 192 -135 q 250 -201 192 -193 l 250 -299 q 188 -287 217 -297 q 138 -258 160 -276 q 103 -216 115 -240 q 90 -162 90 -192 q 120 -78 90 -110 q 194 -35 150 -46 l 194 36 l 286 36 z "},"":{"ha":535,"x_min":75,"x_max":456,"o":"m 290 990 q 214 960 258 960 q 151 978 186 960 q 75 1033 115 997 l 154 1092 q 181 1071 167 1081 q 207 1061 196 1061 q 240 1076 225 1061 q 322 1110 278 1110 q 383 1092 350 1110 q 456 1038 415 1075 l 383 972 q 328 1007 351 1007 q 290 990 307 1007 z "},"":{"ha":539,"x_min":81,"x_max":457,"o":"m 271 967 l 81 1053 l 132 1149 l 271 1083 q 344 1117 303 1097 q 413 1150 385 1136 l 457 1051 l 271 967 z "},"":{"ha":804,"x_min":22,"x_max":782,"o":"m 432 872 l 782 0 l 663 0 l 557 258 l 243 258 l 142 0 l 22 0 l 364 872 l 432 872 m 281 361 l 518 361 q 489 437 503 401 q 461 506 475 472 q 432 578 447 540 q 400 660 417 615 l 281 361 m 497 928 l 254 1042 l 304 1139 l 549 1026 l 497 928 z "},"":{"ha":926,"x_min":8,"x_max":919,"o":"m 481 1071 l 919 0 l 797 0 l 647 368 l 272 368 q 201 185 238 278 q 129 0 164 92 l 8 0 l 428 1071 l 481 1071 m 313 474 l 606 474 q 568 563 586 519 q 532 651 550 607 q 495 740 514 694 q 456 838 476 786 l 313 474 m 558 1113 l 315 1226 l 365 1324 l 610 1211 l 558 1113 z "},"":{"ha":926,"x_min":8,"x_max":919,"o":"m 481 1071 l 919 0 l 797 0 l 647 368 l 272 368 q 201 185 238 278 q 129 0 164 92 l 8 0 l 428 1071 l 481 1071 m 313 474 l 606 474 q 568 563 586 519 q 532 651 550 607 q 495 740 514 694 q 456 838 476 786 l 313 474 m 607 1200 l 374 1083 l 319 1176 l 550 1293 l 607 1200 z "},"":{"ha":926,"x_min":8,"x_max":919,"o":"m 481 1071 l 919 0 l 797 0 l 647 368 l 272 368 q 201 185 238 278 q 129 0 164 92 l 8 0 l 428 1071 l 481 1071 m 313 474 l 606 474 q 568 563 586 519 q 532 651 550 607 q 495 740 514 694 q 456 838 476 786 l 313 474 m 650 1239 l 606 1142 l 464 1207 q 392 1174 432 1193 q 325 1142 353 1156 l 274 1238 l 464 1324 l 650 1239 z "},"":{"ha":926,"x_min":8,"x_max":919,"o":"m 481 1071 l 919 0 l 797 0 l 647 368 l 272 368 q 201 185 238 278 q 129 0 164 92 l 8 0 l 428 1071 l 481 1071 m 313 474 l 606 474 q 568 563 586 519 q 532 651 550 607 q 495 740 514 694 q 456 838 476 786 l 313 474 m 486 1175 q 410 1144 454 1144 q 347 1163 382 1144 q 271 1218 311 1182 l 350 1276 q 377 1256 363 1265 q 403 1246 392 1246 q 436 1261 421 1246 q 518 1294 474 1294 q 578 1277 546 1294 q 651 1222 611 1260 l 579 1157 q 524 1192 547 1192 q 486 1175 503 1192 z "},"":{"ha":926,"x_min":8,"x_max":919,"o":"m 481 1071 l 919 0 l 797 0 l 647 368 l 272 368 q 201 185 238 278 q 129 0 164 92 l 8 0 l 428 1071 l 481 1071 m 313 474 l 606 474 q 568 563 586 519 q 532 651 550 607 q 495 740 514 694 q 456 838 476 786 l 313 474 m 443 1297 l 443 1138 l 332 1138 l 332 1297 l 443 1297 m 594 1297 l 594 1138 l 482 1138 l 482 1297 l 594 1297 z "},"":{"ha":926,"x_min":8,"x_max":919,"o":"m 481 1071 l 919 0 l 797 0 l 647 368 l 272 368 q 201 185 238 278 q 129 0 164 92 l 8 0 l 428 1071 l 481 1071 m 313 474 l 606 474 q 568 563 586 519 q 532 651 550 607 q 495 740 514 694 q 456 838 476 786 l 313 474 m 464 1311 q 543 1281 515 1311 q 571 1213 571 1250 q 543 1142 571 1174 q 464 1110 515 1110 q 385 1142 415 1110 q 356 1213 356 1174 q 385 1281 356 1250 q 464 1311 415 1311 m 464 1203 q 474 1213 474 1203 q 464 1222 474 1222 q 454 1213 454 1222 q 464 1203 454 1203 z "},"":{"ha":1058,"x_min":35,"x_max":1035,"o":"m 1035 158 q 839 31 947 76 q 613 -15 731 -15 l 608 -15 l 608 -19 q 681 -65 651 -31 q 710 -147 710 -99 q 664 -244 710 -208 q 553 -283 618 -281 l 553 -187 q 606 -147 606 -179 q 578 -114 606 -121 q 544 -113 565 -114 q 515 -112 522 -112 l 515 -8 q 328 56 415 8 q 175 176 240 104 q 72 340 110 249 q 35 533 35 431 q 81 747 35 647 q 205 922 126 847 q 388 1039 283 996 q 613 1082 493 1082 q 838 1035 731 1082 q 1033 910 946 989 l 957 838 q 797 943 885 904 q 613 982 708 982 q 431 947 517 982 q 283 849 346 911 q 183 706 219 788 q 146 533 146 625 q 187 360 146 442 q 294 217 228 278 q 443 122 360 157 q 613 86 526 86 q 796 125 708 86 q 958 231 883 164 l 1035 158 z "},"":{"ha":707,"x_min":90,"x_max":644,"o":"m 90 0 l 90 1071 l 644 1071 l 644 965 l 201 965 l 201 608 l 561 608 l 561 503 l 201 503 l 201 106 l 644 106 l 644 0 l 90 0 m 449 1113 l 206 1226 l 256 1324 l 500 1211 l 449 1113 z "},"":{"ha":707,"x_min":90,"x_max":644,"o":"m 90 0 l 90 1071 l 644 1071 l 644 965 l 201 965 l 201 608 l 561 608 l 561 503 l 201 503 l 201 106 l 644 106 l 644 0 l 90 0 m 497 1200 l 264 1083 l 210 1176 l 440 1293 l 497 1200 z "},"":{"ha":707,"x_min":90,"x_max":644,"o":"m 90 0 l 90 1071 l 644 1071 l 644 965 l 201 965 l 201 608 l 561 608 l 561 503 l 201 503 l 201 106 l 644 106 l 644 0 l 90 0 m 540 1239 l 496 1142 l 354 1207 q 283 1174 322 1193 q 215 1142 243 1156 l 164 1238 l 354 1324 l 540 1239 z "},"":{"ha":707,"x_min":90,"x_max":644,"o":"m 90 0 l 90 1071 l 644 1071 l 644 965 l 201 965 l 201 608 l 561 608 l 561 503 l 201 503 l 201 106 l 644 106 l 644 0 l 90 0 m 333 1297 l 333 1138 l 222 1138 l 222 1297 l 333 1297 m 485 1297 l 485 1138 l 372 1138 l 372 1297 l 485 1297 z "},"":{"ha":292,"x_min":-1,"x_max":293,"o":"m 201 1071 l 201 0 l 90 0 l 90 1071 l 201 1071 m 242 1113 l -1 1226 l 49 1324 l 293 1211 l 242 1113 z "},"":{"ha":292,"x_min":3,"x_max":290,"o":"m 201 1071 l 201 0 l 90 0 l 90 1071 l 201 1071 m 290 1200 l 57 1083 l 3 1176 l 233 1293 l 290 1200 z "},"":{"ha":292,"x_min":-43,"x_max":333,"o":"m 201 1071 l 201 0 l 90 0 l 90 1071 l 201 1071 m 333 1239 l 289 1142 l 147 1207 q 76 1174 115 1193 q 8 1142 36 1156 l -43 1238 l 147 1324 l 333 1239 z "},"":{"ha":292,"x_min":15,"x_max":278,"o":"m 201 1071 l 201 0 l 90 0 l 90 1071 l 201 1071 m 126 1297 l 126 1138 l 15 1138 l 15 1297 l 126 1297 m 278 1297 l 278 1138 l 165 1138 l 165 1297 l 278 1297 z "},"":{"ha":919,"x_min":90,"x_max":829,"o":"m 90 0 l 90 1071 l 185 1071 l 718 544 l 718 1071 l 829 1071 l 829 0 l 718 0 l 718 393 l 201 900 l 201 0 l 90 0 m 482 1175 q 406 1144 450 1144 q 342 1163 378 1144 q 267 1218 307 1182 l 346 1276 q 373 1256 358 1265 q 399 1246 388 1246 q 432 1261 417 1246 q 514 1294 469 1294 q 574 1277 542 1294 q 647 1222 607 1260 l 575 1157 q 519 1192 543 1192 q 482 1175 499 1192 z "},"":{"ha":1225,"x_min":35,"x_max":1190,"o":"m 613 1085 q 838 1042 732 1085 q 1022 924 943 999 q 1145 750 1100 850 q 1190 536 1190 650 q 1145 322 1190 422 q 1022 147 1100 222 q 838 29 943 72 q 613 -14 732 -14 q 388 29 493 -14 q 205 147 283 72 q 81 322 126 222 q 35 536 35 422 q 81 750 35 650 q 205 924 126 850 q 388 1042 283 999 q 613 1085 493 1085 m 613 92 q 793 127 708 92 q 942 223 878 163 q 1042 364 1006 283 q 1079 536 1079 444 q 1042 707 1079 626 q 942 848 1006 788 q 793 944 878 908 q 613 979 708 979 q 433 944 517 979 q 285 848 349 908 q 184 707 221 788 q 147 536 147 626 q 184 364 147 444 q 285 223 221 283 q 433 127 349 163 q 613 92 517 92 m 708 1113 l 465 1226 l 515 1324 l 760 1211 l 708 1113 z "},"":{"ha":1225,"x_min":35,"x_max":1190,"o":"m 613 1085 q 838 1042 732 1085 q 1022 924 943 999 q 1145 750 1100 850 q 1190 536 1190 650 q 1145 322 1190 422 q 1022 147 1100 222 q 838 29 943 72 q 613 -14 732 -14 q 388 29 493 -14 q 205 147 283 72 q 81 322 126 222 q 35 536 35 422 q 81 750 35 650 q 205 924 126 850 q 388 1042 283 999 q 613 1085 493 1085 m 613 92 q 793 127 708 92 q 942 223 878 163 q 1042 364 1006 283 q 1079 536 1079 444 q 1042 707 1079 626 q 942 848 1006 788 q 793 944 878 908 q 613 979 708 979 q 433 944 517 979 q 285 848 349 908 q 184 707 221 788 q 147 536 147 626 q 184 364 147 444 q 285 223 221 283 q 433 127 349 163 q 613 92 517 92 m 756 1200 l 522 1083 l 468 1176 l 699 1293 l 756 1200 z "},"":{"ha":1225,"x_min":35,"x_max":1190,"o":"m 613 1085 q 838 1042 732 1085 q 1022 924 943 999 q 1145 750 1100 850 q 1190 536 1190 650 q 1145 322 1190 422 q 1022 147 1100 222 q 838 29 943 72 q 613 -14 732 -14 q 388 29 493 -14 q 205 147 283 72 q 81 322 126 222 q 35 536 35 422 q 81 750 35 650 q 205 924 126 850 q 388 1042 283 999 q 613 1085 493 1085 m 613 92 q 793 127 708 92 q 942 223 878 163 q 1042 364 1006 283 q 1079 536 1079 444 q 1042 707 1079 626 q 942 848 1006 788 q 793 944 878 908 q 613 979 708 979 q 433 944 517 979 q 285 848 349 908 q 184 707 221 788 q 147 536 147 626 q 184 364 147 444 q 285 223 221 283 q 433 127 349 163 q 613 92 517 92 m 800 1239 l 756 1142 l 614 1207 q 542 1174 582 1193 q 475 1142 503 1156 l 424 1238 l 614 1324 l 800 1239 z "},"":{"ha":1225,"x_min":35,"x_max":1190,"o":"m 613 1085 q 838 1042 732 1085 q 1022 924 943 999 q 1145 750 1100 850 q 1190 536 1190 650 q 1145 322 1190 422 q 1022 147 1100 222 q 838 29 943 72 q 613 -14 732 -14 q 388 29 493 -14 q 205 147 283 72 q 81 322 126 222 q 35 536 35 422 q 81 750 35 650 q 205 924 126 850 q 388 1042 283 999 q 613 1085 493 1085 m 613 92 q 793 127 708 92 q 942 223 878 163 q 1042 364 1006 283 q 1079 536 1079 444 q 1042 707 1079 626 q 942 848 1006 788 q 793 944 878 908 q 613 979 708 979 q 433 944 517 979 q 285 848 349 908 q 184 707 221 788 q 147 536 147 626 q 184 364 147 444 q 285 223 221 283 q 433 127 349 163 q 613 92 517 92 m 635 1175 q 558 1144 603 1144 q 495 1163 531 1144 q 419 1218 460 1182 l 499 1276 q 526 1256 511 1265 q 551 1246 540 1246 q 585 1261 569 1246 q 667 1294 622 1294 q 727 1277 694 1294 q 800 1222 760 1260 l 728 1157 q 672 1192 696 1192 q 635 1175 651 1192 z "},"":{"ha":1225,"x_min":35,"x_max":1190,"o":"m 613 1085 q 838 1042 732 1085 q 1022 924 943 999 q 1145 750 1100 850 q 1190 536 1190 650 q 1145 322 1190 422 q 1022 147 1100 222 q 838 29 943 72 q 613 -14 732 -14 q 388 29 493 -14 q 205 147 283 72 q 81 322 126 222 q 35 536 35 422 q 81 750 35 650 q 205 924 126 850 q 388 1042 283 999 q 613 1085 493 1085 m 613 92 q 793 127 708 92 q 942 223 878 163 q 1042 364 1006 283 q 1079 536 1079 444 q 1042 707 1079 626 q 942 848 1006 788 q 793 944 878 908 q 613 979 708 979 q 433 944 517 979 q 285 848 349 908 q 184 707 221 788 q 147 536 147 626 q 184 364 147 444 q 285 223 221 283 q 433 127 349 163 q 613 92 517 92 m 592 1297 l 592 1138 l 481 1138 l 481 1297 l 592 1297 m 743 1297 l 743 1138 l 631 1138 l 631 1297 l 743 1297 z "},"":{"ha":864,"x_min":90,"x_max":774,"o":"m 774 1071 l 774 292 q 748 167 774 222 q 678 72 722 111 q 572 10 633 32 q 439 -11 510 -11 q 303 10 367 -11 q 193 72 240 32 q 118 167 146 111 q 90 292 90 222 l 90 1071 l 201 1071 l 201 294 q 219 216 201 253 q 269 152 238 179 q 344 109 301 125 q 439 93 388 93 q 530 108 489 93 q 601 149 571 122 q 647 213 631 175 q 663 294 663 250 l 663 1071 l 774 1071 m 528 1113 l 285 1226 l 335 1324 l 579 1211 l 528 1113 z "},"":{"ha":864,"x_min":90,"x_max":774,"o":"m 774 1071 l 774 292 q 748 167 774 222 q 678 72 722 111 q 572 10 633 32 q 439 -11 510 -11 q 303 10 367 -11 q 193 72 240 32 q 118 167 146 111 q 90 292 90 222 l 90 1071 l 201 1071 l 201 294 q 219 216 201 253 q 269 152 238 179 q 344 109 301 125 q 439 93 388 93 q 530 108 489 93 q 601 149 571 122 q 647 213 631 175 q 663 294 663 250 l 663 1071 l 774 1071 m 575 1200 l 342 1083 l 288 1176 l 518 1293 l 575 1200 z "},"":{"ha":864,"x_min":90,"x_max":774,"o":"m 774 1071 l 774 292 q 748 167 774 222 q 678 72 722 111 q 572 10 633 32 q 439 -11 510 -11 q 303 10 367 -11 q 193 72 240 32 q 118 167 146 111 q 90 292 90 222 l 90 1071 l 201 1071 l 201 294 q 219 216 201 253 q 269 152 238 179 q 344 109 301 125 q 439 93 388 93 q 530 108 489 93 q 601 149 571 122 q 647 213 631 175 q 663 294 663 250 l 663 1071 l 774 1071 m 619 1239 l 575 1142 l 433 1207 q 362 1174 401 1193 q 294 1142 322 1156 l 243 1238 l 433 1324 l 619 1239 z "},"":{"ha":864,"x_min":90,"x_max":774,"o":"m 774 1071 l 774 292 q 748 167 774 222 q 678 72 722 111 q 572 10 633 32 q 439 -11 510 -11 q 303 10 367 -11 q 193 72 240 32 q 118 167 146 111 q 90 292 90 222 l 90 1071 l 201 1071 l 201 294 q 219 216 201 253 q 269 152 238 179 q 344 109 301 125 q 439 93 388 93 q 530 108 489 93 q 601 149 571 122 q 647 213 631 175 q 663 294 663 250 l 663 1071 l 774 1071 m 411 1297 l 411 1138 l 300 1138 l 300 1297 l 411 1297 m 563 1297 l 563 1138 l 450 1138 l 450 1297 l 563 1297 z "},"":{"ha":804,"x_min":22,"x_max":782,"o":"m 432 872 l 782 0 l 663 0 l 557 258 l 243 258 l 142 0 l 22 0 l 364 872 l 432 872 m 281 361 l 518 361 q 489 437 503 401 q 461 506 475 472 q 432 578 447 540 q 400 660 417 615 l 281 361 m 546 1015 l 313 899 l 258 992 l 489 1108 l 546 1015 z "},"":{"ha":804,"x_min":22,"x_max":782,"o":"m 432 872 l 782 0 l 663 0 l 557 258 l 243 258 l 142 0 l 22 0 l 364 872 l 432 872 m 281 361 l 518 361 q 489 437 503 401 q 461 506 475 472 q 432 578 447 540 q 400 660 417 615 l 281 361 m 589 1054 l 544 957 l 403 1022 q 331 990 371 1008 q 264 957 292 971 l 213 1053 l 403 1139 l 589 1054 z "},"":{"ha":804,"x_min":22,"x_max":782,"o":"m 432 872 l 782 0 l 663 0 l 557 258 l 243 258 l 142 0 l 22 0 l 364 872 l 432 872 m 281 361 l 518 361 q 489 437 503 401 q 461 506 475 472 q 432 578 447 540 q 400 660 417 615 l 281 361 m 425 990 q 349 960 393 960 q 285 978 321 960 q 210 1033 250 997 l 289 1092 q 316 1071 301 1081 q 342 1061 331 1061 q 375 1076 360 1061 q 457 1110 413 1110 q 517 1092 485 1110 q 590 1038 550 1075 l 518 972 q 463 1007 486 1007 q 425 990 442 1007 z "},"":{"ha":804,"x_min":22,"x_max":782,"o":"m 432 872 l 782 0 l 663 0 l 557 258 l 243 258 l 142 0 l 22 0 l 364 872 l 432 872 m 281 361 l 518 361 q 489 437 503 401 q 461 506 475 472 q 432 578 447 540 q 400 660 417 615 l 281 361 m 382 1113 l 382 953 l 271 953 l 271 1113 l 382 1113 m 533 1113 l 533 953 l 421 953 l 421 1113 l 533 1113 z "},"":{"ha":804,"x_min":22,"x_max":782,"o":"m 432 872 l 782 0 l 663 0 l 557 258 l 243 258 l 142 0 l 22 0 l 364 872 l 432 872 m 281 361 l 518 361 q 489 437 503 401 q 461 506 475 472 q 432 578 447 540 q 400 660 417 615 l 281 361 m 403 1126 q 482 1096 454 1126 q 510 1028 510 1065 q 482 957 510 989 q 403 925 454 925 q 324 957 354 925 q 294 1028 294 989 q 324 1096 294 1065 q 403 1126 354 1126 m 403 1018 q 413 1028 413 1018 q 403 1038 413 1038 q 393 1028 393 1038 q 403 1018 393 1018 z "},"":{"ha":906,"x_min":21,"x_max":896,"o":"m 810 661 q 780 687 804 667 q 715 729 756 707 q 619 769 674 751 q 497 788 564 788 q 350 761 417 788 q 235 689 283 735 q 159 580 186 643 q 132 442 132 517 q 163 294 132 360 q 244 184 193 229 q 362 115 296 139 q 497 92 428 92 q 664 126 581 92 q 817 218 747 161 l 896 153 q 860 122 890 147 q 778 68 829 97 q 660 15 728 39 q 515 -11 593 -8 l 515 -12 q 588 -56 558 -24 q 617 -137 617 -89 q 604 -190 617 -167 q 570 -231 592 -214 q 520 -258 549 -249 q 460 -269 492 -268 l 460 -176 q 513 -137 513 -168 q 485 -104 513 -111 q 451 -103 472 -104 q 422 -103 429 -103 l 422 -7 q 263 44 336 6 q 135 140 189 82 q 51 275 82 199 q 21 439 21 351 q 53 610 21 528 q 147 754 86 692 q 297 853 208 817 q 497 890 385 890 q 704 851 601 890 q 885 731 807 811 l 810 661 z "},"":{"ha":679,"x_min":90,"x_max":589,"o":"m 90 0 l 90 872 l 589 872 l 589 769 l 201 769 l 201 517 l 511 517 l 511 414 l 201 414 l 201 103 l 589 103 l 589 0 l 90 0 m 435 928 l 192 1042 l 242 1139 l 486 1026 l 435 928 z "},"":{"ha":679,"x_min":90,"x_max":589,"o":"m 90 0 l 90 872 l 589 872 l 589 769 l 201 769 l 201 517 l 511 517 l 511 414 l 201 414 l 201 103 l 589 103 l 589 0 l 90 0 m 483 1015 l 250 899 l 196 992 l 426 1108 l 483 1015 z "},"":{"ha":679,"x_min":90,"x_max":589,"o":"m 90 0 l 90 872 l 589 872 l 589 769 l 201 769 l 201 517 l 511 517 l 511 414 l 201 414 l 201 103 l 589 103 l 589 0 l 90 0 m 526 1054 l 482 957 l 340 1022 q 269 990 308 1008 q 201 957 229 971 l 150 1053 l 340 1139 l 526 1054 z "},"":{"ha":679,"x_min":90,"x_max":589,"o":"m 90 0 l 90 872 l 589 872 l 589 769 l 201 769 l 201 517 l 511 517 l 511 414 l 201 414 l 201 103 l 589 103 l 589 0 l 90 0 m 319 1113 l 319 953 l 208 953 l 208 1113 l 319 1113 m 471 1113 l 471 953 l 358 953 l 358 1113 l 471 1113 z "},"":{"ha":292,"x_min":-1,"x_max":293,"o":"m 201 872 l 201 0 l 90 0 l 90 872 l 201 872 m 242 928 l -1 1042 l 49 1139 l 293 1026 l 242 928 z "},"":{"ha":292,"x_min":3,"x_max":290,"o":"m 201 872 l 201 0 l 90 0 l 90 872 l 201 872 m 290 1015 l 57 899 l 3 992 l 233 1108 l 290 1015 z "},"":{"ha":292,"x_min":-43,"x_max":333,"o":"m 201 872 l 201 0 l 90 0 l 90 872 l 201 872 m 333 1054 l 289 957 l 147 1022 q 76 990 115 1008 q 8 957 36 971 l -43 1053 l 147 1139 l 333 1054 z "},"":{"ha":292,"x_min":15,"x_max":278,"o":"m 201 872 l 201 0 l 90 0 l 90 872 l 201 872 m 126 1113 l 126 953 l 15 953 l 15 1113 l 126 1113 m 278 1113 l 278 953 l 165 953 l 165 1113 l 278 1113 z "},"":{"ha":863,"x_min":90,"x_max":772,"o":"m 90 0 l 90 872 l 186 872 l 661 463 l 661 872 l 772 872 l 772 0 l 661 0 l 661 321 l 201 717 l 201 0 l 90 0 m 454 990 q 378 960 422 960 q 315 978 350 960 q 239 1033 279 997 l 318 1092 q 345 1071 331 1081 q 371 1061 360 1061 q 404 1076 389 1061 q 486 1110 442 1110 q 547 1092 514 1110 q 619 1038 579 1075 l 547 972 q 492 1007 515 1007 q 454 990 471 1007 z "},"":{"ha":1040,"x_min":35,"x_max":1006,"o":"m 521 885 q 703 853 615 885 q 858 764 790 822 q 965 622 925 706 q 1006 436 1006 539 q 965 249 1006 332 q 858 108 925 167 q 703 19 790 50 q 521 -12 615 -12 q 338 19 426 -12 q 183 108 250 50 q 75 249 115 167 q 35 436 35 332 q 75 622 35 539 q 183 764 115 706 q 338 853 250 822 q 521 885 426 885 m 521 782 q 379 758 447 782 q 259 689 311 733 q 176 581 207 644 q 146 436 146 517 q 176 292 146 356 q 259 183 207 228 q 379 114 311 138 q 521 90 447 90 q 662 114 594 90 q 781 183 729 138 q 864 292 833 228 q 894 436 894 356 q 864 581 894 517 q 781 689 833 644 q 662 758 729 733 q 521 782 594 782 m 615 928 l 372 1042 l 422 1139 l 667 1026 l 615 928 z "},"":{"ha":1040,"x_min":35,"x_max":1006,"o":"m 521 885 q 703 853 615 885 q 858 764 790 822 q 965 622 925 706 q 1006 436 1006 539 q 965 249 1006 332 q 858 108 925 167 q 703 19 790 50 q 521 -12 615 -12 q 338 19 426 -12 q 183 108 250 50 q 75 249 115 167 q 35 436 35 332 q 75 622 35 539 q 183 764 115 706 q 338 853 250 822 q 521 885 426 885 m 521 782 q 379 758 447 782 q 259 689 311 733 q 176 581 207 644 q 146 436 146 517 q 176 292 146 356 q 259 183 207 228 q 379 114 311 138 q 521 90 447 90 q 662 114 594 90 q 781 183 729 138 q 864 292 833 228 q 894 436 894 356 q 864 581 894 517 q 781 689 833 644 q 662 758 729 733 q 521 782 594 782 m 664 1015 l 431 899 l 376 992 l 607 1108 l 664 1015 z "},"":{"ha":1040,"x_min":35,"x_max":1006,"o":"m 521 885 q 703 853 615 885 q 858 764 790 822 q 965 622 925 706 q 1006 436 1006 539 q 965 249 1006 332 q 858 108 925 167 q 703 19 790 50 q 521 -12 615 -12 q 338 19 426 -12 q 183 108 250 50 q 75 249 115 167 q 35 436 35 332 q 75 622 35 539 q 183 764 115 706 q 338 853 250 822 q 521 885 426 885 m 521 782 q 379 758 447 782 q 259 689 311 733 q 176 581 207 644 q 146 436 146 517 q 176 292 146 356 q 259 183 207 228 q 379 114 311 138 q 521 90 447 90 q 662 114 594 90 q 781 183 729 138 q 864 292 833 228 q 894 436 894 356 q 864 581 894 517 q 781 689 833 644 q 662 758 729 733 q 521 782 594 782 m 707 1054 l 663 957 l 521 1022 q 449 990 489 1008 q 382 957 410 971 l 331 1053 l 521 1139 l 707 1054 z "},"":{"ha":1040,"x_min":35,"x_max":1006,"o":"m 521 885 q 703 853 615 885 q 858 764 790 822 q 965 622 925 706 q 1006 436 1006 539 q 965 249 1006 332 q 858 108 925 167 q 703 19 790 50 q 521 -12 615 -12 q 338 19 426 -12 q 183 108 250 50 q 75 249 115 167 q 35 436 35 332 q 75 622 35 539 q 183 764 115 706 q 338 853 250 822 q 521 885 426 885 m 521 782 q 379 758 447 782 q 259 689 311 733 q 176 581 207 644 q 146 436 146 517 q 176 292 146 356 q 259 183 207 228 q 379 114 311 138 q 521 90 447 90 q 662 114 594 90 q 781 183 729 138 q 864 292 833 228 q 894 436 894 356 q 864 581 894 517 q 781 689 833 644 q 662 758 729 733 q 521 782 594 782 m 543 990 q 467 960 511 960 q 403 978 439 960 q 328 1033 368 997 l 407 1092 q 434 1071 419 1081 q 460 1061 449 1061 q 493 1076 478 1061 q 575 1110 531 1110 q 635 1092 603 1110 q 708 1038 668 1075 l 636 972 q 581 1007 604 1007 q 543 990 560 1007 z "},"":{"ha":1040,"x_min":35,"x_max":1006,"o":"m 521 885 q 703 853 615 885 q 858 764 790 822 q 965 622 925 706 q 1006 436 1006 539 q 965 249 1006 332 q 858 108 925 167 q 703 19 790 50 q 521 -12 615 -12 q 338 19 426 -12 q 183 108 250 50 q 75 249 115 167 q 35 436 35 332 q 75 622 35 539 q 183 764 115 706 q 338 853 250 822 q 521 885 426 885 m 521 782 q 379 758 447 782 q 259 689 311 733 q 176 581 207 644 q 146 436 146 517 q 176 292 146 356 q 259 183 207 228 q 379 114 311 138 q 521 90 447 90 q 662 114 594 90 q 781 183 729 138 q 864 292 833 228 q 894 436 894 356 q 864 581 894 517 q 781 689 833 644 q 662 758 729 733 q 521 782 594 782 m 500 1113 l 500 953 l 389 953 l 389 1113 l 500 1113 m 651 1113 l 651 953 l 539 953 l 539 1113 l 651 1113 z "},"":{"ha":865,"x_min":90,"x_max":775,"o":"m 775 872 l 775 285 q 747 163 775 217 q 670 70 718 108 q 561 11 622 32 q 436 -10 500 -10 q 303 11 367 -10 q 193 70 240 32 q 118 163 146 108 q 90 285 90 218 l 90 872 l 201 872 l 201 286 q 220 210 201 246 q 271 149 239 175 q 345 108 303 122 q 435 93 388 93 q 526 108 485 93 q 599 148 568 122 q 647 209 629 174 q 664 286 664 244 l 664 872 l 775 872 m 528 928 l 285 1042 l 335 1139 l 579 1026 l 528 928 z "},"":{"ha":865,"x_min":90,"x_max":775,"o":"m 775 872 l 775 285 q 747 163 775 217 q 670 70 718 108 q 561 11 622 32 q 436 -10 500 -10 q 303 11 367 -10 q 193 70 240 32 q 118 163 146 108 q 90 285 90 218 l 90 872 l 201 872 l 201 286 q 220 210 201 246 q 271 149 239 175 q 345 108 303 122 q 435 93 388 93 q 526 108 485 93 q 599 148 568 122 q 647 209 629 174 q 664 286 664 244 l 664 872 l 775 872 m 576 1015 l 343 899 l 289 992 l 519 1108 l 576 1015 z "},"":{"ha":865,"x_min":90,"x_max":775,"o":"m 775 872 l 775 285 q 747 163 775 217 q 670 70 718 108 q 561 11 622 32 q 436 -10 500 -10 q 303 11 367 -10 q 193 70 240 32 q 118 163 146 108 q 90 285 90 218 l 90 872 l 201 872 l 201 286 q 220 210 201 246 q 271 149 239 175 q 345 108 303 122 q 435 93 388 93 q 526 108 485 93 q 599 148 568 122 q 647 209 629 174 q 664 286 664 244 l 664 872 l 775 872 m 619 1054 l 575 957 l 433 1022 q 362 990 401 1008 q 294 957 322 971 l 243 1053 l 433 1139 l 619 1054 z "},"":{"ha":865,"x_min":90,"x_max":775,"o":"m 775 872 l 775 285 q 747 163 775 217 q 670 70 718 108 q 561 11 622 32 q 436 -10 500 -10 q 303 11 367 -10 q 193 70 240 32 q 118 163 146 108 q 90 285 90 218 l 90 872 l 201 872 l 201 286 q 220 210 201 246 q 271 149 239 175 q 345 108 303 122 q 435 93 388 93 q 526 108 485 93 q 599 148 568 122 q 647 209 629 174 q 664 286 664 244 l 664 872 l 775 872 m 413 1113 l 413 953 l 301 953 l 301 1113 l 413 1113 m 564 1113 l 564 953 l 451 953 l 451 1113 l 564 1113 z "},"":{"ha":656,"x_min":15,"x_max":640,"o":"m 272 0 l 272 435 q 210 540 243 485 q 143 653 176 596 q 77 767 110 711 q 15 872 44 822 l 142 872 l 328 557 l 514 872 l 640 872 l 383 435 l 383 0 l 272 0 m 307 1113 l 307 953 l 196 953 l 196 1113 l 307 1113 m 458 1113 l 458 953 l 346 953 l 346 1113 l 458 1113 z "},"":{"ha":381,"x_min":136,"x_max":247,"o":"m 247 1110 l 247 950 l 136 950 l 136 1110 l 247 1110 z "},"":{"ha":292,"x_min":90,"x_max":201,"o":"m 201 872 l 201 0 l 90 0 l 90 872 l 201 872 z "},"":{"ha":747,"x_min":14,"x_max":733,"o":"m 431 0 l 319 0 l 319 585 l 14 1071 l 143 1071 l 375 696 q 492 883 433 788 q 607 1071 551 979 l 733 1071 l 431 579 l 431 0 m 353 1297 l 353 1138 l 242 1138 l 242 1297 l 353 1297 m 504 1297 l 504 1138 l 392 1138 l 392 1297 l 504 1297 z "},"":{"ha":754,"x_min":199,"x_max":561,"o":"m 199 1086 l 561 1086 l 561 978 l 199 978 l 199 1086 z "},"":{"ha":292,"x_min":90,"x_max":201,"o":"m 90 629 l 90 790 l 201 790 l 201 629 l 90 629 m 201 542 l 201 -167 l 90 -167 l 90 542 l 201 542 z "},"":{"ha":593,"x_min":90,"x_max":503,"o":"m 392 629 l 392 790 l 503 790 l 503 629 l 392 629 m 503 444 q 400 428 453 444 q 303 378 347 411 q 230 300 258 346 q 201 196 201 254 q 227 90 201 138 q 295 10 253 43 q 392 -42 338 -24 q 503 -60 446 -60 l 503 -167 q 347 -142 421 -167 q 215 -69 272 -117 q 124 44 158 -22 q 90 192 90 110 q 127 347 90 279 q 223 460 164 414 q 356 531 282 507 q 503 554 429 554 l 503 444 z "},"":{"ha":1040,"x_min":35,"x_max":1006,"o":"m 211 0 l 244 61 q 92 215 150 119 q 35 436 35 310 q 75 622 35 539 q 183 764 115 706 q 338 853 250 822 q 521 885 426 885 q 611 878 568 885 q 699 856 654 871 q 704 863 701 860 l 831 863 l 797 807 q 948 655 890 750 q 1006 436 1006 560 q 965 249 1006 332 q 858 108 925 167 q 703 19 790 50 q 521 -12 615 -12 q 431 -6 475 -12 q 347 14 388 0 l 338 0 l 211 0 m 521 782 q 379 758 447 782 q 259 689 311 733 q 176 581 207 644 q 146 436 146 517 q 187 268 146 340 q 297 151 228 196 l 644 763 q 583 776 614 771 q 521 782 551 782 m 894 436 q 853 601 894 529 q 746 717 813 672 l 399 106 q 458 94 428 97 q 521 90 489 90 q 662 114 594 90 q 781 183 729 138 q 864 292 833 228 q 894 436 894 356 z "},"":{"ha":1225,"x_min":35,"x_max":1190,"o":"m 132 0 l 229 124 q 90 307 144 200 q 35 536 35 414 q 81 750 35 650 q 205 924 126 850 q 388 1042 283 999 q 613 1085 493 1085 q 775 1063 696 1085 q 921 1000 854 1040 q 952 1037 936 1018 q 979 1071 968 1056 l 1111 1071 l 1006 938 q 1140 758 1089 863 q 1190 536 1190 654 q 1145 322 1190 422 q 1022 147 1100 222 q 838 29 943 72 q 613 -14 732 -14 q 456 7 531 -14 q 317 65 382 28 l 265 0 l 132 0 m 147 536 q 185 355 147 438 q 296 210 224 272 q 575 562 439 390 q 856 915 711 733 q 613 979 747 979 q 433 944 517 979 q 285 848 349 908 q 184 707 221 788 q 147 536 147 626 m 613 92 q 793 127 708 92 q 942 223 878 163 q 1042 364 1006 283 q 1079 536 1079 444 q 939 853 1079 729 l 383 149 q 613 92 489 92 z "},"":{"ha":671,"x_min":90,"x_max":592,"o":"m 90 476 l 592 476 l 592 368 l 90 368 l 90 476 m 399 318 l 399 158 l 288 158 l 288 318 l 399 318 m 399 690 l 399 532 l 288 532 l 288 690 l 399 690 z "},"":{"ha":708,"x_min":53,"x_max":667,"o":"m 472 1083 q 462 1095 471 1086 q 438 1114 453 1104 q 404 1131 424 1124 q 363 1139 385 1139 q 279 1106 311 1139 q 247 1022 247 1074 q 283 935 247 965 q 363 904 318 904 q 420 919 390 904 q 478 958 450 935 l 524 915 q 508 900 521 913 q 473 874 494 888 q 423 849 451 860 q 363 838 394 838 q 292 851 325 838 q 233 890 258 865 q 192 949 207 915 q 178 1021 178 982 q 190 1090 178 1057 q 227 1149 203 1124 q 285 1189 251 1174 q 363 1204 319 1204 q 445 1187 403 1204 q 522 1132 488 1169 l 472 1083 m 360 1321 q 475 1300 419 1321 q 573 1240 531 1279 q 641 1147 615 1201 q 667 1024 667 1092 q 641 899 667 954 q 573 805 615 843 q 475 746 531 767 q 360 725 419 725 q 244 746 300 725 q 147 805 189 767 q 78 899 104 843 q 53 1024 53 954 q 78 1147 53 1092 q 147 1240 104 1201 q 244 1300 189 1279 q 360 1321 300 1321 m 360 1250 q 272 1234 314 1250 q 197 1189 229 1218 q 147 1117 165 1160 q 128 1024 128 1075 q 147 929 128 971 q 197 858 165 888 q 272 813 229 829 q 360 797 314 797 q 448 813 406 797 q 522 858 490 829 q 573 929 554 888 q 592 1024 592 971 q 573 1117 592 1075 q 522 1189 554 1160 q 448 1234 490 1218 q 360 1250 406 1250 z "},"":{"ha":708,"x_min":53,"x_max":667,"o":"m 360 1321 q 475 1300 419 1321 q 573 1240 531 1279 q 641 1147 615 1201 q 667 1024 667 1092 q 641 899 667 954 q 573 805 615 843 q 475 746 531 767 q 360 725 419 725 q 244 746 300 725 q 147 805 189 767 q 78 899 104 843 q 53 1024 53 954 q 78 1147 53 1092 q 147 1240 104 1201 q 244 1300 189 1279 q 360 1321 300 1321 m 329 938 l 329 839 l 261 839 l 261 1206 l 338 1206 q 394 1196 367 1206 q 440 1169 421 1186 q 472 1131 460 1153 q 483 1082 483 1108 q 458 1013 483 1044 q 394 967 432 982 q 449 903 419 939 q 503 842 479 868 q 567 916 543 871 q 592 1024 592 961 q 573 1117 592 1075 q 522 1189 554 1160 q 448 1234 490 1218 q 360 1250 406 1250 q 272 1234 314 1250 q 197 1189 229 1218 q 147 1117 165 1160 q 128 1024 128 1075 q 147 929 128 971 q 197 858 165 888 q 272 813 229 829 q 360 797 314 797 q 433 808 399 797 q 499 839 468 819 l 417 839 l 329 938 m 329 1015 l 338 1015 q 393 1034 369 1015 q 417 1081 417 1053 q 393 1128 417 1108 q 338 1147 369 1147 l 329 1147 l 329 1015 z "},"":{"ha":744,"x_min":90,"x_max":654,"o":"m 90 635 l 322 635 l 322 846 l 433 846 l 433 635 l 654 635 l 654 528 l 433 528 l 433 299 l 322 299 l 322 528 l 90 528 l 90 635 m 132 279 l 635 279 l 635 172 l 132 172 l 132 279 z "},"":{"ha":910,"x_min":-6,"x_max":772,"o":"m 328 751 l 328 1138 l 221 1138 l 221 751 l 122 751 l 122 1138 l -6 1138 l -6 1231 l 417 1231 l 550 911 l 685 1231 l 772 1231 l 772 751 l 674 751 l 674 947 q 671 942 671 944 l 590 751 l 511 751 l 426 951 l 426 751 l 328 751 z "},"":{"ha":913,"x_min":90,"x_max":872,"o":"m 732 254 q 790 243 764 254 q 835 213 817 232 q 863 171 853 194 q 872 122 872 147 q 863 74 872 97 q 835 31 853 50 q 790 1 817 13 q 732 -10 764 -10 q 637 22 674 -10 q 592 99 600 54 q 548 22 583 54 q 454 -10 513 -10 q 395 1 421 -10 q 351 31 369 13 q 322 74 332 50 q 313 122 313 97 q 322 171 313 147 q 351 213 332 194 q 395 243 369 232 q 454 254 421 254 q 548 221 513 254 q 592 146 583 188 q 637 221 600 188 q 732 254 674 254 m 94 0 l 472 690 l 597 690 l 219 0 l 94 0 m 231 700 q 290 688 264 700 q 334 658 317 676 q 361 615 351 639 q 371 567 371 592 q 361 518 371 542 q 334 476 351 494 q 290 446 317 457 q 231 435 264 435 q 172 446 199 435 q 128 476 146 457 q 100 518 110 494 q 90 567 90 542 q 100 615 90 590 q 128 658 110 639 q 172 688 146 676 q 231 700 199 700 m 231 531 q 259 542 249 531 q 269 567 269 553 q 259 592 269 581 q 231 604 249 604 q 203 592 214 604 q 193 567 193 581 q 203 542 193 553 q 231 531 213 531 m 454 88 q 481 98 471 88 q 490 122 490 108 q 481 149 490 138 q 454 161 471 161 q 425 149 435 161 q 415 122 415 138 q 425 98 415 108 q 454 88 435 88 m 732 88 q 758 98 749 88 q 768 122 768 108 q 758 149 768 138 q 732 161 749 161 q 703 149 713 161 q 693 122 693 138 q 703 98 693 108 q 732 88 713 88 z "},"":{"ha":1692,"x_min":42,"x_max":1594,"o":"m 528 885 q 710 853 622 885 q 865 764 797 822 q 972 622 932 706 q 1013 436 1013 539 q 972 249 1013 332 q 865 108 932 167 q 710 19 797 50 q 528 -12 622 -12 q 345 19 433 -12 q 190 108 257 50 q 82 249 122 167 q 42 436 42 332 q 82 622 42 539 q 190 764 122 706 q 345 853 257 822 q 528 885 433 885 m 528 782 q 386 758 454 782 q 266 689 318 733 q 183 581 214 644 q 153 436 153 517 q 183 292 153 356 q 266 183 214 228 q 386 114 318 138 q 528 90 454 90 q 669 114 601 90 q 788 183 736 138 q 871 292 840 228 q 901 436 901 356 q 871 581 901 517 q 788 689 840 644 q 669 758 736 733 q 528 782 601 782 m 1096 0 l 1096 872 l 1594 872 l 1594 769 l 1207 769 l 1207 517 l 1517 517 l 1517 414 l 1207 414 l 1207 103 l 1594 103 l 1594 0 l 1096 0 z "},"":{"ha":768,"x_min":90,"x_max":678,"o":"m 203 160 l 203 0 l 90 0 l 90 160 l 203 160 m 440 160 l 440 0 l 328 0 l 328 160 l 440 160 m 678 160 l 678 0 l 565 0 l 565 160 l 678 160 z "},"":{"ha":706,"x_min":79,"x_max":651,"o":"m 367 1015 l 133 899 l 79 992 l 310 1108 l 367 1015 m 651 1015 l 418 899 l 364 992 l 594 1108 l 651 1015 z "},"\r":{"ha":590,"x_min":0,"x_max":0,"o":""},"":{"ha":801,"x_min":79,"x_max":722,"o":"m 407 582 q 472 574 440 582 q 531 549 503 567 l 644 657 l 722 582 l 613 478 q 656 344 656 419 q 644 274 656 308 q 613 213 632 240 l 721 110 l 646 31 l 532 139 q 407 108 475 108 q 333 119 368 108 q 267 149 297 129 l 158 46 l 79 121 l 188 224 q 156 344 156 275 q 188 465 156 413 l 79 569 l 158 644 l 267 542 q 407 582 328 582 m 407 215 q 460 226 435 215 q 503 253 485 236 q 533 294 522 271 q 543 344 543 318 q 533 395 543 371 q 503 437 522 419 q 460 465 485 454 q 407 475 435 475 q 353 465 378 475 q 309 437 328 454 q 280 395 290 419 q 269 344 269 371 q 280 294 269 318 q 309 253 290 271 q 353 226 328 236 q 407 215 378 215 z "},"":{"ha":747,"x_min":14,"x_max":733,"o":"m 431 0 l 319 0 l 319 585 l 14 1071 l 143 1071 l 375 696 q 492 883 433 788 q 607 1071 551 979 l 733 1071 l 431 579 l 431 0 m 517 1200 l 283 1083 l 229 1176 l 460 1293 l 517 1200 z "},"":{"ha":656,"x_min":15,"x_max":640,"o":"m 272 0 l 272 435 q 210 540 243 485 q 143 653 176 596 q 77 767 110 711 q 15 872 44 822 l 142 872 l 328 557 l 514 872 l 640 872 l 383 435 l 383 0 l 272 0 m 471 1015 l 238 899 l 183 992 l 414 1108 l 471 1015 z "},"":{"ha":926,"x_min":8,"x_max":919,"o":"m 481 1071 l 919 0 l 797 0 l 647 368 l 272 368 q 201 185 238 278 q 129 0 164 92 l 8 0 l 428 1071 l 481 1071 m 313 474 l 606 474 q 568 563 586 519 q 532 651 550 607 q 495 740 514 694 q 456 838 476 786 l 313 474 m 604 1325 q 592 1269 603 1296 q 564 1221 582 1242 q 520 1188 546 1200 q 464 1175 494 1175 q 407 1188 432 1175 q 364 1221 382 1200 q 335 1269 346 1242 q 321 1325 324 1296 l 422 1325 q 438 1288 426 1304 q 464 1271 449 1271 q 490 1288 479 1271 q 506 1325 501 1304 l 604 1325 z "},"":{"ha":804,"x_min":22,"x_max":782,"o":"m 432 872 l 782 0 l 663 0 l 557 258 l 243 258 l 142 0 l 22 0 l 364 872 l 432 872 m 281 361 l 518 361 q 489 437 503 401 q 461 506 475 472 q 432 578 447 540 q 400 660 417 615 l 281 361 m 543 1140 q 531 1084 542 1111 q 503 1036 521 1057 q 459 1003 485 1015 q 403 990 433 990 q 346 1003 371 990 q 303 1036 321 1015 q 274 1084 285 1057 q 260 1140 263 1111 l 361 1140 q 376 1103 365 1119 q 403 1086 388 1086 q 429 1103 418 1086 q 444 1140 440 1119 l 543 1140 z "},"":{"ha":804,"x_min":22,"x_max":769,"o":"m 432 872 l 769 31 l 769 -107 l 707 -107 q 680 -119 692 -110 q 669 -140 668 -128 q 695 -165 671 -154 q 749 -179 719 -175 l 749 -274 q 684 -267 719 -272 q 619 -247 649 -261 q 569 -208 589 -233 q 549 -142 549 -183 q 578 -57 549 -90 q 654 -14 607 -24 l 654 21 q 606 139 629 83 q 557 258 583 194 l 243 258 l 142 0 l 22 0 l 364 872 l 432 872 m 281 361 l 518 361 q 489 437 503 401 q 461 506 475 472 q 432 578 447 540 q 400 660 417 615 l 281 361 z "},"":{"ha":1058,"x_min":35,"x_max":1035,"o":"m 1035 158 q 839 31 947 76 q 613 -15 731 -15 q 392 28 497 -15 q 208 145 288 71 q 82 319 129 219 q 35 533 35 419 q 81 747 35 647 q 205 922 126 847 q 388 1039 283 996 q 613 1082 493 1082 q 838 1035 731 1082 q 1033 910 946 989 l 957 838 q 797 943 885 904 q 613 982 708 982 q 431 947 517 982 q 283 849 346 911 q 183 706 219 788 q 146 533 146 625 q 187 360 146 442 q 294 217 228 278 q 443 122 360 157 q 613 86 526 86 q 796 125 708 86 q 958 231 883 164 l 1035 158 m 714 1200 l 481 1083 l 426 1176 l 657 1293 l 714 1200 z "},"":{"ha":906,"x_min":21,"x_max":896,"o":"m 810 658 q 780 684 804 664 q 715 726 756 704 q 619 767 674 749 q 497 785 564 785 q 350 758 417 785 q 235 686 283 732 q 159 577 186 640 q 132 439 132 514 q 163 292 132 357 q 244 181 193 226 q 362 113 296 136 q 497 89 428 89 q 664 124 581 89 q 817 217 747 158 l 896 150 q 858 118 890 144 q 773 63 826 92 q 649 10 719 33 q 497 -14 579 -14 q 312 20 399 -14 q 160 115 225 54 q 58 258 96 175 q 21 436 21 340 q 53 607 21 525 q 147 751 86 689 q 297 851 208 814 q 497 888 385 888 q 704 848 601 888 q 885 728 807 808 l 810 658 m 596 1015 l 363 899 l 308 992 l 539 1108 l 596 1015 z "},"":{"ha":1058,"x_min":35,"x_max":1035,"o":"m 1035 158 q 839 31 947 76 q 613 -15 731 -15 q 392 28 497 -15 q 208 145 288 71 q 82 319 129 219 q 35 533 35 419 q 81 747 35 647 q 205 922 126 847 q 388 1039 283 996 q 613 1082 493 1082 q 838 1035 731 1082 q 1033 910 946 989 l 957 838 q 797 943 885 904 q 613 982 708 982 q 431 947 517 982 q 283 849 346 911 q 183 706 219 788 q 146 533 146 625 q 187 360 146 442 q 294 217 228 278 q 443 122 360 157 q 613 86 526 86 q 796 125 708 86 q 958 231 883 164 l 1035 158 m 781 1239 l 736 1142 l 594 1207 q 523 1174 563 1193 q 456 1142 483 1156 l 404 1238 l 594 1324 l 781 1239 z "},"":{"ha":906,"x_min":21,"x_max":896,"o":"m 810 658 q 780 684 804 664 q 715 726 756 704 q 619 767 674 749 q 497 785 564 785 q 350 758 417 785 q 235 686 283 732 q 159 577 186 640 q 132 439 132 514 q 163 292 132 357 q 244 181 193 226 q 362 113 296 136 q 497 89 428 89 q 664 124 581 89 q 817 217 747 158 l 896 150 q 858 118 890 144 q 773 63 826 92 q 649 10 719 33 q 497 -14 579 -14 q 312 20 399 -14 q 160 115 225 54 q 58 258 96 175 q 21 436 21 340 q 53 607 21 525 q 147 751 86 689 q 297 851 208 814 q 497 888 385 888 q 704 848 601 888 q 885 728 807 808 l 810 658 m 686 1054 l 642 957 l 500 1022 q 428 990 468 1008 q 361 957 389 971 l 310 1053 l 500 1139 l 686 1054 z "},"":{"ha":906,"x_min":21,"x_max":896,"o":"m 810 658 q 780 684 804 664 q 715 726 756 704 q 619 767 674 749 q 497 785 564 785 q 350 758 417 785 q 235 686 283 732 q 159 577 186 640 q 132 439 132 514 q 163 292 132 357 q 244 181 193 226 q 362 113 296 136 q 497 89 428 89 q 664 124 581 89 q 817 217 747 158 l 896 150 q 858 118 890 144 q 773 63 826 92 q 649 10 719 33 q 497 -14 579 -14 q 312 20 399 -14 q 160 115 225 54 q 58 258 96 175 q 21 436 21 340 q 53 607 21 525 q 147 751 86 689 q 297 851 208 814 q 497 888 385 888 q 704 848 601 888 q 885 728 807 808 l 810 658 m 568 1110 l 568 950 l 457 950 l 457 1110 l 568 1110 z "},"":{"ha":1058,"x_min":35,"x_max":1035,"o":"m 1035 158 q 839 31 947 76 q 613 -15 731 -15 q 392 28 497 -15 q 208 145 288 71 q 82 319 129 219 q 35 533 35 419 q 81 747 35 647 q 205 922 126 847 q 388 1039 283 996 q 613 1082 493 1082 q 838 1035 731 1082 q 1033 910 946 989 l 957 838 q 797 943 885 904 q 613 982 708 982 q 431 947 517 982 q 283 849 346 911 q 183 706 219 788 q 146 533 146 625 q 187 360 146 442 q 294 217 228 278 q 443 122 360 157 q 613 86 526 86 q 796 125 708 86 q 958 231 883 164 l 1035 158 m 656 1294 l 656 1135 l 544 1135 l 544 1294 l 656 1294 z "},"":{"ha":1058,"x_min":35,"x_max":1035,"o":"m 1035 158 q 839 31 947 76 q 613 -15 731 -15 q 392 28 497 -15 q 208 145 288 71 q 82 319 129 219 q 35 533 35 419 q 81 747 35 647 q 205 922 126 847 q 388 1039 283 996 q 613 1082 493 1082 q 838 1035 731 1082 q 1033 910 946 989 l 957 838 q 797 943 885 904 q 613 982 708 982 q 431 947 517 982 q 283 849 346 911 q 183 706 219 788 q 146 533 146 625 q 187 360 146 442 q 294 217 228 278 q 443 122 360 157 q 613 86 526 86 q 796 125 708 86 q 958 231 883 164 l 1035 158 m 606 1151 l 415 1238 l 467 1333 l 606 1268 q 678 1301 638 1282 q 747 1335 719 1321 l 792 1236 l 606 1151 z "},"":{"ha":906,"x_min":21,"x_max":896,"o":"m 810 658 q 780 684 804 664 q 715 726 756 704 q 619 767 674 749 q 497 785 564 785 q 350 758 417 785 q 235 686 283 732 q 159 577 186 640 q 132 439 132 514 q 163 292 132 357 q 244 181 193 226 q 362 113 296 136 q 497 89 428 89 q 664 124 581 89 q 817 217 747 158 l 896 150 q 858 118 890 144 q 773 63 826 92 q 649 10 719 33 q 497 -14 579 -14 q 312 20 399 -14 q 160 115 225 54 q 58 258 96 175 q 21 436 21 340 q 53 607 21 525 q 147 751 86 689 q 297 851 208 814 q 497 888 385 888 q 704 848 601 888 q 885 728 807 808 l 810 658 m 503 967 l 313 1053 l 364 1149 l 503 1083 q 576 1117 535 1097 q 644 1150 617 1136 l 689 1051 l 503 967 z "},"":{"ha":888,"x_min":88,"x_max":839,"o":"m 90 1071 l 261 1071 q 486 1031 381 1071 q 670 919 592 990 q 794 751 749 849 q 839 540 839 654 q 794 328 839 426 q 670 156 749 229 q 487 42 592 83 q 263 0 382 0 l 90 0 l 90 1071 m 201 965 l 201 106 l 261 106 q 443 139 358 106 q 591 231 528 172 q 691 369 654 289 q 728 540 728 449 q 691 710 728 632 q 591 844 654 788 q 443 933 528 901 q 261 965 358 965 l 201 965 m 278 1151 l 88 1238 l 139 1333 l 278 1268 q 351 1301 310 1282 q 419 1335 392 1321 l 464 1236 l 278 1151 z "},"":{"ha":707,"x_min":90,"x_max":644,"o":"m 90 0 l 90 1071 l 644 1071 l 644 965 l 201 965 l 201 608 l 561 608 l 561 503 l 201 503 l 201 106 l 644 106 l 644 0 l 90 0 m 494 1325 q 483 1269 493 1296 q 454 1221 472 1242 q 410 1188 436 1200 q 354 1175 385 1175 q 297 1188 322 1175 q 254 1221 272 1200 q 225 1269 236 1242 q 211 1325 214 1296 l 313 1325 q 328 1288 317 1304 q 354 1271 339 1271 q 381 1288 369 1271 q 396 1325 392 1304 l 494 1325 z "},"":{"ha":679,"x_min":90,"x_max":589,"o":"m 90 0 l 90 872 l 589 872 l 589 769 l 201 769 l 201 517 l 511 517 l 511 414 l 201 414 l 201 103 l 589 103 l 589 0 l 90 0 m 481 1140 q 469 1084 479 1111 q 440 1036 458 1057 q 397 1003 422 1015 q 340 990 371 990 q 283 1003 308 990 q 240 1036 258 1015 q 211 1084 222 1057 q 197 1140 200 1111 l 299 1140 q 314 1103 303 1119 q 340 1086 325 1086 q 367 1103 356 1086 q 382 1140 378 1119 l 481 1140 z "},"":{"ha":707,"x_min":90,"x_max":644,"o":"m 90 0 l 90 1071 l 644 1071 l 644 965 l 201 965 l 201 608 l 561 608 l 561 503 l 201 503 l 201 106 l 644 106 l 644 0 l 90 0 m 408 1294 l 408 1135 l 297 1135 l 297 1294 l 408 1294 z "},"":{"ha":679,"x_min":90,"x_max":589,"o":"m 90 0 l 90 872 l 589 872 l 589 769 l 201 769 l 201 517 l 511 517 l 511 414 l 201 414 l 201 103 l 589 103 l 589 0 l 90 0 m 394 1110 l 394 950 l 283 950 l 283 1110 l 394 1110 z "},"":{"ha":707,"x_min":90,"x_max":644,"o":"m 90 0 l 90 1071 l 644 1071 l 644 965 l 201 965 l 201 608 l 561 608 l 561 503 l 201 503 l 201 106 l 644 106 l 644 0 l 443 0 l 443 -110 l 379 -111 q 349 -146 349 -118 q 407 -183 349 -175 l 407 -281 q 345 -269 374 -279 q 294 -241 317 -258 q 260 -199 272 -224 q 247 -146 247 -175 q 277 -60 247 -93 q 351 -17 307 -28 l 351 0 l 90 0 z "},"":{"ha":679,"x_min":90,"x_max":589,"o":"m 407 0 l 407 -106 l 343 -107 q 313 -140 313 -114 q 371 -178 313 -169 l 371 -272 q 309 -260 338 -271 q 258 -233 281 -250 q 224 -193 236 -217 q 211 -140 211 -169 q 241 -58 211 -90 q 315 -15 271 -26 l 315 0 l 90 0 l 90 872 l 589 872 l 589 769 l 201 769 l 201 517 l 511 517 l 511 414 l 201 414 l 201 103 l 589 103 l 589 0 l 407 0 z "},"":{"ha":707,"x_min":90,"x_max":644,"o":"m 90 0 l 90 1071 l 644 1071 l 644 965 l 201 965 l 201 608 l 561 608 l 561 503 l 201 503 l 201 106 l 644 106 l 644 0 l 90 0 m 354 1151 l 164 1238 l 215 1333 l 354 1268 q 427 1301 386 1282 q 496 1335 468 1321 l 540 1236 l 354 1151 z "},"":{"ha":679,"x_min":90,"x_max":589,"o":"m 90 0 l 90 872 l 589 872 l 589 769 l 201 769 l 201 517 l 511 517 l 511 414 l 201 414 l 201 103 l 589 103 l 589 0 l 90 0 m 340 967 l 150 1053 l 201 1149 l 340 1083 q 413 1117 372 1097 q 482 1150 454 1136 l 526 1051 l 340 967 z "},"":{"ha":1242,"x_min":35,"x_max":1207,"o":"m 617 608 l 1207 608 l 1207 529 q 1160 317 1206 417 q 1035 144 1114 218 q 852 28 957 71 q 629 -14 747 -14 l 613 -14 q 388 29 493 -14 q 203 147 282 72 q 80 322 125 222 q 35 536 35 422 q 80 750 35 650 q 203 924 125 850 q 388 1042 282 999 q 613 1085 493 1085 q 836 1040 729 1085 q 1031 917 943 996 l 953 843 q 794 947 881 910 q 613 985 707 985 q 431 949 515 985 q 283 852 346 914 q 183 709 219 790 q 146 536 146 628 q 183 363 146 444 q 283 219 219 281 q 431 122 346 157 q 613 86 515 86 l 629 86 q 804 119 722 86 q 949 208 886 151 q 1049 340 1011 264 q 1094 503 1088 415 l 617 503 l 617 608 m 808 1239 l 764 1142 l 622 1207 q 551 1174 590 1193 q 483 1142 511 1156 l 432 1238 l 622 1324 l 808 1239 z "},"":{"ha":1040,"x_min":35,"x_max":1006,"o":"m 35 436 q 70 617 35 533 q 170 760 106 700 q 324 856 235 821 q 519 890 413 890 q 656 872 592 890 q 769 826 719 853 q 851 774 818 800 q 899 731 885 747 l 826 663 q 779 699 810 678 q 708 741 749 721 q 620 775 668 761 q 519 789 572 789 q 376 765 444 789 q 257 694 308 740 q 175 583 206 649 q 144 436 144 518 q 176 294 144 358 q 260 185 208 231 q 381 113 313 139 q 519 88 449 88 q 653 111 588 88 q 770 178 718 135 q 856 281 822 221 q 894 414 889 342 l 428 414 l 428 517 l 1006 517 l 1006 442 q 964 254 1006 338 q 854 111 922 171 q 699 19 786 51 q 519 -12 611 -12 q 340 19 428 -12 q 185 108 253 50 q 76 249 118 167 q 35 436 35 332 m 707 1054 l 663 957 l 521 1022 q 449 990 489 1008 q 382 957 410 971 l 331 1053 l 521 1139 l 707 1054 z "},"":{"ha":1242,"x_min":35,"x_max":1207,"o":"m 617 608 l 1207 608 l 1207 529 q 1160 317 1206 417 q 1035 144 1114 218 q 852 28 957 71 q 629 -14 747 -14 l 613 -14 q 388 29 493 -14 q 203 147 282 72 q 80 322 125 222 q 35 536 35 422 q 80 750 35 650 q 203 924 125 850 q 388 1042 282 999 q 613 1085 493 1085 q 836 1040 729 1085 q 1031 917 943 996 l 953 843 q 794 947 881 910 q 613 985 707 985 q 431 949 515 985 q 283 852 346 914 q 183 709 219 790 q 146 536 146 628 q 183 363 146 444 q 283 219 219 281 q 431 122 346 157 q 613 86 515 86 l 629 86 q 804 119 722 86 q 949 208 886 151 q 1049 340 1011 264 q 1094 503 1088 415 l 617 503 l 617 608 m 761 1325 q 749 1269 760 1296 q 721 1221 739 1242 q 677 1188 703 1200 q 621 1175 651 1175 q 564 1188 589 1175 q 521 1221 539 1200 q 492 1269 503 1242 q 478 1325 481 1296 l 579 1325 q 594 1288 583 1304 q 621 1271 606 1271 q 647 1288 636 1271 q 663 1325 658 1304 l 761 1325 z "},"":{"ha":1040,"x_min":35,"x_max":1006,"o":"m 35 436 q 70 617 35 533 q 170 760 106 700 q 324 856 235 821 q 519 890 413 890 q 656 872 592 890 q 769 826 719 853 q 851 774 818 800 q 899 731 885 747 l 826 663 q 779 699 810 678 q 708 741 749 721 q 620 775 668 761 q 519 789 572 789 q 376 765 444 789 q 257 694 308 740 q 175 583 206 649 q 144 436 144 518 q 176 294 144 358 q 260 185 208 231 q 381 113 313 139 q 519 88 449 88 q 653 111 588 88 q 770 178 718 135 q 856 281 822 221 q 894 414 889 342 l 428 414 l 428 517 l 1006 517 l 1006 442 q 964 254 1006 338 q 854 111 922 171 q 699 19 786 51 q 519 -12 611 -12 q 340 19 428 -12 q 185 108 253 50 q 76 249 118 167 q 35 436 35 332 m 661 1140 q 649 1084 660 1111 q 621 1036 639 1057 q 577 1003 603 1015 q 521 990 551 990 q 464 1003 489 990 q 421 1036 439 1015 q 392 1084 403 1057 q 378 1140 381 1111 l 479 1140 q 494 1103 483 1119 q 521 1086 506 1086 q 547 1103 536 1086 q 563 1140 558 1119 l 661 1140 z "},"":{"ha":1242,"x_min":35,"x_max":1207,"o":"m 617 608 l 1207 608 l 1207 529 q 1160 317 1206 417 q 1035 144 1114 218 q 852 28 957 71 q 629 -14 747 -14 l 613 -14 q 388 29 493 -14 q 203 147 282 72 q 80 322 125 222 q 35 536 35 422 q 80 750 35 650 q 203 924 125 850 q 388 1042 282 999 q 613 1085 493 1085 q 836 1040 729 1085 q 1031 917 943 996 l 953 843 q 794 947 881 910 q 613 985 707 985 q 431 949 515 985 q 283 852 346 914 q 183 709 219 790 q 146 536 146 628 q 183 363 146 444 q 283 219 219 281 q 431 122 346 157 q 613 86 515 86 l 629 86 q 804 119 722 86 q 949 208 886 151 q 1049 340 1011 264 q 1094 503 1088 415 l 617 503 l 617 608 m 676 1294 l 676 1135 l 565 1135 l 565 1294 l 676 1294 z "},"":{"ha":1040,"x_min":35,"x_max":1006,"o":"m 35 436 q 70 617 35 533 q 170 760 106 700 q 324 856 235 821 q 519 890 413 890 q 656 872 592 890 q 769 826 719 853 q 851 774 818 800 q 899 731 885 747 l 826 663 q 779 699 810 678 q 708 741 749 721 q 620 775 668 761 q 519 789 572 789 q 376 765 444 789 q 257 694 308 740 q 175 583 206 649 q 144 436 144 518 q 176 294 144 358 q 260 185 208 231 q 381 113 313 139 q 519 88 449 88 q 653 111 588 88 q 770 178 718 135 q 856 281 822 221 q 894 414 889 342 l 428 414 l 428 517 l 1006 517 l 1006 442 q 964 254 1006 338 q 854 111 922 171 q 699 19 786 51 q 519 -12 611 -12 q 340 19 428 -12 q 185 108 253 50 q 76 249 118 167 q 35 436 35 332 m 575 1110 l 575 950 l 464 950 l 464 1110 l 575 1110 z "},"":{"ha":956,"x_min":90,"x_max":865,"o":"m 90 0 l 90 1071 l 201 1071 l 201 608 l 754 608 l 754 1071 l 865 1071 l 865 0 l 754 0 l 754 503 l 201 503 l 201 0 l 90 0 m 665 1239 l 621 1142 l 479 1207 q 408 1174 447 1193 q 340 1142 368 1156 l 289 1238 l 479 1324 l 665 1239 z "},"":{"ha":956,"x_min":90,"x_max":865,"o":"m 90 0 l 90 872 l 201 872 l 201 517 l 754 517 l 754 872 l 865 872 l 865 0 l 754 0 l 754 414 l 201 414 l 201 0 l 90 0 m 665 1054 l 621 957 l 479 1022 q 408 990 447 1008 q 340 957 368 971 l 289 1053 l 479 1139 l 665 1054 z "},"":{"ha":292,"x_min":-46,"x_max":335,"o":"m 201 1071 l 201 0 l 90 0 l 90 1071 l 201 1071 m 169 1175 q 93 1144 138 1144 q 30 1163 65 1144 q -46 1218 -6 1182 l 33 1276 q 60 1256 46 1265 q 86 1246 75 1246 q 119 1261 104 1246 q 201 1294 157 1294 q 262 1277 229 1294 q 335 1222 294 1260 l 263 1157 q 207 1192 231 1192 q 169 1175 186 1192 z "},"":{"ha":292,"x_min":-46,"x_max":335,"o":"m 201 872 l 201 0 l 90 0 l 90 872 l 201 872 m 169 990 q 93 960 138 960 q 30 978 65 960 q -46 1033 -6 997 l 33 1092 q 60 1071 46 1081 q 86 1061 75 1061 q 119 1076 104 1061 q 201 1110 157 1110 q 262 1092 229 1110 q 335 1038 294 1075 l 263 972 q 207 1007 231 1007 q 169 990 186 1007 z "},"":{"ha":292,"x_min":-15,"x_max":201,"o":"m 90 1071 l 201 1071 l 201 -110 l 139 -111 q 113 -125 122 -115 q 103 -146 103 -135 q 119 -168 103 -157 q 167 -185 135 -179 l 167 -282 q 103 -273 136 -281 q 44 -250 71 -265 q 1 -210 18 -235 q -15 -147 -15 -185 q 15 -62 -15 -94 q 89 -18 44 -29 q 90 4 89 -7 q 90 26 90 15 l 90 1071 z "},"":{"ha":289,"x_min":-14,"x_max":201,"o":"m 201 872 l 201 -107 l 138 -108 q 107 -142 107 -115 q 165 -179 107 -171 l 165 -274 q 103 -262 135 -272 q 45 -235 71 -253 q 3 -194 19 -218 q -14 -142 -14 -171 q 16 -60 -14 -92 q 90 -17 46 -28 l 90 872 l 201 872 z "},"":{"ha":292,"x_min":90,"x_max":201,"o":"m 201 1071 l 201 0 l 90 0 l 90 1071 l 201 1071 m 201 1294 l 201 1135 l 90 1135 l 90 1294 l 201 1294 z "},"":{"ha":568,"x_min":49,"x_max":478,"o":"m 49 1071 l 478 1071 l 478 217 q 446 103 478 146 q 366 38 414 61 q 264 8 318 15 q 164 0 210 0 l 164 106 q 228 109 193 106 q 294 124 263 113 q 346 159 325 136 q 367 219 367 182 l 367 965 l 49 965 l 49 1071 m 471 1239 l 426 1142 l 285 1207 q 213 1174 253 1193 q 146 1142 174 1156 l 94 1238 l 285 1324 l 471 1239 z "},"":{"ha":467,"x_min":35,"x_max":421,"o":"m 35 872 l 376 872 l 376 210 q 344 100 376 142 q 265 36 313 58 q 163 7 218 14 q 63 0 108 0 l 63 101 q 127 105 92 101 q 193 120 163 108 q 244 153 224 132 q 265 213 265 175 l 265 769 l 35 769 l 35 872 m 421 1054 l 376 957 l 235 1022 q 163 990 203 1008 q 96 957 124 971 l 44 1053 l 235 1139 l 421 1054 z "},"":{"ha":693,"x_min":11,"x_max":644,"o":"m 644 106 l 644 0 l 90 0 l 90 1071 l 201 1071 l 201 106 l 644 106 m 299 1164 l 65 1047 l 11 1140 l 242 1257 l 299 1164 z "},"":{"ha":636,"x_min":11,"x_max":588,"o":"m 588 103 l 588 0 l 90 0 l 90 872 l 201 872 l 201 103 l 588 103 m 299 1017 l 65 900 l 11 993 l 242 1110 l 299 1017 z "},"":{"ha":919,"x_min":90,"x_max":829,"o":"m 90 0 l 90 1071 l 185 1071 l 718 544 l 718 1071 l 829 1071 l 829 0 l 718 0 l 718 393 l 201 900 l 201 0 l 90 0 m 603 1200 l 369 1083 l 315 1176 l 546 1293 l 603 1200 z "},"":{"ha":863,"x_min":90,"x_max":772,"o":"m 90 0 l 90 872 l 186 872 l 661 463 l 661 872 l 772 872 l 772 0 l 661 0 l 661 321 l 201 717 l 201 0 l 90 0 m 603 1015 l 369 899 l 315 992 l 546 1108 l 603 1015 z "},"":{"ha":919,"x_min":90,"x_max":829,"o":"m 90 0 l 90 1071 l 185 1071 l 718 544 l 718 1071 l 829 1071 l 829 0 l 718 0 l 718 393 l 201 900 l 201 0 l 90 0 m 461 1151 l 271 1238 l 322 1333 l 461 1268 q 534 1301 493 1282 q 603 1335 575 1321 l 647 1236 l 461 1151 z "},"":{"ha":863,"x_min":90,"x_max":772,"o":"m 90 0 l 90 872 l 186 872 l 661 463 l 661 872 l 772 872 l 772 0 l 661 0 l 661 321 l 201 717 l 201 0 l 90 0 m 460 967 l 269 1053 l 321 1149 l 460 1083 q 533 1117 492 1097 q 601 1150 574 1136 l 646 1051 l 460 967 z "},"":{"ha":1225,"x_min":35,"x_max":1190,"o":"m 613 1085 q 838 1042 732 1085 q 1022 924 943 999 q 1145 750 1100 850 q 1190 536 1190 650 q 1145 322 1190 422 q 1022 147 1100 222 q 838 29 943 72 q 613 -14 732 -14 q 388 29 493 -14 q 205 147 283 72 q 81 322 126 222 q 35 536 35 422 q 81 750 35 650 q 205 924 126 850 q 388 1042 283 999 q 613 1085 493 1085 m 613 92 q 793 127 708 92 q 942 223 878 163 q 1042 364 1006 283 q 1079 536 1079 444 q 1042 707 1079 626 q 942 848 1006 788 q 793 944 878 908 q 613 979 708 979 q 433 944 517 979 q 285 848 349 908 q 184 707 221 788 q 147 536 147 626 q 184 364 147 444 q 285 223 221 283 q 433 127 349 163 q 613 92 517 92 m 753 1325 q 741 1269 751 1296 q 713 1221 731 1242 q 669 1188 694 1200 q 613 1175 643 1175 q 556 1188 581 1175 q 513 1221 531 1200 q 483 1269 494 1242 q 469 1325 472 1296 l 571 1325 q 586 1288 575 1304 q 613 1271 597 1271 q 639 1288 628 1271 q 654 1325 650 1304 l 753 1325 z "},"":{"ha":1040,"x_min":35,"x_max":1006,"o":"m 521 885 q 703 853 615 885 q 858 764 790 822 q 965 622 925 706 q 1006 436 1006 539 q 965 249 1006 332 q 858 108 925 167 q 703 19 790 50 q 521 -12 615 -12 q 338 19 426 -12 q 183 108 250 50 q 75 249 115 167 q 35 436 35 332 q 75 622 35 539 q 183 764 115 706 q 338 853 250 822 q 521 885 426 885 m 521 782 q 379 758 447 782 q 259 689 311 733 q 176 581 207 644 q 146 436 146 517 q 176 292 146 356 q 259 183 207 228 q 379 114 311 138 q 521 90 447 90 q 662 114 594 90 q 781 183 729 138 q 864 292 833 228 q 894 436 894 356 q 864 581 894 517 q 781 689 833 644 q 662 758 729 733 q 521 782 594 782 m 661 1140 q 649 1084 660 1111 q 621 1036 639 1057 q 577 1003 603 1015 q 521 990 551 990 q 464 1003 489 990 q 421 1036 439 1015 q 392 1084 403 1057 q 378 1140 381 1111 l 479 1140 q 494 1103 483 1119 q 521 1086 506 1086 q 547 1103 536 1086 q 563 1140 558 1119 l 661 1140 z "},"":{"ha":1225,"x_min":35,"x_max":1190,"o":"m 875 1214 l 642 1097 l 600 1168 l 460 1097 l 406 1190 l 636 1307 l 679 1236 l 818 1307 l 875 1214 m 613 1085 q 838 1042 732 1085 q 1022 924 943 999 q 1145 750 1100 850 q 1190 536 1190 650 q 1145 322 1190 422 q 1022 147 1100 222 q 838 29 943 72 q 613 -14 732 -14 q 388 29 493 -14 q 205 147 283 72 q 81 322 126 222 q 35 536 35 422 q 81 750 35 650 q 205 924 126 850 q 388 1042 283 999 q 613 1085 493 1085 m 613 92 q 793 127 708 92 q 942 223 878 163 q 1042 364 1006 283 q 1079 536 1079 444 q 1042 707 1079 626 q 942 848 1006 788 q 793 944 878 908 q 613 979 708 979 q 433 944 517 979 q 285 848 349 908 q 184 707 221 788 q 147 536 147 626 q 184 364 147 444 q 285 223 221 283 q 433 127 349 163 q 613 92 517 92 z "},"":{"ha":1040,"x_min":35,"x_max":1006,"o":"m 768 1029 l 535 913 l 493 983 l 353 913 l 299 1006 l 529 1122 l 572 1051 l 711 1122 l 768 1029 m 521 885 q 703 853 615 885 q 858 764 790 822 q 965 622 925 706 q 1006 436 1006 539 q 965 249 1006 332 q 858 108 925 167 q 703 19 790 50 q 521 -12 615 -12 q 338 19 426 -12 q 183 108 250 50 q 75 249 115 167 q 35 436 35 332 q 75 622 35 539 q 183 764 115 706 q 338 853 250 822 q 521 885 426 885 m 521 782 q 379 758 447 782 q 259 689 311 733 q 176 581 207 644 q 146 436 146 517 q 176 292 146 356 q 259 183 207 228 q 379 114 311 138 q 521 90 447 90 q 662 114 594 90 q 781 183 729 138 q 864 292 833 228 q 894 436 894 356 q 864 581 894 517 q 781 689 833 644 q 662 758 729 733 q 521 782 594 782 z "},"":{"ha":885,"x_min":90,"x_max":850,"o":"m 399 1071 q 544 1044 476 1071 q 663 969 613 1017 q 743 856 714 921 q 772 718 772 792 q 756 612 772 663 q 708 518 739 561 q 636 442 678 475 q 543 389 594 408 l 850 0 l 713 0 l 425 363 q 412 361 418 361 q 399 361 406 361 l 201 361 l 201 0 l 90 0 l 90 1071 l 399 1071 m 201 965 l 201 468 l 399 468 q 501 488 453 468 q 584 541 549 507 q 640 621 619 575 q 661 719 661 667 q 641 817 661 772 q 585 895 621 863 q 502 947 550 928 q 400 965 454 965 l 201 965 m 531 1200 l 297 1083 l 243 1176 l 474 1293 l 531 1200 z "},"":{"ha":788,"x_min":90,"x_max":776,"o":"m 721 568 q 703 465 721 513 q 656 379 686 417 q 583 315 625 342 q 489 275 540 288 q 560 207 522 243 q 635 135 597 171 q 710 64 674 99 q 776 0 746 29 l 622 0 l 354 264 l 201 264 l 201 0 l 90 0 l 90 872 l 335 872 q 490 851 419 872 q 613 790 561 829 q 692 694 664 750 q 721 568 721 638 m 610 568 q 588 652 610 615 q 531 715 567 689 q 447 756 494 742 q 346 769 399 769 l 201 769 l 201 367 l 394 367 q 484 383 444 367 q 551 426 524 399 q 594 490 579 453 q 610 568 610 526 m 510 1015 l 276 899 l 222 992 l 453 1108 l 510 1015 z "},"":{"ha":885,"x_min":90,"x_max":850,"o":"m 399 1071 q 544 1044 476 1071 q 663 969 613 1017 q 743 856 714 921 q 772 718 772 792 q 756 612 772 663 q 708 518 739 561 q 636 442 678 475 q 543 389 594 408 l 850 0 l 713 0 l 425 363 q 412 361 418 361 q 399 361 406 361 l 201 361 l 201 0 l 90 0 l 90 1071 l 399 1071 m 201 965 l 201 468 l 399 468 q 501 488 453 468 q 584 541 549 507 q 640 621 619 575 q 661 719 661 667 q 641 817 661 772 q 585 895 621 863 q 502 947 550 928 q 400 965 454 965 l 201 965 m 385 1151 l 194 1238 l 246 1333 l 385 1268 q 458 1301 417 1282 q 526 1335 499 1321 l 571 1236 l 385 1151 z "},"":{"ha":788,"x_min":90,"x_max":776,"o":"m 721 568 q 703 465 721 513 q 656 379 686 417 q 583 315 625 342 q 489 275 540 288 q 560 207 522 243 q 635 135 597 171 q 710 64 674 99 q 776 0 746 29 l 622 0 l 354 264 l 201 264 l 201 0 l 90 0 l 90 872 l 335 872 q 490 851 419 872 q 613 790 561 829 q 692 694 664 750 q 721 568 721 638 m 610 568 q 588 652 610 615 q 531 715 567 689 q 447 756 494 742 q 346 769 399 769 l 201 769 l 201 367 l 394 367 q 484 383 444 367 q 551 426 524 399 q 594 490 579 453 q 610 568 610 526 m 339 967 l 149 1053 l 200 1149 l 339 1083 q 412 1117 371 1097 q 481 1150 453 1136 l 525 1051 l 339 967 z "},"":{"ha":819,"x_min":40,"x_max":771,"o":"m 426 603 q 681 489 590 567 q 771 290 771 411 q 738 163 771 217 q 649 72 704 108 q 521 17 593 35 q 369 -1 449 -1 q 237 15 296 -1 q 135 51 178 31 q 69 90 93 71 q 40 113 44 108 l 115 193 q 140 174 119 189 q 194 144 160 160 q 277 115 229 128 q 382 103 325 103 q 492 116 442 103 q 581 153 543 129 q 639 213 618 178 q 660 290 660 247 q 583 424 660 369 q 357 511 506 479 l 357 510 q 143 616 217 540 q 69 796 69 692 q 98 915 69 861 q 174 1006 126 968 q 286 1064 222 1043 q 419 1085 350 1085 q 566 1062 486 1085 q 704 993 646 1039 l 636 914 q 528 963 576 947 q 428 979 481 979 q 324 965 369 979 q 246 924 278 950 q 197 864 214 899 q 181 788 181 829 q 199 715 181 746 q 251 664 218 685 q 328 628 283 643 q 426 603 374 614 m 567 1200 l 333 1083 l 279 1176 l 510 1293 l 567 1200 z "},"":{"ha":790,"x_min":43,"x_max":744,"o":"m 414 494 q 538 461 478 481 q 644 410 599 442 q 717 335 690 379 q 740 226 744 290 q 699 114 736 160 q 605 40 663 68 q 476 -1 547 11 q 333 -8 406 -12 q 211 15 264 -4 q 123 58 158 35 q 67 101 88 81 q 43 129 47 122 l 107 181 q 168 138 133 157 q 238 105 197 121 q 331 86 279 89 q 446 94 392 85 q 541 123 500 104 q 606 168 582 142 q 632 226 631 194 q 612 292 633 264 q 551 342 590 321 q 460 380 513 364 q 346 410 407 396 q 235 441 286 422 q 146 488 183 460 q 88 556 108 517 q 71 650 68 596 q 103 751 75 706 q 177 826 131 796 q 286 870 224 856 q 421 881 349 885 q 522 863 475 876 q 603 835 568 850 q 660 806 638 819 q 689 786 682 792 l 618 706 q 556 740 589 725 q 492 766 528 754 q 418 781 456 778 q 325 776 368 783 q 250 751 282 768 q 199 707 218 733 q 179 646 181 681 q 197 584 176 608 q 252 543 218 560 q 329 515 286 526 q 414 494 372 504 m 539 1015 l 306 899 l 251 992 l 482 1108 l 539 1015 z "},"":{"ha":819,"x_min":40,"x_max":771,"o":"m 426 603 q 681 489 590 567 q 771 290 771 411 q 738 163 771 217 q 649 72 704 108 q 521 17 593 35 q 369 -1 449 -1 q 237 15 296 -1 q 135 51 178 31 q 69 90 93 71 q 40 113 44 108 l 115 193 q 140 174 119 189 q 194 144 160 160 q 277 115 229 128 q 382 103 325 103 q 492 116 442 103 q 581 153 543 129 q 639 213 618 178 q 660 290 660 247 q 583 424 660 369 q 357 511 506 479 l 357 510 q 143 616 217 540 q 69 796 69 692 q 98 915 69 861 q 174 1006 126 968 q 286 1064 222 1043 q 419 1085 350 1085 q 566 1062 486 1085 q 704 993 646 1039 l 636 914 q 528 963 576 947 q 428 979 481 979 q 324 965 369 979 q 246 924 278 950 q 197 864 214 899 q 181 788 181 829 q 199 715 181 746 q 251 664 218 685 q 328 628 283 643 q 426 603 374 614 m 597 1239 l 553 1142 l 411 1207 q 340 1174 379 1193 q 272 1142 300 1156 l 221 1238 l 411 1324 l 597 1239 z "},"":{"ha":790,"x_min":43,"x_max":744,"o":"m 414 494 q 538 461 478 481 q 644 410 599 442 q 717 335 690 379 q 740 226 744 290 q 699 114 736 160 q 605 40 663 68 q 476 -1 547 11 q 333 -8 406 -12 q 211 15 264 -4 q 123 58 158 35 q 67 101 88 81 q 43 129 47 122 l 107 181 q 168 138 133 157 q 238 105 197 121 q 331 86 279 89 q 446 94 392 85 q 541 123 500 104 q 606 168 582 142 q 632 226 631 194 q 612 292 633 264 q 551 342 590 321 q 460 380 513 364 q 346 410 407 396 q 235 441 286 422 q 146 488 183 460 q 88 556 108 517 q 71 650 68 596 q 103 751 75 706 q 177 826 131 796 q 286 870 224 856 q 421 881 349 885 q 522 863 475 876 q 603 835 568 850 q 660 806 638 819 q 689 786 682 792 l 618 706 q 556 740 589 725 q 492 766 528 754 q 418 781 456 778 q 325 776 368 783 q 250 751 282 768 q 199 707 218 733 q 179 646 181 681 q 197 584 176 608 q 252 543 218 560 q 329 515 286 526 q 414 494 372 504 m 582 1054 l 538 957 l 396 1022 q 324 990 364 1008 q 257 957 285 971 l 206 1053 l 396 1139 l 582 1054 z "},"":{"ha":819,"x_min":40,"x_max":771,"o":"m 426 603 q 681 489 590 567 q 771 290 771 411 q 738 163 771 217 q 649 72 704 108 q 521 17 593 35 q 369 -1 449 -1 q 237 15 296 -1 q 135 51 178 31 q 69 90 93 71 q 40 113 44 108 l 115 193 q 140 174 119 189 q 194 144 160 160 q 277 115 229 128 q 382 103 325 103 q 492 116 442 103 q 581 153 543 129 q 639 213 618 178 q 660 290 660 247 q 583 424 660 369 q 357 511 506 479 l 357 510 q 143 616 217 540 q 69 796 69 692 q 98 915 69 861 q 174 1006 126 968 q 286 1064 222 1043 q 419 1085 350 1085 q 566 1062 486 1085 q 704 993 646 1039 l 636 914 q 528 963 576 947 q 428 979 481 979 q 324 965 369 979 q 246 924 278 950 q 197 864 214 899 q 181 788 181 829 q 199 715 181 746 q 251 664 218 685 q 328 628 283 643 q 426 603 374 614 m 411 1151 l 221 1238 l 272 1333 l 411 1268 q 484 1301 443 1282 q 553 1335 525 1321 l 597 1236 l 411 1151 z "},"":{"ha":790,"x_min":43,"x_max":744,"o":"m 414 494 q 538 461 478 481 q 644 410 599 442 q 717 335 690 379 q 740 226 744 290 q 699 114 736 160 q 605 40 663 68 q 476 -1 547 11 q 333 -8 406 -12 q 211 15 264 -4 q 123 58 158 35 q 67 101 88 81 q 43 129 47 122 l 107 181 q 168 138 133 157 q 238 105 197 121 q 331 86 279 89 q 446 94 392 85 q 541 123 500 104 q 606 168 582 142 q 632 226 631 194 q 612 292 633 264 q 551 342 590 321 q 460 380 513 364 q 346 410 407 396 q 235 441 286 422 q 146 488 183 460 q 88 556 108 517 q 71 650 68 596 q 103 751 75 706 q 177 826 131 796 q 286 870 224 856 q 421 881 349 885 q 522 863 475 876 q 603 835 568 850 q 660 806 638 819 q 689 786 682 792 l 618 706 q 556 740 589 725 q 492 766 528 754 q 418 781 456 778 q 325 776 368 783 q 250 751 282 768 q 199 707 218 733 q 179 646 181 681 q 197 584 176 608 q 252 543 218 560 q 329 515 286 526 q 414 494 372 504 m 396 967 l 206 1053 l 257 1149 l 396 1083 q 469 1117 428 1097 q 538 1150 510 1136 l 582 1051 l 396 967 z "},"":{"ha":846,"x_min":49,"x_max":797,"o":"m 49 1071 l 797 1071 l 797 965 l 478 965 l 478 0 l 367 0 l 367 965 l 49 965 l 49 1071 m 424 1151 l 233 1238 l 285 1333 l 424 1268 q 497 1301 456 1282 q 565 1335 538 1321 l 610 1236 l 424 1151 z "},"":{"ha":864,"x_min":90,"x_max":774,"o":"m 774 1071 l 774 292 q 748 167 774 222 q 678 72 722 111 q 572 10 633 32 q 439 -11 510 -11 q 303 10 367 -11 q 193 72 240 32 q 118 167 146 111 q 90 292 90 222 l 90 1071 l 201 1071 l 201 294 q 219 216 201 253 q 269 152 238 179 q 344 109 301 125 q 439 93 388 93 q 530 108 489 93 q 601 149 571 122 q 647 213 631 175 q 663 294 663 250 l 663 1071 l 774 1071 m 454 1175 q 378 1144 422 1144 q 315 1163 350 1144 q 239 1218 279 1182 l 318 1276 q 345 1256 331 1265 q 371 1246 360 1246 q 404 1261 389 1246 q 486 1294 442 1294 q 547 1277 514 1294 q 619 1222 579 1260 l 547 1157 q 492 1192 515 1192 q 454 1175 471 1192 z "},"":{"ha":865,"x_min":90,"x_max":775,"o":"m 775 872 l 775 285 q 747 163 775 217 q 670 70 718 108 q 561 11 622 32 q 436 -10 500 -10 q 303 11 367 -10 q 193 70 240 32 q 118 163 146 108 q 90 285 90 218 l 90 872 l 201 872 l 201 286 q 220 210 201 246 q 271 149 239 175 q 345 108 303 122 q 435 93 388 93 q 526 108 485 93 q 599 148 568 122 q 647 209 629 174 q 664 286 664 244 l 664 872 l 775 872 m 456 990 q 379 960 424 960 q 316 978 351 960 q 240 1033 281 997 l 319 1092 q 347 1071 332 1081 q 372 1061 361 1061 q 406 1076 390 1061 q 488 1110 443 1110 q 548 1092 515 1110 q 621 1038 581 1075 l 549 972 q 493 1007 517 1007 q 456 990 472 1007 z "},"":{"ha":864,"x_min":90,"x_max":774,"o":"m 774 1071 l 774 292 q 748 167 774 222 q 678 72 722 111 q 572 10 633 32 q 439 -11 510 -11 q 303 10 367 -11 q 193 72 240 32 q 118 167 146 111 q 90 292 90 222 l 90 1071 l 201 1071 l 201 294 q 219 216 201 253 q 269 152 238 179 q 344 109 301 125 q 439 93 388 93 q 530 108 489 93 q 601 149 571 122 q 647 213 631 175 q 663 294 663 250 l 663 1071 l 774 1071 m 586 1325 q 574 1269 585 1296 q 546 1221 564 1242 q 502 1188 528 1200 q 446 1175 476 1175 q 389 1188 414 1175 q 346 1221 364 1200 q 317 1269 328 1242 q 303 1325 306 1296 l 404 1325 q 419 1288 408 1304 q 446 1271 431 1271 q 472 1288 461 1271 q 488 1325 483 1304 l 586 1325 z "},"":{"ha":865,"x_min":90,"x_max":775,"o":"m 775 872 l 775 285 q 747 163 775 217 q 670 70 718 108 q 561 11 622 32 q 436 -10 500 -10 q 303 11 367 -10 q 193 70 240 32 q 118 163 146 108 q 90 285 90 218 l 90 872 l 201 872 l 201 286 q 220 210 201 246 q 271 149 239 175 q 345 108 303 122 q 435 93 388 93 q 526 108 485 93 q 599 148 568 122 q 647 209 629 174 q 664 286 664 244 l 664 872 l 775 872 m 588 1140 q 576 1084 586 1111 q 547 1036 565 1057 q 503 1003 529 1015 q 447 990 478 990 q 390 1003 415 990 q 347 1036 365 1015 q 318 1084 329 1057 q 304 1140 307 1111 l 406 1140 q 421 1103 410 1119 q 447 1086 432 1086 q 474 1103 463 1086 q 489 1140 485 1119 l 588 1140 z "},"":{"ha":864,"x_min":90,"x_max":774,"o":"m 774 1071 l 774 292 q 748 167 774 222 q 678 72 722 111 q 572 10 633 32 q 439 -11 510 -11 q 303 10 367 -11 q 193 72 240 32 q 118 167 146 111 q 90 292 90 222 l 90 1071 l 201 1071 l 201 294 q 219 216 201 253 q 269 152 238 179 q 344 109 301 125 q 439 93 388 93 q 530 108 489 93 q 601 149 571 122 q 647 213 631 175 q 663 294 663 250 l 663 1071 l 774 1071 m 446 1311 q 525 1281 497 1311 q 553 1213 553 1250 q 525 1142 553 1174 q 446 1110 497 1110 q 367 1142 397 1110 q 338 1213 338 1174 q 367 1281 338 1250 q 446 1311 397 1311 m 446 1203 q 456 1213 456 1203 q 446 1222 456 1222 q 436 1213 436 1222 q 446 1203 436 1203 z "},"":{"ha":865,"x_min":90,"x_max":775,"o":"m 775 872 l 775 285 q 747 163 775 217 q 670 70 718 108 q 561 11 622 32 q 436 -10 500 -10 q 303 11 367 -10 q 193 70 240 32 q 118 163 146 108 q 90 285 90 218 l 90 872 l 201 872 l 201 286 q 220 210 201 246 q 271 149 239 175 q 345 108 303 122 q 435 93 388 93 q 526 108 485 93 q 599 148 568 122 q 647 209 629 174 q 664 286 664 244 l 664 872 l 775 872 m 446 1126 q 525 1096 497 1126 q 553 1028 553 1065 q 525 957 553 989 q 446 925 497 925 q 367 957 397 925 q 338 1028 338 989 q 367 1096 338 1065 q 446 1126 397 1126 m 446 1018 q 456 1028 456 1018 q 446 1038 456 1038 q 436 1028 436 1038 q 446 1018 436 1018 z "},"":{"ha":864,"x_min":90,"x_max":774,"o":"m 694 1214 l 461 1097 l 419 1168 l 279 1097 l 225 1190 l 456 1307 l 499 1236 l 638 1307 l 694 1214 m 774 1071 l 774 292 q 748 167 774 222 q 678 72 722 111 q 572 10 633 32 q 439 -11 510 -11 q 303 10 367 -11 q 193 72 240 32 q 118 167 146 111 q 90 292 90 222 l 90 1071 l 201 1071 l 201 294 q 219 216 201 253 q 269 152 238 179 q 344 109 301 125 q 439 93 388 93 q 530 108 489 93 q 601 149 571 122 q 647 213 631 175 q 663 294 663 250 l 663 1071 l 774 1071 z "},"":{"ha":865,"x_min":90,"x_max":775,"o":"m 694 1029 l 461 913 l 419 983 l 279 913 l 225 1006 l 456 1122 l 499 1051 l 638 1122 l 694 1029 m 775 872 l 775 285 q 747 163 775 217 q 670 70 718 108 q 561 11 622 32 q 436 -10 500 -10 q 303 11 367 -10 q 193 70 240 32 q 118 163 146 108 q 90 285 90 218 l 90 872 l 201 872 l 201 286 q 220 210 201 246 q 271 149 239 175 q 345 108 303 122 q 435 93 388 93 q 526 108 485 93 q 599 148 568 122 q 647 209 629 174 q 664 286 664 244 l 664 872 l 775 872 z "},"":{"ha":864,"x_min":90,"x_max":774,"o":"m 774 1071 l 774 292 q 752 176 774 228 q 693 85 731 124 q 603 24 656 47 q 489 -7 551 0 l 489 -119 l 425 -121 q 403 -133 411 -124 q 394 -154 394 -142 q 453 -193 394 -185 l 453 -290 q 391 -278 419 -289 q 340 -250 363 -268 q 306 -208 318 -232 q 293 -154 293 -183 q 323 -70 293 -103 q 397 -26 353 -37 l 397 -10 q 274 19 331 -4 q 177 82 218 43 q 113 174 136 121 q 90 292 90 226 l 90 1071 l 201 1071 l 201 294 q 219 216 201 253 q 269 152 238 179 q 344 109 301 125 q 439 93 388 93 q 530 108 489 93 q 601 149 571 122 q 647 213 631 175 q 663 294 663 250 l 663 1071 l 774 1071 z "},"":{"ha":865,"x_min":90,"x_max":775,"o":"m 775 872 l 775 285 q 752 179 775 228 q 691 94 729 131 q 603 31 653 57 q 501 -6 554 6 l 501 -112 l 438 -114 q 407 -147 407 -121 q 465 -185 407 -179 l 465 -281 q 403 -269 432 -279 q 353 -241 375 -258 q 318 -200 331 -224 q 306 -147 306 -176 q 335 -66 306 -97 q 408 -24 364 -35 l 408 -8 q 285 18 343 -4 q 183 78 226 40 q 115 168 140 115 q 90 285 90 221 l 90 872 l 201 872 l 201 286 q 220 210 201 246 q 271 149 239 175 q 345 108 303 122 q 435 93 388 93 q 526 108 485 93 q 599 148 568 122 q 647 209 629 174 q 664 286 664 244 l 664 872 l 775 872 z "},"":{"ha":1271,"x_min":11,"x_max":1260,"o":"m 424 0 l 371 0 l 11 1071 l 128 1071 l 399 265 l 576 792 l 483 1071 l 600 1071 l 635 965 q 654 1020 644 993 q 671 1071 664 1047 l 788 1071 l 693 790 q 739 653 718 717 q 781 529 760 590 q 823 404 801 468 q 869 265 844 340 q 1006 669 936 464 q 1143 1071 1076 875 l 1260 1071 l 896 0 l 843 0 l 636 621 l 424 0 m 822 1239 l 778 1142 l 636 1207 q 565 1174 604 1193 q 497 1142 525 1156 l 446 1238 l 636 1324 l 822 1239 z "},"":{"ha":1101,"x_min":10,"x_max":1092,"o":"m 321 0 l 10 872 l 126 872 l 349 253 q 420 456 385 356 q 493 658 456 556 l 417 872 l 532 872 l 551 821 l 569 872 l 685 872 l 608 657 q 647 549 629 597 q 681 456 664 501 q 715 362 697 410 q 753 254 732 314 q 865 564 808 410 q 976 872 921 718 l 1092 872 l 779 0 l 726 0 l 550 494 l 374 0 l 321 0 m 738 1054 l 693 957 l 551 1022 q 480 990 519 1008 q 413 957 440 971 l 361 1053 l 551 1139 l 738 1054 z "},"":{"ha":747,"x_min":14,"x_max":733,"o":"m 431 0 l 319 0 l 319 585 l 14 1071 l 143 1071 l 375 696 q 492 883 433 788 q 607 1071 551 979 l 733 1071 l 431 579 l 431 0 m 561 1239 l 517 1142 l 375 1207 q 303 1174 343 1193 q 236 1142 264 1156 l 185 1238 l 375 1324 l 561 1239 z "},"":{"ha":656,"x_min":15,"x_max":640,"o":"m 272 0 l 272 435 q 210 540 243 485 q 143 653 176 596 q 77 767 110 711 q 15 872 44 822 l 142 872 l 328 557 l 514 872 l 640 872 l 383 435 l 383 0 l 272 0 m 515 1054 l 471 957 l 329 1022 q 258 990 297 1008 q 190 957 218 971 l 139 1053 l 329 1139 l 515 1054 z "},"":{"ha":689,"x_min":49,"x_max":640,"o":"m 640 0 l 51 0 l 450 965 l 49 965 l 49 1071 l 614 1071 l 215 106 l 640 106 l 640 0 m 488 1200 l 254 1083 l 200 1176 l 431 1293 l 488 1200 z "},"":{"ha":642,"x_min":33,"x_max":594,"o":"m 593 0 l 33 0 l 422 769 l 58 769 l 58 872 l 594 872 l 207 103 l 593 103 l 593 0 m 464 1015 l 231 899 l 176 992 l 407 1108 l 464 1015 z "},"":{"ha":689,"x_min":49,"x_max":640,"o":"m 640 0 l 51 0 l 450 965 l 49 965 l 49 1071 l 614 1071 l 215 106 l 640 106 l 640 0 m 400 1294 l 400 1135 l 289 1135 l 289 1294 l 400 1294 z "},"":{"ha":642,"x_min":33,"x_max":594,"o":"m 593 0 l 33 0 l 422 769 l 58 769 l 58 872 l 594 872 l 207 103 l 593 103 l 593 0 m 376 1110 l 376 950 l 265 950 l 265 1110 l 376 1110 z "},"":{"ha":689,"x_min":49,"x_max":640,"o":"m 640 0 l 51 0 l 450 965 l 49 965 l 49 1071 l 614 1071 l 215 106 l 640 106 l 640 0 m 346 1151 l 156 1238 l 207 1333 l 346 1268 q 419 1301 378 1282 q 488 1335 460 1321 l 532 1236 l 346 1151 z "},"":{"ha":642,"x_min":33,"x_max":594,"o":"m 593 0 l 33 0 l 422 769 l 58 769 l 58 872 l 594 872 l 207 103 l 593 103 l 593 0 m 322 967 l 132 1053 l 183 1149 l 322 1083 q 395 1117 354 1097 q 464 1150 436 1136 l 508 1051 l 322 967 z "},"":{"ha":1271,"x_min":11,"x_max":1260,"o":"m 424 0 l 371 0 l 11 1071 l 128 1071 l 399 265 l 576 792 l 483 1071 l 600 1071 l 635 965 q 654 1020 644 993 q 671 1071 664 1047 l 788 1071 l 693 790 q 739 653 718 717 q 781 529 760 590 q 823 404 801 468 q 869 265 844 340 q 1006 669 936 464 q 1143 1071 1076 875 l 1260 1071 l 896 0 l 843 0 l 636 621 l 424 0 m 731 1113 l 488 1226 l 538 1324 l 782 1211 l 731 1113 z "},"":{"ha":1101,"x_min":10,"x_max":1092,"o":"m 321 0 l 10 872 l 126 872 l 349 253 q 420 456 385 356 q 493 658 456 556 l 417 872 l 532 872 l 551 821 l 569 872 l 685 872 l 608 657 q 647 549 629 597 q 681 456 664 501 q 715 362 697 410 q 753 254 732 314 q 865 564 808 410 q 976 872 921 718 l 1092 872 l 779 0 l 726 0 l 550 494 l 374 0 l 321 0 m 646 928 l 403 1042 l 453 1139 l 697 1026 l 646 928 z "},"":{"ha":1271,"x_min":11,"x_max":1260,"o":"m 424 0 l 371 0 l 11 1071 l 128 1071 l 399 265 l 576 792 l 483 1071 l 600 1071 l 635 965 q 654 1020 644 993 q 671 1071 664 1047 l 788 1071 l 693 790 q 739 653 718 717 q 781 529 760 590 q 823 404 801 468 q 869 265 844 340 q 1006 669 936 464 q 1143 1071 1076 875 l 1260 1071 l 896 0 l 843 0 l 636 621 l 424 0 m 779 1200 l 546 1083 l 492 1176 l 722 1293 l 779 1200 z "},"":{"ha":1101,"x_min":10,"x_max":1092,"o":"m 321 0 l 10 872 l 126 872 l 349 253 q 420 456 385 356 q 493 658 456 556 l 417 872 l 532 872 l 551 821 l 569 872 l 685 872 l 608 657 q 647 549 629 597 q 681 456 664 501 q 715 362 697 410 q 753 254 732 314 q 865 564 808 410 q 976 872 921 718 l 1092 872 l 779 0 l 726 0 l 550 494 l 374 0 l 321 0 m 694 1015 l 461 899 l 407 992 l 638 1108 l 694 1015 z "},"":{"ha":1271,"x_min":11,"x_max":1260,"o":"m 424 0 l 371 0 l 11 1071 l 128 1071 l 399 265 l 576 792 l 483 1071 l 600 1071 l 635 965 q 654 1020 644 993 q 671 1071 664 1047 l 788 1071 l 693 790 q 739 653 718 717 q 781 529 760 590 q 823 404 801 468 q 869 265 844 340 q 1006 669 936 464 q 1143 1071 1076 875 l 1260 1071 l 896 0 l 843 0 l 636 621 l 424 0 m 615 1297 l 615 1138 l 504 1138 l 504 1297 l 615 1297 m 767 1297 l 767 1138 l 654 1138 l 654 1297 l 767 1297 z "},"":{"ha":1101,"x_min":10,"x_max":1092,"o":"m 321 0 l 10 872 l 126 872 l 349 253 q 420 456 385 356 q 493 658 456 556 l 417 872 l 532 872 l 551 821 l 569 872 l 685 872 l 608 657 q 647 549 629 597 q 681 456 664 501 q 715 362 697 410 q 753 254 732 314 q 865 564 808 410 q 976 872 921 718 l 1092 872 l 779 0 l 726 0 l 550 494 l 374 0 l 321 0 m 531 1113 l 531 953 l 419 953 l 419 1113 l 531 1113 m 682 1113 l 682 953 l 569 953 l 569 1113 l 682 1113 z "},"":{"ha":754,"x_min":199,"x_max":561,"o":"m 199 1086 l 561 1086 l 561 978 l 199 978 l 199 1086 z "},"":{"ha":707,"x_min":90,"x_max":644,"o":"m 90 0 l 90 1071 l 644 1071 l 644 965 l 201 965 l 201 608 l 561 608 l 561 503 l 201 503 l 201 106 l 644 106 l 644 0 l 90 0 m 172 1271 l 535 1271 l 535 1163 l 172 1163 l 172 1271 z "},"":{"ha":679,"x_min":90,"x_max":589,"o":"m 90 0 l 90 872 l 589 872 l 589 769 l 201 769 l 201 517 l 511 517 l 511 414 l 201 414 l 201 103 l 589 103 l 589 0 l 90 0 m 158 1086 l 521 1086 l 521 978 l 158 978 l 158 1086 z "},"":{"ha":292,"x_min":-35,"x_max":328,"o":"m 201 1071 l 201 0 l 90 0 l 90 1071 l 201 1071 m -35 1271 l 328 1271 l 328 1163 l -35 1163 l -35 1271 z "},"":{"ha":292,"x_min":-35,"x_max":328,"o":"m 201 872 l 201 0 l 90 0 l 90 872 l 201 872 m -35 1086 l 328 1086 l 328 978 l -35 978 l -35 1086 z "},"":{"ha":926,"x_min":8,"x_max":919,"o":"m 481 1071 l 919 0 l 797 0 l 647 368 l 272 368 q 201 185 238 278 q 129 0 164 92 l 8 0 l 428 1071 l 481 1071 m 313 474 l 606 474 q 568 563 586 519 q 532 651 550 607 q 495 740 514 694 q 456 838 476 786 l 313 474 m 282 1271 l 644 1271 l 644 1163 l 282 1163 l 282 1271 z "},"":{"ha":804,"x_min":22,"x_max":782,"o":"m 432 872 l 782 0 l 663 0 l 557 258 l 243 258 l 142 0 l 22 0 l 364 872 l 432 872 m 281 361 l 518 361 q 489 437 503 401 q 461 506 475 472 q 432 578 447 540 q 400 660 417 615 l 281 361 m 221 1086 l 583 1086 l 583 978 l 221 978 l 221 1086 z "},"":{"ha":864,"x_min":90,"x_max":774,"o":"m 774 1071 l 774 292 q 748 167 774 222 q 678 72 722 111 q 572 10 633 32 q 439 -11 510 -11 q 303 10 367 -11 q 193 72 240 32 q 118 167 146 111 q 90 292 90 222 l 90 1071 l 201 1071 l 201 294 q 219 216 201 253 q 269 152 238 179 q 344 109 301 125 q 439 93 388 93 q 530 108 489 93 q 601 149 571 122 q 647 213 631 175 q 663 294 663 250 l 663 1071 l 774 1071 m 250 1271 l 613 1271 l 613 1163 l 250 1163 l 250 1271 z "},"":{"ha":865,"x_min":90,"x_max":775,"o":"m 775 872 l 775 285 q 747 163 775 217 q 670 70 718 108 q 561 11 622 32 q 436 -10 500 -10 q 303 11 367 -10 q 193 70 240 32 q 118 163 146 108 q 90 285 90 218 l 90 872 l 201 872 l 201 286 q 220 210 201 246 q 271 149 239 175 q 345 108 303 122 q 435 93 388 93 q 526 108 485 93 q 599 148 568 122 q 647 209 629 174 q 664 286 664 244 l 664 872 l 775 872 m 251 1086 l 614 1086 l 614 978 l 251 978 l 251 1086 z "},"":{"ha":1225,"x_min":35,"x_max":1190,"o":"m 613 1085 q 838 1042 732 1085 q 1022 924 943 999 q 1145 750 1100 850 q 1190 536 1190 650 q 1145 322 1190 422 q 1022 147 1100 222 q 838 29 943 72 q 613 -14 732 -14 q 388 29 493 -14 q 205 147 283 72 q 81 322 126 222 q 35 536 35 422 q 81 750 35 650 q 205 924 126 850 q 388 1042 283 999 q 613 1085 493 1085 m 613 92 q 793 127 708 92 q 942 223 878 163 q 1042 364 1006 283 q 1079 536 1079 444 q 1042 707 1079 626 q 942 848 1006 788 q 793 944 878 908 q 613 979 708 979 q 433 944 517 979 q 285 848 349 908 q 184 707 221 788 q 147 536 147 626 q 184 364 147 444 q 285 223 221 283 q 433 127 349 163 q 613 92 517 92 m 431 1271 l 793 1271 l 793 1163 l 431 1163 l 431 1271 z "},"":{"ha":1040,"x_min":35,"x_max":1006,"o":"m 521 885 q 703 853 615 885 q 858 764 790 822 q 965 622 925 706 q 1006 436 1006 539 q 965 249 1006 332 q 858 108 925 167 q 703 19 790 50 q 521 -12 615 -12 q 338 19 426 -12 q 183 108 250 50 q 75 249 115 167 q 35 436 35 332 q 75 622 35 539 q 183 764 115 706 q 338 853 250 822 q 521 885 426 885 m 521 782 q 379 758 447 782 q 259 689 311 733 q 176 581 207 644 q 146 436 146 517 q 176 292 146 356 q 259 183 207 228 q 379 114 311 138 q 521 90 447 90 q 662 114 594 90 q 781 183 729 138 q 864 292 833 228 q 894 436 894 356 q 864 581 894 517 q 781 689 833 644 q 662 758 729 733 q 521 782 594 782 m 339 1086 l 701 1086 l 701 978 l 339 978 l 339 1086 z "},"":{"ha":888,"x_min":-33,"x_max":839,"o":"m -33 629 l 90 629 l 90 1071 l 261 1071 q 486 1031 381 1071 q 670 919 592 990 q 794 751 749 849 q 839 540 839 654 q 794 328 839 426 q 670 156 749 229 q 487 42 592 83 q 263 0 382 0 l 90 0 l 90 522 l -33 522 l -33 629 m 201 965 l 201 629 l 329 629 l 329 522 l 201 522 l 201 106 l 261 106 q 443 139 358 106 q 591 231 528 172 q 691 369 654 289 q 728 540 728 449 q 691 710 728 632 q 591 844 654 788 q 443 933 528 901 q 261 965 358 965 l 201 965 z "},"":{"ha":771,"x_min":-31,"x_max":736,"o":"m -31 517 l 90 517 l 90 872 l 249 872 q 431 844 343 872 q 587 763 519 817 q 695 629 654 708 q 736 446 736 550 q 696 261 736 343 q 588 121 656 179 q 433 31 521 63 q 251 0 346 0 l 90 0 l 90 411 l -31 411 l -31 517 m 251 103 q 388 126 321 103 q 508 192 456 149 q 594 300 561 236 q 626 444 626 364 q 596 583 626 522 q 515 685 565 643 q 397 748 464 726 q 257 769 329 769 l 201 769 l 201 517 l 332 517 l 332 411 l 201 411 l 201 103 l 251 103 z "},"":{"ha":926,"x_min":8,"x_max":906,"o":"m 647 368 l 272 368 q 201 185 238 278 q 129 0 164 92 l 8 0 l 428 1071 l 481 1071 l 906 32 l 906 -110 l 843 -110 q 816 -122 828 -112 q 806 -144 804 -131 q 831 -169 807 -158 q 885 -183 856 -179 l 885 -281 q 820 -274 856 -279 q 755 -254 785 -268 q 705 -215 725 -240 q 685 -146 685 -189 q 713 -59 685 -93 q 789 -14 742 -25 l 789 19 l 647 368 m 313 474 l 606 474 q 568 563 586 519 q 532 651 550 607 q 495 740 514 694 q 456 838 476 786 l 313 474 z "},"":{"ha":956,"x_min":58,"x_max":901,"o":"m 72 922 l 90 935 l 90 1071 l 201 1071 l 201 935 l 754 935 l 754 1071 l 865 1071 l 865 935 l 901 935 l 901 826 l 865 826 l 865 0 l 754 0 l 754 503 l 201 503 l 201 0 l 90 0 l 90 826 l 58 826 l 72 922 m 754 608 l 754 826 l 201 826 l 201 608 l 754 608 z "},"":{"ha":956,"x_min":63,"x_max":889,"o":"m 63 754 l 90 754 l 90 872 l 201 872 l 201 754 l 754 754 l 754 872 l 865 872 l 865 754 l 889 754 l 889 649 l 865 649 l 865 0 l 754 0 l 754 414 l 201 414 l 201 0 l 90 0 l 90 649 l 63 649 l 63 754 m 754 517 l 754 649 l 201 649 l 201 517 l 754 517 z "},"":{"ha":901,"x_min":-78,"x_max":846,"o":"m -78 585 l 97 585 l 97 1071 l 268 1071 q 493 1031 388 1071 q 677 919 599 990 q 801 751 756 849 q 846 540 846 654 q 801 328 846 426 q 677 156 756 229 q 494 42 599 83 q 269 0 389 0 l 97 0 l 97 478 l -78 478 l -78 585 m 208 965 l 208 585 l 425 585 l 425 478 l 208 478 l 208 106 l 268 106 q 450 139 365 106 q 598 231 535 172 q 698 369 661 289 q 735 540 735 449 q 698 710 735 632 q 598 844 661 788 q 450 933 535 901 q 268 965 365 965 l 208 965 z "},"":{"ha":282,"x_min":90,"x_max":201,"o":"m 90 556 l 90 896 l 201 896 l 201 556 l 90 556 m 90 0 l 90 339 l 201 339 l 201 0 l 90 0 z "},"":{"ha":832,"x_min":42,"x_max":790,"o":"m 235 664 l 360 664 l 360 965 l 42 965 l 42 1071 l 790 1071 l 790 965 l 471 965 l 471 664 l 597 664 l 597 556 l 471 556 l 471 0 l 360 0 l 360 556 l 235 556 l 235 664 z "},"":{"ha":889,"x_min":56,"x_max":833,"o":"m 263 571 l 389 571 l 389 769 l 56 769 l 56 872 l 833 872 l 833 769 l 500 769 l 500 571 l 625 571 l 625 465 l 500 465 l 500 0 l 389 0 l 389 465 l 263 465 l 263 571 z "},"":{"ha":1057,"x_min":76,"x_max":960,"o":"m 131 614 l 131 769 l 76 769 l 76 872 l 242 872 l 242 614 l 131 614 m 278 26 l 278 899 l 374 899 l 849 489 l 849 899 l 960 899 l 960 26 l 849 26 l 849 347 l 389 743 l 389 26 l 278 26 z "},"":{"ha":707,"x_min":97,"x_max":651,"o":"m 464 690 l 464 532 l 353 532 l 353 690 l 464 690 m 651 132 l 651 26 l 97 26 l 97 1097 l 208 1097 l 208 132 l 651 132 z "},"":{"ha":650,"x_min":97,"x_max":594,"o":"m 482 619 l 482 465 l 371 465 l 371 619 l 482 619 m 594 129 l 594 26 l 97 26 l 97 899 l 208 899 l 208 129 l 594 129 z "},"":{"ha":707,"x_min":-71,"x_max":651,"o":"m -71 340 l 97 460 l 97 1071 l 208 1071 l 208 539 l 333 629 l 400 543 l 208 406 l 208 106 l 651 106 l 651 0 l 97 0 l 97 326 l -1 256 l -71 340 z "},"":{"ha":650,"x_min":-65,"x_max":594,"o":"m -65 275 l 97 390 l 97 872 l 208 872 l 208 468 q 273 514 239 490 q 333 557 307 538 l 403 475 l 208 338 l 208 103 l 594 103 l 594 0 l 97 0 l 97 258 l 3 192 l -65 275 z "},"":{"ha":833,"x_min":47,"x_max":778,"o":"m 433 603 q 688 489 597 567 q 778 290 778 411 q 751 174 778 225 q 678 88 724 124 q 570 30 632 51 q 440 3 508 8 l 440 -12 q 513 -57 483 -24 q 542 -140 542 -90 q 496 -236 542 -200 q 385 -276 450 -272 l 385 -179 q 438 -140 438 -171 q 410 -106 438 -112 q 376 -105 397 -106 q 347 -104 354 -104 l 347 -1 q 224 18 278 1 q 133 54 171 35 q 73 91 94 74 q 47 113 51 108 l 122 193 q 147 174 126 189 q 201 144 167 160 q 284 115 236 128 q 389 103 332 103 q 499 116 449 103 q 588 153 550 129 q 646 213 625 178 q 667 290 667 247 q 590 424 667 369 q 364 511 513 479 l 364 510 q 150 616 224 540 q 76 796 76 692 q 105 915 76 861 q 181 1006 133 968 q 293 1064 229 1043 q 426 1085 357 1085 q 573 1062 493 1085 q 711 993 653 1039 l 643 914 q 535 963 583 947 q 435 979 488 979 q 331 965 376 979 q 253 924 285 950 q 204 864 221 899 q 188 788 188 829 q 206 715 188 746 q 258 664 225 685 q 335 628 290 643 q 433 603 381 614 z "},"":{"ha":804,"x_min":50,"x_max":751,"o":"m 421 494 q 545 461 485 481 q 651 410 606 442 q 724 335 697 379 q 747 226 751 290 q 714 127 743 169 q 638 56 685 85 q 533 11 592 26 q 413 -8 475 -4 l 413 -18 q 485 -62 456 -29 q 514 -143 514 -94 q 468 -236 514 -201 q 357 -275 422 -271 l 357 -182 q 410 -143 410 -174 q 402 -122 410 -131 q 382 -110 394 -112 q 348 -109 369 -110 q 319 -108 326 -108 l 319 -8 q 206 17 254 -3 q 124 60 157 38 q 72 103 90 83 q 50 129 54 122 l 114 181 q 175 138 140 157 q 245 105 204 121 q 338 86 286 89 q 453 94 399 85 q 548 123 507 104 q 613 168 589 142 q 639 226 638 194 q 619 292 640 264 q 558 342 597 321 q 467 380 519 364 q 353 410 414 396 q 242 441 293 422 q 153 488 190 460 q 95 556 115 517 q 78 650 75 596 q 110 751 82 706 q 184 826 138 796 q 293 870 231 856 q 428 881 356 885 q 528 863 482 876 q 610 835 575 850 q 667 806 644 819 q 696 786 689 792 l 625 706 q 563 740 596 725 q 499 766 535 754 q 425 781 463 778 q 332 776 375 783 q 257 751 289 768 q 206 707 225 733 q 186 646 188 681 q 204 584 183 608 q 259 543 225 560 q 336 515 293 526 q 421 494 379 504 z "},"":{"ha":832,"x_min":42,"x_max":790,"o":"m 360 967 l 42 967 l 42 1072 l 790 1072 l 790 967 l 471 967 l 471 -24 q 573 -69 535 -33 q 611 -165 611 -106 q 596 -224 611 -197 q 554 -269 581 -250 q 492 -300 528 -289 q 415 -312 456 -311 l 415 -211 q 489 -165 489 -203 q 436 -124 489 -128 q 419 -123 429 -124 q 397 -122 408 -122 q 376 -122 386 -122 q 360 -121 365 -121 l 360 967 z "},"":{"ha":889,"x_min":56,"x_max":833,"o":"m 389 769 l 56 769 l 56 872 l 833 872 l 833 769 l 500 769 l 500 -25 q 602 -69 564 -33 q 640 -162 640 -104 q 625 -219 640 -194 q 583 -263 610 -244 q 521 -293 557 -282 q 444 -306 485 -304 l 444 -207 q 518 -162 518 -199 q 465 -122 518 -126 q 448 -122 458 -122 q 426 -121 438 -121 q 405 -120 415 -121 q 389 -119 394 -119 l 389 769 z "},"":{"ha":889,"x_min":56,"x_max":833,"o":"m 56 872 l 833 872 l 833 769 l 500 769 l 500 0 l 389 0 l 389 769 l 56 769 l 56 872 m 449 901 l 258 985 l 310 1078 l 449 1015 q 521 1048 479 1029 q 590 1079 563 1067 l 635 983 l 449 901 z "},"":{"ha":707,"x_min":-40,"x_max":651,"o":"m 150 1069 l -40 1156 l 11 1250 l 150 1186 q 222 1219 181 1200 q 292 1251 264 1239 l 336 1154 l 150 1069 m 651 132 l 651 26 l 97 26 l 97 1097 l 208 1097 l 208 132 l 651 132 z "},"":{"ha":650,"x_min":97,"x_max":594,"o":"m 97 0 l 97 872 l 208 872 l 208 103 l 594 103 l 594 0 l 378 0 l 378 -17 q 450 -60 421 -28 q 479 -142 479 -93 q 433 -235 479 -200 q 322 -274 388 -271 l 322 -181 q 375 -142 375 -172 q 347 -108 375 -115 q 313 -108 335 -108 q 285 -107 292 -107 l 285 0 l 97 0 z "},"":{"ha":707,"x_min":97,"x_max":651,"o":"m 97 0 l 97 1071 l 208 1071 l 208 106 l 651 106 l 651 0 l 406 0 l 406 -17 q 478 -62 449 -28 q 507 -146 507 -96 q 461 -242 507 -206 q 350 -281 415 -278 l 350 -185 q 403 -146 403 -176 q 375 -111 403 -118 q 341 -110 363 -111 q 313 -110 319 -110 l 313 0 l 97 0 z "},"":{"ha":650,"x_min":-40,"x_max":594,"o":"m 594 103 l 594 0 l 97 0 l 97 872 l 208 872 l 208 103 l 594 103 m 150 888 l -40 971 l 11 1064 l 150 1000 q 222 1033 181 1014 q 292 1065 264 1053 l 336 969 l 150 888 z "},"":{"ha":965,"x_min":97,"x_max":976,"o":"m 97 0 l 97 1071 l 208 1071 l 208 600 q 465 837 336 718 q 721 1071 594 956 l 879 1071 l 353 589 l 976 0 l 824 0 l 272 514 l 208 454 l 208 0 l 97 0 m 433 53 l 433 -17 q 506 -62 476 -28 q 535 -146 535 -96 q 489 -242 535 -206 q 378 -281 443 -278 l 378 -185 q 431 -146 431 -176 q 403 -111 431 -118 q 369 -110 390 -111 q 340 -110 347 -110 l 340 53 l 433 53 z "},"":{"ha":850,"x_min":97,"x_max":836,"o":"m 97 0 l 97 872 l 208 872 l 208 586 l 542 872 l 710 872 l 311 536 q 440 406 372 474 q 575 267 507 338 q 710 129 643 197 q 836 0 776 61 l 686 0 l 231 465 l 208 446 l 208 0 l 97 0 m 419 51 l 419 -17 q 492 -60 463 -28 q 521 -142 521 -93 q 475 -235 521 -200 q 364 -274 429 -271 l 364 -181 q 417 -142 417 -172 q 389 -108 417 -115 q 355 -108 376 -108 q 326 -107 333 -107 l 326 51 l 419 51 z "},"":{"ha":933,"x_min":97,"x_max":836,"o":"m 97 0 l 97 1071 l 192 1071 l 725 544 l 725 1071 l 836 1071 l 836 0 l 725 0 l 725 393 l 208 900 l 208 0 l 97 0 m 503 53 l 503 -17 q 575 -62 546 -28 q 604 -146 604 -96 q 558 -242 604 -206 q 447 -281 513 -278 l 447 -185 q 500 -146 500 -176 q 472 -111 500 -118 q 438 -110 460 -111 q 410 -110 417 -110 l 410 53 l 503 53 z "},"":{"ha":876,"x_min":97,"x_max":779,"o":"m 97 0 l 97 872 l 193 872 l 668 463 l 668 872 l 779 872 l 779 0 l 668 0 l 668 321 l 208 717 l 208 0 l 97 0 m 486 51 l 486 -17 q 558 -60 529 -28 q 588 -142 588 -93 q 542 -235 588 -200 q 431 -274 496 -271 l 431 -181 q 483 -142 483 -172 q 456 -108 483 -115 q 422 -108 443 -108 q 393 -107 400 -107 l 393 51 l 486 51 z "},"":{"ha":801,"x_min":97,"x_max":783,"o":"m 728 568 q 710 465 728 513 q 663 379 693 417 q 590 315 632 342 q 496 275 547 288 q 567 207 529 243 q 642 135 604 171 q 717 64 681 99 q 783 0 753 29 l 629 0 l 361 264 l 208 264 l 208 0 l 97 0 l 97 872 l 342 872 q 497 851 426 872 q 619 790 568 829 q 699 694 671 750 q 728 568 728 638 m 617 568 q 595 652 617 615 q 538 715 574 689 q 453 756 501 742 q 353 769 406 769 l 208 769 l 208 367 l 401 367 q 491 383 451 367 q 558 426 531 399 q 601 490 586 453 q 617 568 617 526 m 419 51 l 419 -17 q 492 -60 463 -28 q 521 -142 521 -93 q 475 -235 521 -200 q 364 -274 429 -271 l 364 -181 q 417 -142 417 -172 q 389 -108 417 -115 q 355 -108 376 -108 q 326 -107 333 -107 l 326 51 l 419 51 z "},"":{"ha":899,"x_min":97,"x_max":857,"o":"m 406 1071 q 551 1044 483 1071 q 670 969 619 1017 q 750 856 721 921 q 779 718 779 792 q 763 612 779 663 q 715 518 746 561 q 643 442 685 475 q 550 389 601 408 l 857 0 l 719 0 l 432 363 q 419 361 425 361 q 406 361 413 361 l 208 361 l 208 0 l 97 0 l 97 1071 l 406 1071 m 208 965 l 208 468 l 406 468 q 508 488 460 468 q 591 541 556 507 q 647 621 626 575 q 668 719 668 667 q 648 817 668 772 q 592 895 628 863 q 509 947 557 928 q 407 965 461 965 l 208 965 m 433 53 l 433 -17 q 506 -62 476 -28 q 535 -146 535 -96 q 489 -242 535 -206 q 378 -281 443 -278 l 378 -185 q 431 -146 431 -176 q 403 -111 431 -118 q 369 -110 390 -111 q 340 -110 347 -110 l 340 53 l 433 53 z "}}}
